{"glyphs":{"0":{"ha":849,"x_min":40,"x_max":808,"o":"m 71 344 q 101 249 88 288 q 131 178 115 210 q 168 120 147 147 q 218 61 189 93 q 306 -14 258 17 q 406 -44 353 -44 q 467 -35 439 -44 q 520 -9 494 -25 q 571 26 546 7 q 624 61 596 44 q 678 106 653 79 q 725 166 704 133 q 762 234 746 199 q 788 304 778 269 q 794 327 790 313 q 801 356 797 342 q 806 383 804 371 q 808 397 808 394 l 808 406 q 808 468 808 442 q 804 517 807 494 q 797 563 801 540 q 783 617 792 586 q 760 693 772 656 q 728 769 749 731 q 674 849 707 807 q 590 940 642 892 q 506 1007 546 982 q 419 1035 465 1032 q 401 1028 421 1035 q 353 1013 381 1022 q 299 990 326 1003 q 258 964 271 976 q 204 911 232 940 q 151 850 176 882 q 105 783 125 818 q 75 710 85 747 q 52 597 57 644 q 40 501 47 549 q 42 470 40 485 q 47 438 43 456 q 56 399 50 421 q 71 344 61 376 m 224 454 q 208 509 214 489 q 201 547 203 529 q 198 584 199 564 q 197 640 197 604 q 203 694 197 664 q 223 753 208 724 q 262 808 238 782 q 325 849 286 833 l 338 849 q 378 837 360 842 q 413 825 397 832 q 472 781 447 803 q 514 737 496 760 q 547 690 532 714 q 579 640 563 667 q 594 610 588 622 q 607 583 601 597 q 618 549 613 568 q 631 501 624 531 q 642 453 638 472 q 650 418 647 433 q 655 388 653 403 q 660 350 657 372 q 651 288 660 322 q 627 224 643 254 q 590 170 611 193 q 543 142 568 147 q 523 141 542 142 q 494 140 504 140 q 449 142 467 140 q 419 149 432 143 q 395 164 407 154 q 368 189 383 174 q 324 231 344 204 q 288 283 303 257 q 263 328 272 308 q 254 350 254 347 q 250 365 254 351 q 241 394 246 378 q 231 428 236 411 q 224 454 226 444 z "},"1":{"ha":565,"x_min":7,"x_max":526,"o":"m 168 11 q 251 6 207 8 q 336 3 294 4 q 414 0 378 1 q 474 -1 450 -1 q 464 25 474 11 q 443 55 454 39 q 422 89 432 71 q 413 128 413 107 q 407 154 408 136 q 406 194 406 172 q 406 239 406 217 q 406 278 406 261 q 408 503 406 408 q 415 667 411 599 q 422 779 418 735 q 431 856 426 824 q 438 893 431 872 q 455 933 444 914 q 476 969 465 953 q 497 994 488 985 q 505 1004 500 1001 q 515 1010 510 1007 q 523 1018 519 1013 q 526 1036 526 1024 q 526 1048 526 1043 q 525 1056 525 1053 q 462 1053 493 1056 q 415 1040 431 1050 q 320 988 364 1014 q 243 938 276 961 q 189 897 210 915 q 163 867 168 878 q 93 769 122 815 q 44 690 64 724 q 16 639 25 657 q 10 624 7 621 q 17 604 14 613 q 32 589 19 596 l 43 589 q 86 651 63 619 q 131 707 110 682 q 167 748 151 732 q 189 764 183 764 q 205 762 197 764 q 217 751 213 760 l 222 735 q 227 708 226 724 q 228 671 228 693 q 227 620 228 656 q 226 539 226 585 q 224 442 225 493 q 222 342 222 390 q 220 256 221 294 q 219 196 219 217 q 219 182 219 192 q 218 165 218 172 l 218 161 q 199 83 210 117 q 164 24 189 49 l 168 11 z "},"2":{"ha":794,"x_min":40,"x_max":768,"o":"m 474 704 q 413 624 446 668 q 347 532 381 579 q 283 439 314 485 q 226 356 251 393 q 185 294 201 318 q 167 265 168 269 q 144 222 154 243 q 127 178 135 201 q 111 128 119 156 q 93 68 103 101 q 90 58 92 65 q 89 46 89 50 l 89 44 q 88 31 89 40 q 87 10 88 21 q 85 -11 86 -1 q 85 -25 85 -21 q 85 -32 85 -26 q 86 -39 86 -37 q 109 -31 94 -39 q 140 -10 124 -22 q 174 14 157 1 q 207 33 192 26 q 260 44 226 43 q 325 46 293 46 q 347 46 333 46 q 375 46 361 46 q 400 45 389 46 q 413 44 411 44 q 433 41 417 44 q 467 33 449 38 q 502 26 486 29 q 522 22 518 22 q 540 19 528 21 q 563 15 551 17 q 584 11 575 13 q 596 10 593 10 l 711 10 q 716 15 714 11 q 718 21 718 18 l 718 22 q 733 69 725 40 q 749 128 742 99 q 763 183 757 158 q 768 218 768 208 l 768 221 q 767 235 768 226 q 765 246 765 243 q 734 239 750 246 q 711 218 718 232 q 651 219 693 218 q 560 219 608 219 q 465 219 500 219 q 403 217 432 219 q 341 206 375 214 q 246 183 307 199 q 235 185 243 183 q 224 186 226 186 l 221 196 q 238 228 221 207 q 276 270 254 249 q 317 310 297 292 q 343 335 336 328 q 502 445 431 394 q 624 547 574 496 q 701 655 674 599 q 729 781 729 711 l 729 785 q 714 834 721 800 q 697 901 707 868 q 648 910 671 906 q 600 922 625 915 q 545 936 575 928 q 474 958 515 944 q 444 975 463 964 q 404 1001 426 986 q 359 1031 382 1015 q 317 1063 336 1047 l 306 1063 q 265 1017 286 1039 q 220 976 243 994 q 174 946 197 957 q 126 935 150 935 q 123 935 125 935 q 121 936 121 936 q 109 938 118 936 q 90 941 100 939 q 72 945 81 943 q 61 947 63 947 l 50 947 q 44 942 47 946 q 40 936 42 938 q 58 906 40 924 q 104 865 76 888 q 167 819 132 843 q 235 774 201 796 q 242 773 236 774 q 251 772 249 772 q 284 781 263 772 q 333 805 306 790 q 390 839 360 819 q 449 878 421 858 q 455 878 451 878 q 460 879 458 879 q 485 867 471 879 q 499 821 499 854 l 499 813 q 492 756 499 785 q 474 704 485 728 z "},"3":{"ha":783,"x_min":39,"x_max":739,"o":"m 44 232 q 97 135 61 176 q 181 66 132 94 q 292 22 231 38 q 419 0 353 6 l 442 0 q 531 10 497 4 q 588 25 564 15 q 632 51 611 35 q 683 93 653 68 q 718 138 707 113 q 733 189 729 164 q 738 235 738 214 q 739 265 738 256 q 723 351 739 315 q 683 415 707 388 q 628 465 658 443 q 568 508 597 488 q 552 517 561 513 q 535 526 543 522 q 519 534 526 531 q 513 538 513 538 l 513 543 q 527 553 513 546 q 561 568 542 560 q 599 585 581 576 q 624 601 617 594 q 671 676 651 633 q 694 763 690 718 q 693 801 694 786 q 683 846 692 815 q 676 877 681 867 q 658 890 672 888 q 619 908 642 899 q 576 925 597 917 q 539 940 556 933 q 517 949 522 946 q 415 994 471 964 q 303 1051 358 1024 l 268 1051 q 209 1019 236 1033 q 158 992 182 1004 q 112 972 135 981 q 64 960 89 964 q 73 932 64 944 q 99 905 82 919 q 140 870 115 890 q 193 821 164 850 q 218 810 211 813 q 244 808 225 808 q 279 817 257 808 q 329 840 301 826 q 388 871 357 854 q 449 901 418 888 q 451 902 449 901 q 454 903 453 903 q 482 868 474 899 q 488 836 486 850 q 489 797 489 822 q 488 783 489 792 q 488 767 488 774 l 488 763 q 460 697 475 729 q 416 638 444 664 q 340 594 388 611 q 213 578 292 578 l 226 532 q 275 528 250 529 q 328 519 300 526 q 388 496 357 511 q 457 451 419 481 q 492 400 481 428 q 511 342 503 372 q 517 316 515 325 q 519 299 518 307 q 521 281 521 290 q 524 254 521 271 q 522 235 522 249 q 521 219 521 222 q 510 181 518 203 q 491 139 503 158 q 463 106 479 119 q 429 93 447 93 q 407 92 426 92 q 376 92 388 92 q 349 92 360 92 q 329 93 338 92 q 314 97 321 94 q 297 104 307 100 q 257 138 269 124 q 244 174 244 151 q 246 191 244 176 q 247 208 247 206 q 241 222 244 210 q 234 249 238 235 q 228 274 231 263 q 225 289 225 286 q 190 322 207 307 q 150 347 174 336 l 82 347 q 39 274 39 325 q 44 232 39 250 z "},"4":{"ha":797,"x_min":10,"x_max":774,"o":"m 367 11 l 369 0 l 672 0 q 667 10 672 3 q 653 25 661 17 q 639 42 646 33 q 631 58 632 51 q 619 78 624 58 q 612 122 615 97 q 606 168 608 146 q 604 197 604 190 q 602 264 604 221 q 597 347 600 307 l 597 349 q 621 360 597 360 q 656 351 639 360 q 692 334 674 343 q 731 317 711 325 q 772 308 750 308 q 766 325 774 306 q 747 373 758 344 q 722 433 735 401 q 697 486 708 464 q 692 493 697 489 q 683 497 686 497 l 614 497 q 594 545 593 508 q 594 649 594 582 l 594 694 q 597 744 594 722 q 606 785 599 767 q 624 821 613 804 q 654 857 635 838 l 651 868 q 604 908 625 886 q 564 953 583 929 q 525 1002 544 976 q 483 1053 506 1028 q 476 1060 481 1056 q 468 1065 471 1064 l 457 1065 q 360 987 403 1024 q 271 903 318 950 q 259 891 267 899 q 244 876 251 883 q 231 864 238 869 q 225 857 225 858 q 67 617 122 714 q 11 463 11 521 q 15 441 10 457 q 27 408 19 425 q 41 377 35 390 q 50 364 47 364 l 396 364 q 417 334 410 364 q 427 268 425 304 q 429 199 429 232 q 429 163 429 167 q 407 83 424 118 q 367 11 390 47 m 156 521 q 153 531 153 526 l 153 532 q 181 606 153 560 q 244 698 208 651 q 314 783 281 744 q 360 833 347 821 q 411 861 382 861 q 413 853 411 860 q 414 844 414 847 q 415 817 414 836 q 416 775 415 797 q 417 733 417 753 q 418 706 418 714 q 414 553 418 610 q 382 497 410 497 l 185 497 q 165 505 175 497 q 156 521 156 513 z "},"5":{"ha":804,"x_min":39,"x_max":758,"o":"m 51 194 q 60 169 57 179 q 66 152 63 160 q 74 137 69 144 q 85 119 78 129 q 236 10 147 53 q 422 -32 325 -32 q 447 -30 428 -32 q 491 -24 467 -28 q 540 -12 515 -19 q 579 4 564 -6 q 656 66 622 35 q 712 133 689 97 q 747 212 735 168 q 758 313 758 256 l 758 317 q 755 358 758 338 q 748 394 751 378 q 742 422 744 411 q 739 432 739 432 q 703 503 721 474 q 669 553 686 532 q 635 589 651 574 q 606 618 619 604 q 568 650 590 633 q 523 681 546 667 q 478 703 500 694 q 442 713 457 713 q 429 712 438 713 q 419 710 421 711 l 258 618 q 257 617 258 618 q 254 617 256 617 q 243 619 250 617 q 233 629 236 622 q 240 678 235 647 q 252 740 246 710 q 265 792 258 771 q 275 814 271 814 l 576 814 q 609 838 592 814 q 642 894 626 863 q 667 953 657 925 q 678 988 678 981 q 680 1006 679 992 q 681 1022 681 1019 q 677 1041 679 1026 q 674 1060 675 1056 q 640 1044 663 1060 q 599 1022 618 1029 q 585 1020 596 1022 q 560 1017 575 1018 q 532 1013 546 1015 q 510 1011 518 1011 l 488 1011 q 341 1017 414 1011 q 194 1024 268 1024 q 165 1022 176 1024 q 154 1000 154 1021 q 146 949 151 983 q 134 872 140 915 q 121 783 128 829 q 108 694 114 736 q 97 619 101 653 q 89 571 92 586 q 86 558 88 567 q 84 540 85 549 q 82 523 83 531 q 81 514 81 515 q 97 491 81 504 q 126 467 114 478 l 139 467 q 209 501 182 489 q 256 518 236 513 q 290 525 275 524 q 326 526 306 526 q 406 513 365 526 q 483 474 447 499 q 544 413 518 449 q 582 333 571 376 q 590 306 585 325 q 594 283 594 288 l 594 282 q 596 268 596 279 q 596 247 596 257 l 596 236 q 575 147 596 181 q 527 94 554 113 q 474 70 500 76 q 436 63 447 64 l 425 63 q 366 70 389 65 q 328 82 343 75 q 302 99 313 89 q 281 119 292 108 q 266 167 275 140 q 247 217 257 193 q 228 260 238 242 q 213 282 218 278 q 171 313 197 297 q 119 329 144 329 q 94 324 108 329 q 68 308 81 318 q 47 282 56 297 q 39 249 39 267 l 39 247 q 44 226 39 246 q 51 194 49 206 z "},"6":{"ha":817,"x_min":39,"x_max":775,"o":"m 69 329 q 93 254 83 282 q 115 204 103 226 q 144 160 126 182 q 190 104 161 139 q 216 72 199 89 q 252 40 233 56 q 287 14 271 25 q 310 0 303 3 q 322 0 314 0 q 342 -1 332 0 q 360 -1 351 -1 q 374 -1 369 -1 q 470 5 422 -1 q 567 35 518 11 q 597 48 585 43 q 619 58 608 53 q 640 71 629 63 q 667 93 650 79 q 737 174 711 122 q 775 289 763 226 q 774 315 775 303 q 772 340 774 326 q 765 371 769 353 q 753 417 761 389 q 728 488 740 458 q 703 538 715 517 q 678 574 690 558 q 654 601 667 589 q 628 625 644 611 q 596 652 613 639 q 566 674 579 665 q 551 683 553 683 l 517 683 q 438 655 483 671 q 352 624 393 639 q 282 600 311 610 q 251 590 253 590 q 240 603 249 590 q 231 625 231 615 q 284 794 251 736 q 349 868 317 853 l 361 868 q 382 856 365 865 q 420 834 399 847 q 467 806 442 821 q 513 775 492 790 q 530 768 524 771 q 542 765 536 765 q 556 763 549 764 q 575 763 563 763 q 619 769 594 763 q 667 788 643 776 q 713 814 690 799 q 750 844 735 829 q 747 856 747 847 q 743 868 746 865 q 719 878 735 874 q 688 886 704 882 q 658 894 672 890 q 640 903 644 899 q 597 927 625 910 q 539 963 568 944 q 487 994 510 981 q 461 1008 464 1008 q 426 1000 450 1008 q 374 979 403 992 q 316 953 346 967 q 263 926 286 939 q 197 861 226 890 q 142 799 167 832 q 94 723 117 767 q 50 614 72 679 q 45 585 47 601 q 42 550 43 568 q 40 515 40 532 q 39 486 39 497 q 40 451 39 467 q 45 418 42 435 q 54 381 49 401 q 69 329 60 360 m 353 522 q 424 515 392 522 q 485 492 456 508 q 542 448 514 475 q 599 382 569 421 q 622 345 615 361 q 635 297 628 329 q 641 272 638 289 q 646 254 644 256 q 638 217 646 239 q 616 176 629 196 q 586 142 603 157 q 553 128 569 128 q 531 126 551 126 q 500 126 511 126 q 452 127 469 126 q 424 139 435 128 q 378 171 399 156 q 340 203 358 186 q 306 244 322 221 q 274 301 290 268 l 226 475 q 234 488 226 481 q 253 503 242 496 q 276 516 264 511 q 294 521 288 521 q 303 521 296 521 q 319 522 310 521 q 338 522 328 522 q 353 522 347 522 z "},"7":{"ha":799,"x_min":54,"x_max":792,"o":"m 93 -35 q 99 -44 93 -40 q 108 -51 104 -47 l 121 -51 q 160 -45 142 -50 q 196 -35 178 -40 q 232 -26 214 -31 q 272 -17 250 -21 q 307 -10 285 -14 q 350 -1 329 -6 q 386 8 371 3 q 401 18 401 13 q 402 31 401 21 q 403 53 403 42 q 405 74 404 64 q 406 88 406 85 q 415 133 408 101 q 430 197 422 164 q 444 259 438 231 q 453 296 450 288 q 515 461 478 386 q 593 599 551 536 q 676 712 635 661 q 751 804 718 763 q 775 838 767 824 q 787 869 783 853 q 791 905 790 885 q 792 956 792 925 q 785 976 788 968 q 769 990 782 983 l 735 990 q 622 992 672 990 q 512 998 571 994 q 374 1005 453 1001 q 175 1013 294 1008 l 163 1013 q 147 1004 156 1010 q 133 990 138 999 l 54 782 l 61 754 q 99 762 79 754 q 138 779 119 769 q 175 797 157 789 q 208 804 193 804 q 224 808 213 806 q 249 812 236 810 q 272 815 261 814 q 286 817 282 817 l 301 817 q 347 817 319 817 q 408 816 376 817 q 473 815 440 815 q 531 813 506 814 q 574 810 557 811 q 590 806 590 808 l 590 804 q 572 783 588 799 q 537 749 557 768 q 494 707 517 729 q 456 665 472 685 q 390 597 422 638 q 326 509 357 556 q 269 415 296 463 q 221 325 242 367 q 185 251 200 283 q 165 203 171 218 q 138 128 149 160 q 119 72 126 97 q 105 24 111 47 q 90 -28 99 0 q 92 -31 92 -29 q 93 -35 92 -33 z "},"8":{"ha":836,"x_min":44,"x_max":792,"o":"m 82 197 q 124 146 106 168 q 167 103 143 124 q 225 60 190 82 q 317 11 260 39 q 344 4 333 7 q 365 0 354 1 q 389 -1 376 -1 q 425 -1 403 -1 q 463 -1 449 -1 q 490 1 478 0 q 515 4 501 1 q 549 11 528 7 q 599 26 581 19 q 643 46 618 33 q 672 63 660 56 q 695 76 685 69 q 716 92 706 83 q 740 115 726 101 q 758 142 749 124 q 774 182 767 160 q 787 227 782 204 q 792 267 792 250 q 783 288 788 271 q 774 326 778 306 q 765 365 769 346 q 756 393 760 385 q 744 428 756 411 q 717 463 733 446 q 681 497 700 479 q 649 532 663 514 q 647 539 649 533 q 644 544 644 544 q 656 557 644 544 q 684 588 668 569 q 717 626 700 607 q 742 660 733 646 q 746 674 743 664 q 751 694 749 683 q 755 715 753 706 q 757 729 757 725 q 749 756 753 738 q 740 793 744 774 q 730 830 735 813 q 721 857 725 847 q 682 909 708 882 q 626 959 656 936 q 569 998 597 982 q 525 1018 542 1014 q 485 1037 507 1028 q 450 1050 463 1046 q 436 1054 438 1054 q 339 1040 388 1054 q 249 1003 290 1025 q 175 958 207 982 q 126 914 143 933 q 96 860 106 893 q 79 799 86 828 l 79 753 q 85 737 81 749 q 92 712 89 725 q 99 687 96 699 q 101 671 101 675 q 126 636 113 660 q 157 590 139 613 q 184 557 176 571 q 197 532 192 543 q 44 336 44 464 l 44 335 q 48 307 44 324 q 57 271 51 290 q 69 232 63 251 q 82 197 75 213 m 218 289 q 197 323 204 306 q 190 347 189 340 l 190 357 q 197 386 190 368 q 217 421 204 404 q 247 450 229 438 q 286 463 265 463 q 297 464 286 464 q 315 464 310 464 q 341 460 328 464 q 373 450 354 457 q 418 432 392 443 q 486 406 444 421 q 596 337 558 378 q 653 267 633 296 q 654 260 653 264 q 656 254 656 257 q 647 195 656 218 q 624 160 639 172 q 589 142 610 147 q 543 138 568 138 q 513 138 524 138 q 489 141 501 139 q 460 148 476 143 q 414 163 443 153 q 309 215 356 182 q 218 289 263 249 m 231 785 q 225 806 228 792 q 221 822 222 819 q 237 862 221 842 q 272 892 253 882 l 353 892 q 390 883 368 888 q 428 868 413 878 q 530 808 496 832 q 580 763 564 783 q 599 724 596 743 q 607 683 601 706 q 593 651 607 664 q 561 629 579 638 q 526 617 543 621 q 506 613 510 613 q 458 619 488 613 q 397 640 429 626 q 331 674 364 654 q 274 718 299 693 q 244 748 253 736 q 231 785 235 760 z "},"9":{"ha":810,"x_min":42,"x_max":768,"o":"m 83 128 q 219 78 156 111 q 361 0 282 46 l 407 0 q 497 37 443 7 q 607 115 551 67 q 663 181 636 144 q 722 278 689 218 q 755 354 742 307 q 768 451 768 401 q 767 499 768 479 q 764 540 767 519 q 755 587 761 561 q 736 654 749 613 q 715 730 724 697 q 692 792 706 763 q 659 849 679 821 q 606 914 639 878 q 543 981 569 953 q 481 1029 517 1010 q 467 1030 476 1029 q 446 1031 457 1031 q 425 1031 435 1031 q 411 1031 415 1031 q 345 1028 372 1031 q 291 1018 318 1026 q 233 993 264 1010 q 157 949 203 976 q 103 896 125 929 q 67 826 81 863 q 48 753 54 789 q 43 694 42 718 q 56 592 43 644 q 97 490 69 539 q 164 401 124 442 q 257 336 204 361 q 271 328 261 333 q 282 324 281 324 l 329 324 q 368 342 340 329 q 426 370 396 356 q 485 398 457 385 q 524 417 513 411 q 540 422 528 418 q 556 428 551 426 q 569 410 561 428 q 579 382 576 393 q 578 370 579 379 q 577 350 578 361 q 576 328 576 339 q 574 313 575 318 l 574 311 q 565 257 574 289 q 543 196 556 225 q 517 147 531 167 q 493 126 503 126 q 456 143 485 126 q 390 179 426 160 q 316 215 353 199 q 254 232 279 232 l 238 232 q 196 217 221 226 q 147 196 171 208 q 105 169 124 183 q 81 139 86 156 l 81 133 q 82 130 81 132 q 83 128 83 128 m 174 717 q 166 744 171 726 q 161 764 161 761 q 167 807 161 785 q 184 848 174 829 q 210 878 194 867 q 243 890 225 890 q 260 892 244 892 q 283 892 275 892 q 356 878 325 892 q 413 841 388 864 q 460 789 438 818 q 507 729 482 760 q 524 691 518 704 q 537 661 531 678 q 550 618 543 644 q 569 543 557 592 q 551 526 565 535 q 519 512 536 518 q 488 501 503 506 q 467 497 472 497 q 446 497 464 497 q 419 496 428 496 q 394 496 404 496 q 379 497 386 496 q 365 501 372 499 q 349 508 358 504 q 304 534 322 524 q 272 557 286 544 q 242 588 257 569 q 208 636 228 606 q 194 657 200 649 q 186 673 189 665 q 181 690 183 681 q 174 717 178 700 z "}," ":{"ha":351,"x_min":0,"x_max":0,"o":""},"!":{"ha":456,"x_min":26,"x_max":442,"o":"m 147 104 q 132 81 140 92 q 115 60 124 71 q 101 39 107 50 q 94 14 96 28 q 125 -40 103 -17 q 179 -104 147 -64 l 204 -104 q 220 -94 208 -104 q 247 -68 232 -85 q 278 -31 263 -51 q 307 11 294 -10 q 303 43 317 28 q 270 72 289 58 q 235 93 251 85 q 222 103 218 101 l 204 103 q 169 103 185 103 q 147 104 154 103 m 214 969 q 147 1026 176 1004 q 96 1059 118 1047 q 57 1074 74 1071 q 26 1078 40 1078 l 26 1076 q 39 1046 26 1064 q 67 1017 51 1028 q 92 981 83 997 q 106 949 101 965 q 111 913 110 932 q 113 868 113 893 l 113 808 l 103 483 q 110 418 110 458 q 106 331 110 385 l 104 303 q 119 292 104 306 q 156 260 133 279 q 205 223 178 242 q 257 197 232 204 q 301 197 282 189 q 329 243 321 206 q 326 279 333 263 q 315 299 318 296 l 321 438 q 320 450 321 440 q 318 471 319 460 q 316 494 317 482 q 315 513 315 506 l 315 517 l 315 518 l 315 529 q 316 569 315 543 q 318 626 317 596 q 321 688 319 657 q 324 744 322 719 l 325 785 q 332 854 326 822 q 350 916 338 886 q 385 976 363 946 q 442 1040 407 1006 l 438 1081 q 409 1079 421 1081 q 385 1075 397 1078 q 360 1067 374 1072 q 324 1051 346 1061 q 308 1041 321 1050 q 279 1019 296 1032 q 244 993 263 1007 q 214 969 226 979 z "},"\"":{"ha":574,"x_min":63,"x_max":536,"o":"m 69 1135 q 66 1124 68 1132 q 63 1113 64 1115 q 72 1070 67 1097 q 83 1014 78 1043 q 94 960 89 985 q 101 926 99 936 l 126 926 q 159 956 133 926 q 213 1020 185 985 q 262 1084 240 1056 q 283 1113 283 1113 q 283 1117 282 1114 q 281 1124 283 1121 q 254 1135 274 1126 q 228 1147 235 1144 l 217 1147 q 195 1140 204 1143 q 178 1136 186 1138 q 158 1134 169 1135 q 126 1133 146 1133 q 92 1133 107 1133 q 69 1135 76 1133 m 322 1135 q 319 1124 321 1132 q 315 1113 317 1115 q 325 1070 319 1097 q 336 1014 331 1043 q 347 960 342 985 q 354 926 351 936 l 379 926 q 412 956 386 926 q 465 1020 438 985 q 515 1084 493 1056 q 536 1113 536 1113 q 535 1117 535 1114 q 533 1124 536 1121 q 507 1135 526 1126 q 481 1147 488 1144 l 469 1147 q 448 1140 457 1143 q 431 1136 439 1138 q 410 1134 422 1135 q 379 1133 399 1133 q 344 1133 360 1133 q 322 1135 329 1133 z "},"'":{"ha":279,"x_min":49,"x_max":269,"o":"m 56 1135 q 52 1124 54 1132 q 49 1113 50 1115 q 58 1070 53 1097 q 69 1014 64 1043 q 80 960 75 985 q 88 926 85 936 l 113 926 q 145 956 119 926 q 199 1020 171 985 q 248 1084 226 1056 q 269 1113 269 1113 q 269 1117 268 1114 q 267 1124 269 1121 q 240 1135 260 1126 q 214 1147 221 1144 l 203 1147 q 181 1140 190 1143 q 164 1136 172 1138 q 144 1134 156 1135 q 113 1133 132 1133 q 78 1133 93 1133 q 56 1135 63 1133 z "},",":{"ha":340,"x_min":7,"x_max":324,"o":"m 142 -193 l 167 -193 q 199 -164 174 -193 q 253 -99 225 -135 q 302 -35 281 -64 q 324 -7 324 -7 q 323 -2 322 -6 q 321 4 324 1 q 315 7 318 6 q 307 11 313 8 q 300 15 303 15 q 230 48 271 36 q 147 61 189 60 q 68 53 106 63 q 7 24 31 44 l 10 19 l 13 18 q 14 15 14 17 q 17 14 14 14 q 18 11 18 13 q 19 10 19 11 q 20 8 18 7 q 21 7 22 10 q 74 -18 53 4 q 114 -57 94 -40 q 130 -137 121 -96 q 142 -193 139 -179 z "},"-":{"ha":688,"x_min":76,"x_max":621,"o":"m 442 508 l 569 508 q 579 522 571 508 q 597 554 588 536 q 613 590 606 572 q 619 618 619 608 q 620 626 619 619 q 621 638 621 632 q 620 646 621 642 q 619 653 619 650 l 428 653 l 219 653 l 203 653 q 195 651 203 650 q 185 653 188 653 l 92 653 q 82 640 85 653 q 76 618 79 626 l 76 538 q 78 523 76 535 q 81 508 79 511 l 200 508 l 442 508 z "},".":{"ha":290,"x_min":38,"x_max":260,"o":"m 90 104 q 75 81 83 92 q 58 60 67 71 q 44 39 50 50 q 38 14 39 28 q 68 -40 46 -17 q 122 -104 90 -64 l 147 -104 q 163 -94 151 -104 q 190 -68 175 -85 q 222 -31 206 -51 q 250 11 238 -10 q 246 43 260 28 q 213 72 232 58 q 178 93 194 85 q 165 103 161 101 l 147 103 q 113 103 128 103 q 90 104 97 103 z "},":":{"ha":307,"x_min":47,"x_max":269,"o":"m 100 104 q 85 81 93 92 q 68 60 76 71 q 54 39 60 50 q 47 14 49 28 q 78 -40 56 -17 q 132 -104 100 -64 l 157 -104 q 173 -94 161 -104 q 200 -68 185 -85 q 231 -31 215 -51 q 260 11 247 -10 q 256 43 269 28 q 223 72 242 58 q 188 93 204 85 q 175 103 171 101 l 157 103 q 122 103 138 103 q 100 104 107 103 m 100 804 q 85 781 93 792 q 68 760 76 771 q 54 739 60 750 q 47 714 49 728 q 78 660 56 683 q 132 596 100 636 l 157 596 q 173 606 161 596 q 200 632 185 615 q 231 669 215 649 q 260 711 247 690 q 256 743 269 728 q 223 772 242 758 q 188 793 204 785 q 175 803 171 801 l 157 803 q 122 803 138 803 q 100 804 107 803 z "},";":{"ha":344,"x_min":7,"x_max":324,"o":"m 142 -193 l 167 -193 q 199 -164 174 -193 q 253 -99 225 -135 q 302 -35 281 -64 q 324 -7 324 -7 q 323 -2 322 -6 q 321 4 324 1 q 315 7 318 6 q 307 11 313 8 q 300 15 303 15 q 230 48 271 36 q 147 61 189 60 q 68 53 106 63 q 7 24 31 44 l 10 19 l 13 18 q 14 15 14 17 q 17 14 14 14 q 18 11 18 13 q 19 10 19 11 q 20 8 18 7 q 21 7 22 10 q 74 -18 53 4 q 114 -57 94 -40 q 130 -137 121 -96 q 142 -193 139 -179 m 122 810 q 107 787 115 797 q 90 766 99 776 q 76 744 82 756 q 69 719 71 733 q 100 665 78 689 q 154 601 122 642 l 179 601 q 195 611 183 601 q 222 638 207 621 q 253 675 238 654 q 282 717 269 696 q 278 749 292 733 q 245 777 264 764 q 210 799 226 790 q 197 808 193 807 l 179 808 q 144 808 160 808 q 122 810 129 808 z "},"?":{"ha":711,"x_min":10,"x_max":699,"o":"m 443 722 q 369 622 407 676 q 300 507 332 568 q 281 458 289 488 q 267 399 272 429 q 262 340 263 369 q 267 292 261 311 q 315 250 285 276 q 378 207 346 224 q 438 194 411 190 q 475 243 465 197 q 472 279 479 263 q 461 299 464 296 l 464 363 q 474 423 467 400 q 492 463 481 446 q 521 497 504 481 q 561 536 538 513 q 663 657 626 594 q 699 799 699 719 l 699 803 q 683 852 690 818 q 667 919 676 886 q 617 928 640 924 q 569 940 594 933 q 515 954 544 946 q 443 976 485 963 q 414 993 432 982 q 374 1019 396 1004 q 328 1049 351 1033 q 286 1081 306 1065 l 275 1081 q 234 1035 256 1057 q 190 994 213 1013 q 143 964 167 975 q 96 953 119 953 q 92 953 94 953 q 90 954 90 954 q 78 956 88 954 q 60 959 69 957 q 41 963 50 961 q 31 965 32 965 l 19 965 q 14 960 17 964 q 10 954 11 956 q 28 924 10 942 q 74 883 46 906 q 136 838 101 861 q 204 792 171 814 q 212 791 206 792 q 221 790 218 790 q 253 799 232 790 q 302 823 275 808 q 360 857 329 838 q 418 896 390 876 q 424 897 421 896 q 429 897 428 897 q 454 885 440 897 q 468 839 468 872 l 468 831 q 461 774 468 803 q 443 722 454 746 m 293 104 q 278 81 286 92 q 261 60 269 71 q 247 39 253 50 q 240 14 242 28 q 271 -40 249 -17 q 325 -104 293 -64 l 350 -104 q 366 -94 354 -104 q 393 -68 378 -85 q 424 -31 408 -51 q 453 11 440 -10 q 449 43 463 28 q 416 72 435 58 q 381 93 397 85 q 368 103 364 101 l 350 103 q 315 103 331 103 q 293 104 300 103 z "},"A":{"ha":1367,"x_min":54,"x_max":1326,"o":"m 939 146 q 945 119 942 129 q 955 98 949 108 q 971 73 961 88 q 993 32 981 58 q 1022 -2 1007 15 q 1044 -26 1038 -19 l 1057 -26 q 1067 -21 1060 -25 q 1076 -15 1074 -17 l 1317 32 q 1323 36 1319 32 q 1326 43 1326 40 q 1301 61 1318 51 q 1269 78 1283 71 q 1210 126 1233 99 q 1174 179 1188 153 q 1156 228 1161 206 q 1150 263 1150 250 q 1149 277 1150 265 q 1148 303 1149 289 q 1147 332 1147 318 q 1147 356 1147 347 q 1148 435 1147 388 q 1150 534 1149 482 q 1153 638 1151 586 q 1156 731 1154 690 q 1158 794 1157 771 q 1158 813 1158 817 l 1158 818 q 1159 856 1158 833 q 1160 903 1160 879 q 1160 951 1160 928 q 1160 993 1160 975 l 1160 1026 l 1150 1061 q 1096 1065 1126 1063 q 1037 1069 1065 1067 q 988 1072 1008 1071 q 964 1074 967 1074 q 935 1068 944 1074 q 925 1038 925 1063 q 903 1013 911 1024 q 882 995 894 1003 q 849 983 869 988 q 793 979 829 979 q 701 995 753 979 q 588 1049 650 1011 q 556 1060 576 1053 q 512 1076 535 1068 q 468 1090 489 1085 q 435 1096 447 1096 l 307 1096 q 230 1077 264 1096 q 172 1035 196 1058 q 136 991 149 1011 q 124 968 124 971 q 107 929 114 953 q 100 889 100 906 l 100 886 q 111 825 100 857 q 142 765 122 793 q 189 719 163 738 q 247 701 215 701 q 283 711 265 701 q 313 736 300 721 q 334 770 326 751 q 342 807 342 789 q 328 844 340 828 q 303 876 317 860 q 279 908 290 892 q 268 944 268 924 l 268 946 q 281 965 268 961 q 306 969 294 969 q 333 968 324 969 q 357 957 343 967 q 498 857 450 888 q 546 824 546 826 l 546 818 q 483 800 508 808 q 439 779 458 792 q 403 749 419 767 q 369 703 388 731 q 362 686 367 700 q 356 668 357 672 q 347 629 353 660 q 333 563 340 599 q 318 497 325 528 q 308 460 311 467 q 299 428 308 443 q 278 398 290 413 q 251 369 265 383 q 226 343 236 356 q 180 306 203 324 q 135 268 157 289 q 94 218 113 247 q 61 147 75 189 q 56 121 57 133 q 54 93 54 108 l 54 89 q 57 73 54 85 q 63 48 60 61 q 69 22 65 35 q 74 6 72 10 q 87 10 83 6 q 96 19 90 14 q 96 28 96 21 q 95 42 96 35 q 94 57 94 50 q 93 67 93 64 q 101 87 94 75 q 116 110 107 99 q 135 128 125 121 q 156 136 146 136 l 272 136 q 289 131 275 135 q 310 124 303 126 q 339 111 317 121 q 391 88 361 101 q 454 60 421 75 q 517 33 488 46 q 569 10 547 19 q 599 -3 592 0 q 618 -10 604 -6 q 638 -15 632 -14 l 683 -15 q 758 24 726 -7 q 808 92 789 54 q 835 166 826 129 q 844 225 844 203 q 837 265 844 256 q 808 286 829 275 l 797 286 q 785 266 790 279 q 772 238 779 253 q 758 210 765 224 q 740 193 750 197 q 727 192 740 193 q 707 192 714 192 q 681 192 692 192 q 663 193 671 192 q 645 197 654 194 q 622 206 636 200 q 541 235 582 219 q 459 265 500 251 q 378 288 418 279 q 297 297 338 297 l 293 310 q 325 319 299 314 q 383 330 351 325 q 442 339 414 335 q 481 343 469 343 q 531 380 507 354 q 569 436 554 406 q 583 436 574 436 q 607 437 594 436 q 631 438 619 438 q 646 438 642 438 q 761 435 692 438 q 897 425 831 432 q 917 390 917 418 q 917 321 917 364 l 917 310 q 924 228 919 269 q 939 146 928 188 m 606 517 l 601 533 q 691 533 640 533 q 787 531 742 532 q 863 526 832 529 q 894 517 894 522 l 899 503 q 758 508 832 503 q 606 517 685 513 m 635 621 q 621 632 626 624 q 617 644 615 640 q 654 715 624 681 q 708 772 685 749 q 765 785 738 779 q 817 798 793 790 q 864 818 842 806 q 906 853 886 831 l 931 853 q 932 847 932 851 q 933 842 932 843 q 933 815 933 835 q 931 770 932 796 q 926 716 929 744 q 917 664 922 688 q 903 625 911 640 q 882 610 894 610 l 835 610 q 795 612 824 610 q 735 615 767 614 q 674 619 703 617 q 635 621 646 621 z "},"B":{"ha":1371,"x_min":54,"x_max":1314,"o":"m 556 3 l 561 -17 q 574 -16 565 -17 q 594 -14 583 -15 q 614 -11 604 -12 q 628 -8 624 -10 q 639 -3 631 -8 q 658 9 647 3 q 676 20 668 15 q 688 26 685 25 q 769 56 726 50 q 850 63 813 63 q 1057 26 950 63 q 1088 16 1071 22 q 1122 4 1106 10 q 1151 -6 1138 -1 q 1171 -10 1164 -10 q 1183 -9 1174 -10 q 1194 -8 1192 -8 q 1276 119 1243 47 q 1314 269 1310 190 l 1314 315 q 1310 348 1311 336 q 1308 369 1310 360 q 1303 390 1306 379 q 1297 419 1301 400 q 1276 493 1288 460 q 1231 571 1264 526 q 1192 629 1213 601 q 1171 663 1171 657 q 1179 676 1174 667 q 1191 697 1185 686 q 1202 718 1197 708 q 1210 732 1207 728 q 1247 807 1233 778 q 1268 860 1261 836 q 1259 875 1261 867 q 1254 894 1257 883 q 1245 915 1251 904 q 1222 940 1239 926 q 1094 1038 1144 1006 q 1013 1081 1044 1069 q 965 1092 982 1093 q 939 1092 949 1092 q 910 1081 918 1092 q 900 1055 903 1069 q 894 1024 897 1040 q 882 999 892 1008 q 844 942 858 965 q 809 903 829 919 q 757 874 789 886 q 668 847 725 861 q 659 850 664 847 q 654 860 654 853 q 668 874 654 865 q 700 892 682 882 q 736 911 718 901 q 763 929 754 921 q 790 958 775 939 q 817 1001 804 978 q 840 1049 831 1025 q 849 1090 849 1072 l 775 1090 q 767 1058 775 1069 q 748 1040 760 1046 q 722 1033 736 1035 q 693 1032 707 1032 q 623 1041 658 1032 q 524 1079 588 1050 q 475 1099 496 1092 q 434 1110 454 1107 q 392 1115 414 1114 q 340 1115 371 1115 q 265 1109 296 1115 q 212 1090 235 1103 q 172 1058 189 1078 q 139 1010 154 1038 q 130 994 133 1004 q 124 972 126 983 q 119 949 121 960 q 114 929 117 938 l 114 918 q 122 847 114 882 q 149 783 131 813 q 194 734 167 754 q 257 708 221 714 l 326 708 q 342 723 335 717 q 357 737 350 729 q 368 756 364 744 q 372 785 372 767 l 372 790 q 358 851 372 829 q 325 888 344 872 q 286 919 306 904 q 254 958 267 933 q 253 965 253 961 q 253 972 253 969 l 253 975 q 265 995 253 990 q 292 1000 276 1000 q 328 990 310 1000 q 367 964 346 979 q 410 930 388 949 q 460 894 433 911 q 492 872 471 883 q 515 860 513 861 q 497 835 507 844 q 478 817 488 826 q 459 794 468 807 q 443 756 450 781 q 432 692 436 731 q 428 593 428 653 q 426 458 428 528 q 420 326 424 389 q 415 215 417 264 q 413 142 413 165 q 408 128 413 138 q 399 108 404 118 q 389 92 394 99 q 381 85 383 85 q 367 83 381 83 q 347 82 354 82 q 322 83 335 82 q 299 90 310 85 q 283 104 289 94 q 276 131 276 114 q 280 144 276 135 q 288 165 283 153 q 297 188 293 176 q 300 211 300 200 q 283 288 300 258 q 244 333 265 317 q 202 355 222 349 q 178 363 182 361 l 119 363 q 69 319 83 344 q 54 269 54 293 l 54 263 q 57 228 54 239 q 60 206 60 218 l 65 189 q 156 65 92 111 q 300 3 221 18 l 463 3 q 521 38 496 17 q 565 96 546 60 q 598 185 585 132 q 619 315 611 238 q 620 372 619 332 q 622 463 621 413 q 624 567 622 514 q 626 665 625 621 q 630 738 628 710 q 633 767 632 767 l 653 767 q 658 746 656 754 q 664 728 661 738 q 668 706 667 718 q 669 675 669 694 q 670 632 669 658 q 671 576 671 606 q 671 518 671 547 q 671 467 671 489 l 671 419 q 667 332 671 378 q 656 241 664 286 q 635 156 649 196 q 601 85 622 115 q 592 69 599 81 q 578 44 585 57 q 564 19 571 31 q 556 3 557 7 m 807 251 q 813 276 807 253 q 827 331 818 299 q 847 402 836 364 q 866 472 857 440 q 882 526 875 504 q 890 547 889 547 l 925 547 q 943 540 925 547 q 983 522 961 532 q 1023 501 1004 511 q 1044 489 1042 492 q 1078 461 1060 481 q 1113 419 1096 442 q 1144 375 1129 397 q 1168 339 1158 353 q 1179 310 1172 328 q 1193 272 1186 292 q 1207 235 1200 253 q 1217 210 1214 218 q 1164 215 1197 210 q 1093 228 1131 221 q 1020 240 1056 235 q 961 246 985 246 q 931 247 953 246 q 885 249 910 249 q 838 251 860 250 q 807 251 815 251 m 885 650 q 883 658 885 653 q 882 663 882 663 q 876 773 875 721 q 867 882 876 825 q 894 906 874 894 q 926 918 915 918 q 973 902 943 918 q 1033 865 1003 886 q 1085 822 1063 843 q 1113 790 1108 800 q 1119 774 1117 786 q 1122 756 1122 763 q 1097 715 1118 738 q 1049 673 1076 693 q 990 640 1021 653 q 932 626 958 626 q 903 628 911 626 q 885 650 896 629 z "},"D":{"ha":1163,"x_min":57,"x_max":1119,"o":"m 331 60 q 389 60 367 60 q 442 54 413 60 q 516 33 471 49 q 640 -11 561 18 q 662 -18 647 -14 q 678 -22 676 -22 l 694 -22 q 743 -11 718 -22 q 791 15 768 0 q 833 47 814 31 q 860 71 851 63 q 935 139 908 113 q 980 187 963 165 q 1010 232 997 208 q 1043 290 1022 256 q 1063 330 1056 313 q 1078 366 1071 347 q 1093 408 1086 385 q 1110 464 1100 431 q 1114 474 1113 467 q 1115 485 1115 481 l 1115 486 q 1119 563 1119 524 q 1111 672 1119 615 q 1067 785 1092 728 q 1004 892 1042 843 q 960 944 978 924 q 921 979 942 964 q 872 1011 900 994 q 799 1053 844 1028 q 755 1072 775 1065 q 714 1083 735 1079 q 668 1088 693 1088 q 610 1089 643 1089 q 550 1088 571 1089 q 510 1083 529 1086 q 464 1076 490 1081 q 389 1065 438 1072 q 331 1049 360 1056 q 276 1038 301 1042 q 231 1031 251 1033 q 201 1029 211 1029 q 159 1038 182 1029 q 124 1065 136 1046 q 115 1077 119 1069 q 106 1093 111 1085 q 96 1107 101 1101 q 82 1113 90 1113 q 73 1108 78 1113 q 68 1100 68 1103 l 68 1088 q 69 1066 68 1075 q 71 1049 69 1057 q 75 1030 72 1040 q 83 1001 78 1019 q 97 956 90 978 q 113 914 103 935 q 140 874 122 893 q 188 833 157 854 q 248 810 219 818 q 313 799 276 803 q 285 764 307 785 q 240 715 264 743 q 197 653 215 688 q 178 579 178 619 q 174 560 175 574 q 174 544 174 547 q 179 530 175 542 q 187 504 183 518 q 193 478 190 490 q 196 464 196 467 q 244 400 215 426 q 310 347 274 374 l 313 336 q 232 251 276 300 q 149 158 188 203 q 83 82 110 114 q 57 47 57 50 l 68 8 q 105 16 85 8 q 149 33 125 24 q 198 51 172 43 q 251 58 224 58 q 263 59 253 58 q 285 60 272 60 q 310 60 297 60 q 331 60 324 60 m 656 226 q 653 230 654 228 q 653 232 653 232 q 654 267 653 242 q 658 319 656 292 q 661 372 660 347 q 664 406 663 396 q 677 444 664 425 q 707 478 690 463 q 737 502 724 493 q 750 510 750 511 q 744 530 753 515 q 724 561 736 544 q 701 593 713 578 q 688 614 689 608 q 676 660 676 625 q 675 742 675 694 q 675 786 675 764 q 676 827 675 808 q 683 858 678 846 q 697 869 688 869 q 750 855 722 869 q 804 817 778 840 q 851 764 831 793 q 881 707 871 735 q 885 694 882 706 q 893 669 889 683 q 901 639 897 654 q 908 614 906 624 q 921 562 915 582 q 930 526 926 542 q 935 496 933 510 q 936 464 936 482 l 936 461 q 926 365 936 407 q 900 289 917 324 q 860 224 883 254 q 811 163 838 193 l 789 163 q 747 175 769 167 q 703 193 724 183 q 669 212 683 203 q 656 226 656 221 m 554 488 q 578 468 565 488 q 592 417 592 449 q 591 360 592 390 q 588 302 590 329 q 582 256 586 275 q 572 232 578 236 q 536 233 561 233 q 485 233 513 233 q 424 231 447 233 q 385 226 401 229 q 352 218 368 222 q 314 210 336 214 q 308 208 313 208 q 301 208 304 208 q 296 208 300 208 q 290 210 292 208 q 298 221 292 213 q 307 232 304 229 q 352 282 321 247 q 417 353 383 317 q 481 422 451 390 q 519 464 510 453 q 540 479 529 471 q 554 488 550 488 m 356 594 q 351 613 353 601 q 349 625 349 624 q 365 693 349 657 q 406 753 382 729 l 451 799 q 481 824 464 811 q 517 847 499 836 q 553 863 536 857 q 583 869 571 869 q 599 865 594 869 q 613 846 603 861 q 602 708 608 758 q 576 638 596 657 q 524 577 544 599 q 488 546 503 556 q 462 534 474 536 q 435 532 450 532 q 385 547 408 532 q 356 594 363 561 z "},"E":{"ha":1125,"x_min":38,"x_max":1088,"o":"m 193 196 q 288 180 246 196 q 374 149 331 164 l 636 32 q 738 1 693 18 q 824 -15 783 -15 q 911 6 871 -15 q 983 61 951 28 q 1038 136 1015 94 q 1071 218 1060 178 q 1076 234 1072 224 q 1081 256 1079 244 q 1085 276 1083 267 q 1088 288 1088 285 q 1085 310 1088 293 q 1082 333 1083 328 l 1040 333 q 994 272 1014 294 q 958 236 975 249 q 926 217 942 224 q 890 206 910 211 l 821 206 q 769 213 792 208 q 722 223 746 217 q 669 239 699 229 q 596 264 639 249 q 569 286 578 276 q 563 299 560 296 q 568 408 568 361 q 572 489 568 457 q 588 538 575 521 q 632 554 600 554 q 656 547 643 554 q 681 531 668 540 q 710 512 694 522 q 740 496 725 501 q 803 466 775 474 q 854 458 832 458 q 896 465 878 458 q 933 487 914 471 q 974 530 951 503 q 1025 600 996 557 q 1016 617 1025 611 q 996 624 1007 624 q 968 617 981 624 q 940 610 956 610 q 881 626 913 610 q 822 657 850 642 q 783 683 807 672 q 744 693 760 693 q 690 679 726 693 q 599 633 653 665 q 592 635 597 633 q 585 636 588 636 l 576 668 l 576 900 l 599 924 q 711 841 669 868 q 777 803 753 814 q 813 794 801 793 q 838 794 825 794 q 876 796 858 794 q 912 806 893 797 q 955 835 931 815 q 1014 889 979 854 q 1035 917 1029 904 q 1040 942 1040 931 q 923 956 975 942 q 825 992 871 969 q 735 1046 779 1015 q 642 1108 692 1076 q 635 1109 640 1108 q 628 1110 631 1110 q 606 1097 621 1110 q 572 1065 590 1083 q 535 1030 553 1047 q 507 1004 518 1013 q 461 988 497 994 q 375 977 425 982 q 269 968 325 972 q 163 958 213 964 q 124 951 142 956 q 92 937 106 947 q 69 907 79 926 q 51 854 58 888 q 61 816 51 835 q 85 783 71 797 q 116 758 100 768 q 144 749 132 749 q 153 753 149 749 q 158 761 158 758 q 154 773 157 763 q 151 785 151 783 q 111 826 128 808 q 101 842 94 844 q 119 888 101 874 q 163 901 136 901 q 194 900 183 901 q 212 894 206 899 q 221 879 218 889 q 226 853 224 869 q 232 833 229 846 q 235 819 235 821 q 233 738 235 792 q 228 626 231 683 q 220 518 225 568 q 210 449 215 468 q 182 392 203 414 q 135 344 161 369 q 83 282 110 318 q 39 183 57 246 q 38 164 39 176 q 38 149 38 151 q 42 138 39 147 q 47 119 44 129 q 52 100 50 108 q 54 90 54 92 q 67 59 54 75 q 96 31 79 43 q 128 9 113 18 q 149 -3 143 0 q 155 -3 150 -3 q 163 -4 160 -4 q 178 21 178 -4 q 174 33 176 22 q 171 44 171 43 q 151 61 161 54 q 131 78 140 68 q 117 101 122 88 q 111 136 111 114 l 111 139 q 120 167 111 151 q 140 194 129 183 q 167 195 147 194 q 193 196 186 196 m 278 363 q 278 364 278 363 q 279 368 278 367 q 369 392 339 382 q 413 412 400 403 q 431 429 426 421 q 442 449 435 438 q 449 496 446 463 q 453 569 451 529 q 457 649 456 610 q 461 715 458 689 q 460 729 460 718 q 460 756 460 742 q 460 807 460 781 q 464 857 461 833 q 472 899 467 881 q 483 924 476 917 l 494 924 q 503 918 497 922 q 510 911 508 914 q 508 798 508 861 q 506 669 507 735 q 503 540 504 603 q 498 427 501 478 q 490 344 494 376 q 479 310 486 313 l 456 310 q 406 324 436 317 q 347 338 375 331 q 298 352 318 346 q 278 363 278 358 z "},"F":{"ha":1236,"x_min":61,"x_max":1174,"o":"m 72 -31 q 86 -74 76 -58 q 119 -115 96 -89 q 199 -185 158 -161 q 282 -220 240 -210 q 366 -231 324 -231 q 451 -232 408 -232 q 534 -231 500 -232 q 595 -227 568 -231 q 646 -217 622 -224 q 697 -196 669 -210 q 786 -101 763 -164 q 813 58 810 -37 q 814 101 813 68 q 816 176 815 133 q 819 267 817 219 q 822 358 821 315 q 824 433 822 401 q 825 475 825 465 q 826 495 825 483 q 828 518 826 507 q 833 537 831 529 q 840 544 836 544 q 890 566 865 557 q 947 583 915 575 q 1020 602 979 592 q 1118 626 1061 613 q 1137 632 1125 628 q 1150 638 1149 636 l 1150 643 q 1119 669 1150 656 q 1044 698 1089 682 q 948 733 999 714 q 857 776 897 751 q 840 795 846 782 q 833 821 833 808 l 833 822 q 833 837 833 825 q 832 863 832 849 q 831 892 832 878 q 831 915 831 907 q 831 944 831 936 q 849 951 832 951 q 878 941 857 951 q 928 914 900 931 q 988 876 956 897 q 1050 835 1019 856 l 1074 835 l 1174 974 l 1168 996 l 947 1124 l 936 1124 q 909 1094 921 1107 q 883 1069 897 1081 q 850 1045 869 1057 q 801 1019 831 1033 q 701 989 751 994 q 578 983 650 983 q 557 983 569 983 q 532 984 544 983 q 510 985 519 985 q 499 985 500 985 q 472 990 493 985 q 424 1002 450 996 q 377 1014 399 1008 q 350 1019 356 1019 q 330 1020 349 1019 q 301 1021 311 1021 q 263 1020 279 1021 q 235 1012 247 1019 q 213 988 222 1004 q 199 939 204 971 q 219 892 199 911 q 256 857 239 874 l 268 857 q 279 863 271 860 q 288 869 288 867 l 288 874 q 283 881 288 875 q 271 896 278 888 q 258 913 264 904 q 250 926 251 921 q 248 930 249 928 q 246 933 247 932 l 246 939 q 264 966 250 951 q 290 985 278 981 l 303 985 q 332 977 315 982 q 363 964 349 972 q 385 941 376 956 q 394 904 394 926 l 394 851 q 393 819 394 832 q 385 796 392 806 q 366 778 379 786 q 329 765 353 771 q 115 696 197 714 q 124 685 121 690 q 133 672 126 679 q 203 647 165 661 q 276 618 242 632 q 335 593 310 604 q 368 579 361 582 q 379 571 376 576 q 383 559 382 565 q 386 546 385 553 q 393 533 388 539 q 393 521 393 531 q 392 498 393 511 q 392 472 392 485 q 392 453 392 460 q 390 412 392 443 q 387 339 389 381 q 383 250 385 297 q 380 161 382 203 q 376 88 378 119 q 375 47 375 57 l 375 -33 q 372 -78 375 -56 q 363 -120 369 -101 q 349 -151 357 -139 q 329 -162 340 -162 q 292 -142 306 -162 q 278 -103 278 -121 q 283 -90 279 -100 q 292 -69 288 -81 q 301 -47 297 -57 q 306 -33 306 -36 l 306 -25 q 291 46 306 21 q 258 84 276 71 q 222 101 239 97 q 199 106 204 104 l 129 106 q 108 92 119 103 q 85 66 96 81 q 68 38 75 51 q 61 14 61 24 l 61 13 q 65 -6 61 11 q 72 -31 69 -22 m 613 928 q 630 920 619 928 q 638 904 640 913 l 638 857 q 635 769 636 826 q 633 642 635 713 q 629 497 631 572 q 626 355 628 422 q 623 236 624 288 q 621 163 622 185 l 621 156 q 615 47 621 94 q 601 -57 610 0 q 594 -86 600 -67 q 578 -124 588 -106 q 558 -158 568 -143 q 540 -172 549 -172 l 514 -169 l 514 -161 q 538 -122 525 -137 q 561 -81 550 -106 q 563 -57 561 -79 q 567 -1 565 -35 q 573 74 569 33 q 578 151 576 114 q 583 216 581 188 q 585 256 585 244 q 586 319 585 271 q 589 431 588 367 q 592 567 590 494 q 594 704 593 640 q 596 817 594 768 q 597 881 597 865 q 598 901 597 888 q 600 915 599 914 l 600 917 q 605 924 600 919 q 613 928 610 928 z "},"G":{"ha":1035,"x_min":40,"x_max":993,"o":"m 63 428 q 89 338 68 383 q 138 251 110 293 q 201 171 167 208 q 268 103 235 133 q 331 53 301 74 q 381 24 360 32 q 401 13 388 19 q 426 2 414 7 q 449 -7 439 -3 q 460 -11 458 -11 l 621 -11 q 650 1 621 -11 q 715 27 679 13 q 785 58 751 42 q 826 82 818 74 q 897 142 867 106 q 958 232 926 179 q 967 251 963 236 q 978 286 972 267 q 987 326 983 306 q 993 358 990 346 q 991 414 993 388 q 986 461 989 440 q 980 495 983 482 q 974 510 976 508 q 956 548 965 532 q 933 579 947 564 q 900 613 919 594 q 853 660 881 632 q 822 680 838 669 q 793 699 806 690 q 773 715 781 708 q 765 724 765 722 q 765 727 765 725 q 764 729 764 729 l 929 972 l 924 990 q 819 995 861 990 q 742 1009 776 1000 q 672 1032 707 1018 q 590 1064 638 1046 q 536 1094 554 1088 q 499 1100 518 1100 q 478 1097 494 1100 q 435 1085 461 1094 q 375 1060 410 1076 q 301 1018 340 1044 q 295 1012 300 1017 q 284 1001 290 1007 q 272 990 278 994 q 265 983 267 985 q 220 942 240 958 q 179 906 200 926 q 135 852 158 885 q 85 764 113 819 q 53 676 65 718 q 40 586 40 635 l 40 544 q 51 485 47 515 q 63 428 56 454 m 499 219 q 497 226 497 222 q 496 232 497 231 q 497 249 496 233 q 499 267 497 264 q 498 283 499 269 q 497 313 497 297 q 497 342 497 328 q 496 358 496 356 q 508 410 496 385 q 542 456 521 436 q 593 487 564 475 q 656 499 622 499 q 699 492 669 499 q 760 467 728 485 q 821 417 793 449 q 861 339 849 386 q 869 310 864 329 q 874 289 874 292 l 874 281 q 858 219 874 244 q 817 179 842 194 q 760 157 792 164 q 699 150 729 150 q 674 151 683 150 q 653 156 665 153 q 626 163 642 158 q 582 174 610 167 q 542 188 557 182 q 519 198 528 193 q 507 208 511 203 q 499 219 503 213 m 265 440 q 224 590 239 529 q 210 683 210 651 q 223 747 217 717 q 240 808 229 778 q 269 867 251 838 q 317 925 288 896 q 325 926 319 926 q 335 926 332 926 q 361 923 346 926 q 392 915 376 919 q 422 902 408 910 q 444 886 436 894 l 444 869 q 440 759 444 814 q 436 660 436 704 q 435 624 436 651 q 434 562 435 597 q 432 486 433 526 q 430 410 431 446 q 428 348 429 375 q 426 313 426 321 l 426 301 q 422 275 426 278 q 418 267 418 272 q 345 322 385 283 q 265 440 306 360 m 539 868 l 551 868 q 599 856 574 863 q 649 842 625 850 q 692 826 672 835 q 719 810 711 818 l 533 556 l 514 544 q 508 577 514 561 q 503 625 503 593 q 504 652 503 629 q 507 705 506 675 q 510 764 508 735 q 511 810 511 793 q 512 834 511 825 q 515 849 513 843 q 520 859 517 856 q 529 868 524 863 l 539 868 z "},"H":{"ha":1278,"x_min":33,"x_max":1240,"o":"m 764 117 q 802 38 776 67 q 858 -7 828 8 q 918 -27 889 -22 q 967 -32 947 -32 q 994 -32 983 -32 q 1017 -30 1007 -32 q 1039 -22 1028 -28 q 1065 -7 1050 -17 q 1126 28 1100 10 q 1172 75 1151 47 q 1208 144 1192 103 q 1239 247 1224 185 q 1240 263 1239 250 q 1240 282 1240 276 q 1240 329 1240 310 q 1236 367 1239 349 q 1229 406 1233 385 q 1217 456 1225 426 q 1206 497 1210 482 q 1197 525 1201 513 q 1185 550 1192 538 q 1169 582 1179 563 q 1101 676 1139 631 q 1014 768 1064 722 q 965 803 990 792 q 925 815 940 815 q 892 803 914 815 q 847 776 869 792 q 804 748 824 761 q 779 733 785 735 q 769 726 776 731 q 761 721 763 722 q 737 731 740 721 q 728 756 733 740 q 732 797 728 775 q 740 838 736 818 q 765 893 750 865 q 781 942 781 921 q 780 952 781 943 q 778 972 779 961 q 775 994 776 983 q 772 1011 774 1004 l 772 1013 q 767 1044 772 1033 q 756 1061 763 1056 q 744 1068 750 1067 q 733 1069 738 1069 q 723 1057 725 1069 q 719 1028 721 1044 q 710 1000 717 1013 q 688 988 704 988 q 676 987 686 988 q 660 986 665 986 q 583 999 632 986 q 479 1028 535 1013 q 367 1056 424 1043 q 267 1069 310 1069 q 235 1065 254 1069 q 192 1053 215 1061 q 146 1035 169 1046 q 103 1011 122 1024 q 70 969 83 992 q 49 924 57 946 q 37 884 40 903 q 33 856 33 865 l 33 849 q 38 826 33 840 q 47 795 42 811 q 57 765 53 779 q 61 744 61 751 q 78 718 65 732 q 105 692 90 704 q 133 672 119 679 q 153 664 146 664 q 168 663 154 664 q 189 663 182 663 q 215 664 201 663 q 240 672 229 665 q 258 689 251 678 q 265 721 265 700 q 259 738 263 725 q 252 763 256 750 q 246 788 249 776 q 243 803 243 800 q 218 824 233 813 q 189 850 203 836 q 165 878 175 864 q 156 907 156 892 q 167 926 158 921 q 200 931 176 931 q 284 910 228 931 q 399 860 340 889 q 410 851 406 857 q 417 838 414 844 q 357 817 379 833 q 324 774 335 801 q 310 704 313 746 q 307 606 307 663 l 307 189 q 299 138 300 169 q 288 85 297 107 q 278 56 288 72 q 269 28 269 40 q 296 16 269 21 q 357 9 322 11 q 425 6 392 7 q 472 4 458 4 l 483 4 q 489 10 486 6 q 493 15 492 14 l 493 78 q 493 172 493 118 q 494 285 493 226 q 494 404 494 344 q 495 518 494 465 q 496 613 496 571 q 496 675 496 654 q 497 701 496 686 q 499 728 497 715 q 501 753 500 742 q 506 768 503 764 q 514 781 508 774 q 525 797 519 789 q 535 810 531 804 q 542 815 540 815 q 567 809 550 815 q 589 803 585 803 q 549 745 558 772 q 539 692 539 718 l 539 686 q 538 610 539 661 q 538 493 538 558 q 537 357 538 429 q 536 219 536 285 q 536 104 536 156 q 536 28 536 53 l 536 21 q 543 11 536 18 q 553 4 550 4 l 726 4 l 731 582 q 733 592 729 586 q 744 603 738 597 q 756 613 750 608 q 767 617 763 617 q 769 618 765 618 q 776 618 774 618 q 915 573 856 618 q 1033 444 974 528 q 1046 424 1038 438 q 1056 410 1054 411 l 1103 231 q 1099 192 1103 214 q 1088 148 1096 169 q 1065 109 1079 126 q 1028 85 1050 92 l 993 85 q 977 106 985 89 q 961 144 969 124 q 943 185 953 165 q 924 213 933 204 q 886 235 908 229 q 844 247 864 240 l 822 247 q 772 211 790 232 q 754 154 754 190 q 758 138 756 153 q 764 117 761 124 z "},"I":{"ha":706,"x_min":31,"x_max":628,"o":"m 192 900 q 199 873 197 883 q 201 853 201 863 q 201 833 201 844 q 204 807 201 824 q 203 792 204 804 q 202 766 203 779 q 201 740 201 753 q 201 726 201 729 q 203 667 201 714 q 206 565 204 619 q 210 462 208 510 q 211 401 211 414 l 211 147 q 203 78 211 111 q 193 8 196 44 q 194 3 193 7 q 194 -3 194 -1 l 392 -3 l 397 21 q 397 119 397 53 q 396 268 396 185 q 395 443 396 351 q 394 618 394 535 q 394 767 394 701 q 394 865 394 833 q 398 902 400 883 q 410 935 396 921 l 422 935 q 435 921 429 928 q 440 911 442 914 q 441 853 440 900 q 442 738 442 807 q 444 582 443 668 q 445 404 444 496 q 446 222 446 313 q 446 56 446 132 l 446 8 q 447 3 446 7 q 447 -3 447 -1 l 628 -3 l 625 911 q 627 928 626 914 q 628 946 628 942 q 622 972 628 954 q 611 1004 615 989 q 544 1012 574 1010 q 481 1015 514 1014 q 403 1017 447 1017 q 290 1017 358 1017 q 254 1017 279 1017 q 201 1016 229 1017 q 147 1015 172 1015 q 113 1015 122 1015 q 70 1003 86 1011 q 45 984 54 994 q 33 960 36 974 q 31 935 31 947 q 60 844 31 879 q 139 810 89 810 q 124 838 133 828 q 106 859 115 849 q 90 883 97 869 q 81 922 83 897 q 97 951 81 943 q 131 958 114 958 q 160 955 149 958 q 177 944 171 951 q 186 926 183 938 q 192 900 189 915 z "},"J":{"ha":986,"x_min":43,"x_max":971,"o":"m 50 33 q 70 -17 60 4 q 99 -58 81 -37 q 145 -103 117 -79 q 219 -161 174 -126 q 302 -199 258 -186 q 410 -219 346 -211 l 439 -219 q 578 -184 519 -219 q 676 -89 638 -149 q 733 48 714 -29 q 754 208 751 125 l 754 254 q 753 275 754 260 q 751 307 751 290 q 749 338 750 324 q 747 358 747 353 q 770 376 750 364 q 820 403 790 389 q 885 433 850 418 q 951 463 919 449 q 963 469 954 465 q 969 475 971 474 l 969 481 q 969 483 969 481 q 967 486 968 485 q 859 534 903 513 q 788 572 815 556 q 749 597 761 588 q 736 607 736 606 l 736 613 q 751 722 736 668 q 787 824 765 776 q 833 909 808 871 q 881 972 858 947 q 874 990 872 981 q 858 1007 875 999 q 824 1005 849 1006 q 772 1004 800 1004 q 716 1005 738 1004 q 675 1008 694 1006 q 633 1016 656 1011 q 575 1029 611 1021 q 519 1044 544 1036 q 469 1065 494 1053 q 417 1090 444 1076 q 353 1122 389 1104 l 342 1122 q 263 1078 296 1099 q 202 1034 229 1057 q 152 985 175 1011 q 106 925 129 958 q 100 914 103 922 q 94 897 97 906 q 90 879 92 888 q 88 868 88 871 q 100 798 88 829 q 132 743 113 767 q 175 704 151 719 q 219 682 199 689 l 289 682 q 303 692 294 685 q 319 708 311 699 q 334 725 328 717 q 343 740 340 733 q 336 755 339 744 q 330 776 333 765 q 322 800 326 788 q 308 821 317 813 q 299 829 306 822 q 283 844 292 836 q 268 859 275 853 q 260 868 261 865 l 254 885 q 252 894 253 888 q 250 903 251 901 q 262 920 257 914 q 286 926 267 926 q 293 926 288 926 q 303 925 300 926 q 428 882 383 897 q 501 858 474 867 q 548 844 529 849 q 594 833 567 839 l 599 821 q 567 774 579 797 q 545 726 554 751 q 528 669 536 700 q 507 601 519 639 q 503 596 506 600 q 499 590 501 592 q 400 551 450 571 q 301 510 350 532 l 301 506 q 317 485 301 496 q 357 460 332 474 q 413 429 382 446 q 472 393 443 413 q 500 348 496 385 q 504 253 504 311 l 504 232 q 508 193 506 224 q 512 128 510 163 q 515 63 514 93 q 517 24 517 32 q 513 -35 517 -10 q 499 -78 510 -60 q 470 -109 489 -97 q 419 -126 451 -121 q 417 -127 419 -126 q 414 -128 415 -128 q 400 -124 413 -128 q 372 -116 388 -121 q 341 -108 356 -111 q 321 -104 326 -104 q 293 -81 304 -93 q 282 -46 282 -69 q 285 -37 282 -44 q 292 -23 288 -31 q 299 -8 296 -15 q 304 0 303 -1 q 311 40 311 21 q 294 114 311 82 q 252 167 278 146 q 197 199 226 189 q 142 210 167 210 q 115 208 126 210 q 93 200 104 207 q 72 176 82 193 q 49 128 61 158 q 44 103 44 114 q 43 76 43 92 l 43 69 q 45 54 43 68 q 50 33 47 40 z "},"K":{"ha":1321,"x_min":36,"x_max":1303,"o":"m 771 321 q 796 310 788 321 q 815 286 804 300 q 878 194 846 242 q 942 104 911 147 q 998 26 972 61 q 1040 -26 1024 -8 q 1060 -27 1044 -26 q 1081 -28 1076 -28 q 1147 -19 1101 -28 q 1261 8 1192 -11 q 1303 32 1294 15 q 1279 56 1303 47 q 1231 78 1256 65 q 1216 88 1226 81 q 1194 106 1206 96 q 1172 124 1182 115 q 1157 136 1161 132 q 1094 222 1128 175 q 1033 310 1061 269 q 985 379 1004 351 q 967 407 967 407 q 966 410 967 408 q 965 413 965 413 q 990 435 965 421 q 1045 463 1015 449 q 1100 490 1075 478 q 1125 506 1125 501 l 1125 507 q 1123 518 1125 514 q 1118 529 1121 522 q 1062 608 1094 563 q 998 696 1029 654 q 945 767 967 738 q 924 796 924 796 q 920 795 922 796 q 918 794 918 794 l 743 714 q 733 721 740 711 q 725 736 725 731 q 724 743 724 739 q 722 749 724 747 q 726 782 722 767 q 738 813 731 797 q 756 846 746 828 q 778 888 765 864 q 782 902 779 892 q 787 924 785 913 q 791 944 789 935 q 793 957 793 954 q 790 981 793 964 q 780 1014 786 997 q 766 1044 774 1031 q 751 1061 758 1058 l 740 1061 q 717 1020 725 1046 q 694 979 710 994 l 669 979 q 585 991 626 979 q 496 1026 544 1003 q 403 1054 450 1042 q 321 1072 356 1067 l 286 1072 q 249 1067 271 1072 q 203 1054 226 1063 q 157 1035 179 1046 q 119 1014 135 1025 q 90 987 104 1006 q 63 942 75 968 q 44 888 51 917 q 36 829 36 858 q 56 750 36 783 q 102 696 75 717 q 157 665 129 675 q 201 654 185 654 q 248 667 229 654 q 267 725 267 681 q 256 774 267 753 q 231 813 246 796 q 195 845 215 831 q 157 875 175 860 q 170 908 157 906 q 207 911 183 911 q 258 902 228 911 q 354 864 288 893 q 388 851 376 856 q 399 835 399 846 l 399 829 q 368 813 383 825 q 340 783 353 801 q 319 743 328 765 q 311 696 311 721 l 311 690 q 310 641 311 678 q 309 554 310 604 q 308 447 308 504 q 308 342 308 392 q 306 254 307 292 q 306 206 306 217 q 302 128 306 157 q 292 78 299 99 q 277 43 286 58 q 257 8 268 28 l 258 -3 l 490 -3 q 492 6 490 -3 q 496 19 494 14 q 496 49 496 26 q 497 97 496 71 q 497 147 497 124 q 497 182 497 171 q 497 213 497 189 q 496 269 496 238 q 494 338 496 301 q 493 406 493 374 q 492 462 493 438 q 492 494 492 486 q 492 524 492 499 q 494 580 493 549 q 495 642 494 611 q 496 690 496 674 q 500 731 496 710 q 513 768 504 751 q 532 795 521 785 q 557 806 543 806 l 560 806 q 578 804 567 806 q 593 803 590 803 l 594 794 q 555 739 569 769 q 540 661 540 708 l 540 656 q 540 543 540 608 q 540 407 540 478 q 540 268 540 338 q 540 143 540 199 q 541 54 540 89 q 542 19 542 19 l 547 -3 l 714 -3 l 719 297 q 732 310 719 303 q 760 321 744 318 l 771 321 m 788 657 q 813 640 796 657 q 847 599 829 622 q 879 553 864 576 q 901 517 894 529 q 908 500 904 511 q 911 482 911 489 l 911 481 q 895 469 911 478 q 858 449 879 460 q 815 428 838 439 q 781 413 793 418 q 751 401 765 404 q 724 399 736 399 q 721 412 722 401 q 719 425 719 422 q 719 447 719 428 q 719 493 719 468 q 720 545 719 519 q 722 586 721 571 l 722 597 q 725 622 722 613 q 735 636 728 631 q 753 645 742 642 q 783 656 765 649 q 785 656 783 656 q 788 657 786 657 z "},"L":{"ha":1226,"x_min":49,"x_max":1204,"o":"m 411 865 q 413 862 413 864 q 414 860 414 860 q 397 846 410 853 q 371 828 385 839 q 346 803 357 818 q 335 767 335 788 q 327 686 326 731 q 328 603 328 642 l 328 571 q 328 539 328 558 q 329 499 329 519 q 330 463 329 479 q 331 443 331 447 q 325 378 331 404 q 311 335 319 353 q 292 306 303 318 q 271 281 281 293 q 235 242 249 258 q 212 212 221 226 q 197 181 203 197 q 182 142 190 165 q 171 79 171 115 q 171 15 171 43 q 173 3 171 11 q 177 -15 175 -6 q 181 -32 179 -24 q 183 -43 182 -40 l 211 -43 q 210 -28 210 -39 q 210 -8 210 -18 l 210 3 q 222 44 210 25 q 251 76 233 63 q 287 99 268 90 q 319 107 306 107 q 342 108 322 108 q 374 108 363 108 q 441 105 410 108 q 522 85 472 101 q 606 59 569 69 q 676 40 643 49 q 744 24 710 32 q 822 3 779 15 q 857 -4 843 -1 q 885 -8 871 -7 q 915 -10 899 -10 q 958 -10 932 -10 q 1010 -8 989 -10 q 1047 -1 1031 -7 q 1078 17 1064 6 q 1110 50 1093 29 q 1145 102 1128 71 q 1176 168 1163 133 q 1197 238 1189 203 q 1203 304 1204 274 q 1199 324 1201 308 q 1194 343 1196 339 q 1167 328 1178 343 q 1143 294 1156 314 q 1115 255 1131 275 q 1074 224 1099 235 q 1056 216 1068 221 q 1042 211 1044 211 l 892 211 q 854 217 892 211 q 769 230 817 222 q 682 245 722 238 q 636 258 642 253 l 622 269 q 641 287 622 279 q 669 304 660 294 q 703 342 692 322 q 718 386 714 363 q 722 435 722 410 q 722 489 722 461 q 727 629 722 560 q 739 767 732 699 q 759 824 743 797 q 794 876 775 850 q 826 928 813 901 q 840 986 840 954 q 838 1007 840 992 q 833 1039 836 1022 q 828 1069 831 1056 q 826 1081 826 1082 q 818 1097 822 1090 q 794 1104 814 1104 q 785 1094 789 1104 q 776 1069 781 1083 q 765 1042 771 1056 q 750 1021 760 1028 q 735 1015 747 1019 q 718 1010 722 1011 l 683 1010 q 645 1022 678 1011 q 571 1046 613 1033 q 490 1069 529 1058 q 433 1079 451 1079 q 419 1079 432 1079 q 392 1080 408 1079 q 360 1081 376 1081 q 335 1081 344 1081 q 281 1080 306 1081 q 234 1074 257 1079 q 188 1060 211 1069 q 135 1033 164 1050 q 81 968 106 1010 q 49 882 56 926 l 49 872 q 49 850 49 858 q 51 834 50 842 q 53 817 51 826 q 60 794 56 808 q 174 674 82 710 l 208 674 q 242 701 224 679 q 260 743 260 722 q 246 799 260 782 q 215 831 232 817 q 184 862 199 844 q 167 917 169 879 q 186 938 167 933 q 225 942 206 942 q 241 941 231 942 q 253 940 251 940 l 410 871 q 410 869 410 871 q 411 865 411 867 m 364 281 q 417 299 396 289 q 451 318 438 308 q 471 335 464 328 q 485 350 478 343 q 490 385 488 369 q 496 416 493 400 q 501 449 499 432 q 503 489 503 465 q 504 581 503 529 q 507 678 506 632 q 510 756 508 724 q 513 790 513 788 q 531 835 522 817 q 564 860 540 853 l 575 860 q 594 852 583 856 q 604 842 604 849 l 604 836 q 595 831 604 835 q 583 825 586 826 q 557 759 568 803 q 546 676 546 715 q 546 650 546 664 q 547 628 546 636 l 547 454 q 534 349 547 386 q 490 281 521 311 q 470 272 485 275 q 438 268 456 269 q 402 266 421 267 q 369 265 383 265 l 364 281 z "},"M":{"ha":1633,"x_min":63,"x_max":1596,"o":"m 79 246 q 113 160 90 199 q 172 74 135 121 q 194 52 185 61 q 213 35 203 43 q 233 21 222 28 q 261 4 244 14 q 315 -19 283 -18 q 378 -21 346 -21 q 415 -21 399 -21 q 451 -12 433 -21 q 487 15 468 -4 q 531 74 506 35 q 538 101 538 81 q 539 131 539 122 q 527 167 529 150 q 519 201 525 183 q 499 238 514 218 q 451 282 485 257 q 425 292 433 290 q 394 294 417 294 q 338 275 358 294 q 317 224 317 256 q 326 178 317 196 q 347 147 335 161 q 372 118 360 132 q 390 85 385 104 q 383 73 389 82 q 374 61 376 64 l 350 61 q 297 91 318 71 q 260 133 275 111 q 238 174 246 154 q 228 206 231 194 q 222 231 224 222 q 219 249 221 240 q 217 267 218 257 q 215 293 217 276 q 224 358 221 322 q 247 432 228 394 q 294 493 261 449 q 363 588 326 538 q 430 682 399 638 q 474 744 461 726 q 488 771 479 754 q 506 808 496 788 q 528 850 517 828 q 547 894 539 872 l 563 894 l 563 4 l 768 4 l 744 894 q 752 942 744 921 q 760 964 760 963 l 771 964 q 788 951 782 961 q 793 929 793 940 l 810 26 l 818 0 q 866 1 839 0 q 919 3 893 1 q 964 8 944 4 q 988 15 983 11 l 992 39 l 992 940 l 986 940 q 1018 854 999 896 q 1066 768 1038 813 q 1132 676 1094 724 q 1215 571 1169 628 q 1229 549 1224 560 q 1240 526 1235 539 q 1249 497 1244 514 q 1260 458 1253 481 q 1264 442 1261 451 q 1269 422 1267 432 q 1273 405 1271 413 q 1275 397 1275 397 l 1275 396 q 1249 288 1275 344 q 1186 182 1222 232 q 1112 93 1150 132 q 1050 39 1074 54 l 1057 13 q 1080 13 1063 13 q 1103 15 1097 14 q 1121 17 1113 15 q 1138 22 1129 19 q 1159 26 1147 24 q 1188 28 1171 28 q 1232 22 1207 28 q 1282 10 1257 17 q 1328 -3 1307 3 q 1363 -8 1350 -8 l 1432 -8 q 1474 3 1458 -6 q 1502 24 1490 11 q 1523 55 1514 38 q 1543 96 1532 72 q 1558 125 1549 107 q 1575 160 1567 143 q 1590 188 1583 176 q 1596 200 1596 200 l 1592 215 q 1557 204 1575 215 q 1517 189 1539 193 q 1492 187 1515 189 q 1440 183 1469 185 q 1380 178 1410 181 q 1336 176 1350 176 q 1330 177 1335 176 q 1324 178 1325 178 q 1350 206 1332 186 q 1388 249 1368 225 q 1426 297 1407 272 q 1453 339 1444 321 q 1467 382 1461 357 q 1474 432 1474 407 q 1472 471 1474 454 q 1467 504 1471 488 q 1454 539 1463 521 q 1432 582 1446 557 q 1423 598 1429 588 q 1410 619 1417 608 q 1397 640 1403 631 q 1389 651 1392 649 q 1363 685 1385 658 q 1318 744 1342 713 q 1273 802 1294 775 q 1247 836 1251 829 q 1221 885 1228 863 q 1214 938 1214 908 q 1215 953 1214 951 l 1275 1068 l 1271 1083 q 1210 1077 1247 1083 q 1129 1064 1172 1071 q 1041 1051 1086 1057 q 957 1044 996 1044 q 925 1044 953 1044 q 861 1044 897 1044 q 788 1043 825 1043 q 729 1043 751 1043 q 599 1044 650 1043 q 511 1049 549 1046 q 440 1056 474 1051 q 361 1068 407 1061 q 279 1078 307 1076 q 229 1081 251 1079 q 192 1079 214 1081 q 151 1071 171 1078 q 116 1049 131 1064 q 101 1010 101 1035 q 117 942 101 967 q 151 903 132 917 q 185 886 169 890 q 203 882 201 882 q 228 884 219 882 q 236 894 236 886 q 233 906 233 899 q 229 918 232 913 q 189 925 204 918 q 165 942 174 932 q 155 965 157 953 q 153 988 153 976 l 153 989 q 162 1017 153 1006 q 186 1033 171 1028 l 199 1033 q 231 1024 214 1029 q 262 1010 247 1019 q 288 985 276 1000 q 304 946 300 971 q 310 923 307 939 q 314 906 314 907 q 308 881 314 901 q 294 849 301 860 q 194 702 233 765 q 130 594 154 639 q 95 524 106 550 q 83 489 85 497 q 74 453 76 469 q 69 421 71 436 q 66 389 67 406 q 63 351 65 372 q 65 299 63 319 q 79 246 68 279 z "},"N":{"ha":1350,"x_min":39,"x_max":1314,"o":"m 935 111 q 949 67 940 90 q 969 22 957 43 q 994 -12 981 1 q 1025 -25 1008 -25 q 1035 -24 1028 -25 q 1043 -24 1042 -24 q 1102 -13 1060 -21 q 1190 4 1144 -6 q 1272 25 1235 14 q 1314 46 1308 36 q 1308 61 1314 56 q 1291 70 1301 67 q 1269 75 1281 74 q 1246 81 1257 76 q 1195 105 1214 90 q 1165 137 1176 119 q 1149 171 1154 154 q 1142 201 1144 188 q 1135 227 1138 217 q 1131 248 1132 238 q 1129 270 1131 258 q 1126 300 1128 282 l 1126 347 q 1133 452 1132 403 q 1135 542 1135 501 q 1136 615 1135 583 q 1142 671 1138 647 l 1142 751 q 1142 781 1142 769 q 1140 803 1142 793 q 1135 825 1139 814 q 1126 856 1132 836 q 1113 900 1121 879 q 1085 944 1104 921 q 1035 997 1067 968 q 951 1064 1003 1025 q 942 1065 949 1065 q 933 1065 936 1065 q 869 1040 921 1065 q 746 972 817 1014 l 743 972 q 732 983 736 972 q 726 1010 728 994 q 723 1040 724 1025 q 721 1064 722 1056 q 706 1075 713 1072 q 686 1078 700 1078 q 671 1074 675 1078 q 665 1065 667 1071 q 663 1053 664 1060 q 657 1042 663 1047 q 611 994 638 1008 l 542 994 q 521 1000 539 996 q 493 1007 503 1004 q 404 1035 449 1018 q 315 1064 360 1053 q 300 1067 310 1065 q 281 1072 290 1069 q 263 1075 271 1074 q 253 1076 254 1076 l 174 1076 q 128 1058 146 1067 q 98 1037 111 1049 q 72 1007 85 1025 q 43 960 60 989 q 41 949 43 957 q 39 938 39 940 l 39 926 q 40 899 39 910 q 42 879 42 889 l 47 868 q 61 833 50 851 q 85 799 72 814 q 108 774 97 783 q 121 764 118 764 q 162 744 139 749 q 196 739 185 739 q 240 751 219 739 q 260 797 260 764 l 260 800 q 253 840 260 824 q 235 871 246 857 q 209 897 224 885 q 181 925 194 910 q 175 943 181 932 q 171 960 169 954 q 208 985 176 985 q 235 983 225 985 q 257 973 246 981 q 283 951 268 965 q 321 914 297 938 q 338 898 326 908 q 360 877 349 888 q 378 858 371 867 q 386 850 386 850 l 386 843 q 374 831 386 836 q 349 819 363 825 q 323 805 335 813 q 311 786 311 797 q 302 749 307 768 q 294 705 297 729 q 288 649 290 681 q 286 578 286 618 l 286 497 l 286 451 q 281 280 286 363 q 256 104 275 197 q 241 67 256 89 q 219 22 226 46 q 219 17 219 21 q 221 11 219 13 l 456 11 q 460 51 460 18 q 460 135 460 86 q 460 242 460 183 q 464 358 461 301 l 464 367 q 466 460 464 404 q 472 573 468 517 q 483 676 476 629 q 497 740 489 722 q 504 753 499 744 q 516 770 510 761 q 528 788 522 779 q 538 799 535 796 l 550 799 q 558 793 553 797 q 565 786 563 789 q 537 741 547 768 q 520 681 526 714 q 511 610 514 647 q 507 532 508 572 q 505 473 506 513 q 503 383 504 433 q 502 277 503 332 q 501 172 501 222 q 499 81 500 121 q 497 22 499 42 q 503 8 497 17 q 515 0 510 0 l 689 0 q 691 22 690 0 q 692 78 692 43 q 693 156 693 113 q 694 244 693 200 q 695 327 694 288 q 697 393 696 367 q 698 413 697 399 q 699 444 699 428 q 701 476 700 461 q 703 497 703 492 q 738 509 711 497 q 797 538 764 521 q 865 576 831 556 q 925 613 900 596 q 928 601 928 610 q 932 590 929 593 q 931 556 932 571 q 910 542 929 542 q 899 543 900 542 l 738 451 q 728 440 735 449 q 722 428 722 431 l 722 421 q 722 410 722 415 q 724 403 722 404 q 752 413 729 403 q 806 439 775 424 q 867 473 836 454 q 919 508 899 492 q 923 496 919 503 q 925 486 926 489 q 926 463 926 481 q 928 439 926 446 q 926 413 928 433 q 923 369 925 393 q 919 326 921 346 q 918 300 918 306 l 918 219 l 918 174 q 920 165 918 172 q 925 147 922 157 q 930 127 928 138 q 935 111 932 117 m 797 892 q 882 860 850 892 q 926 779 914 829 q 933 758 929 772 q 936 742 936 744 l 936 740 q 937 725 936 736 q 938 701 938 714 q 937 666 938 679 q 926 647 936 653 l 904 647 q 864 633 892 647 q 806 599 836 618 q 750 560 776 579 q 715 532 724 540 q 711 530 715 531 q 706 529 707 529 l 701 546 q 703 607 701 563 q 708 700 706 651 q 715 790 711 749 q 722 844 719 832 q 745 884 722 876 q 797 892 768 892 z "},"O":{"ha":1019,"x_min":43,"x_max":975,"o":"m 69 410 q 85 352 79 374 q 99 311 90 331 q 122 267 108 292 q 163 203 136 243 q 217 134 181 174 q 302 58 254 94 q 404 -5 350 21 q 513 -31 458 -31 q 569 -26 542 -31 q 628 -11 596 -22 q 698 21 660 0 q 786 75 736 42 q 811 94 799 81 q 836 122 824 107 q 861 153 849 138 q 885 179 874 168 q 892 194 886 182 q 904 220 897 206 q 917 249 911 235 q 928 271 924 263 q 975 492 975 374 q 973 549 975 526 q 965 598 971 571 q 947 666 958 625 q 915 781 935 707 q 894 808 907 789 q 864 852 881 828 q 828 903 847 876 q 786 954 808 931 q 724 1014 758 982 q 653 1058 689 1046 q 603 1078 621 1071 q 570 1089 585 1085 q 540 1094 556 1093 q 494 1094 524 1094 q 447 1093 465 1094 q 413 1088 429 1092 q 378 1076 397 1083 q 329 1058 360 1069 q 315 1046 328 1054 q 284 1027 301 1038 q 249 1006 267 1017 q 222 989 232 996 q 197 963 214 982 q 159 918 179 943 q 121 868 139 893 q 94 826 103 843 q 85 805 88 817 q 80 779 82 793 q 75 751 78 765 q 65 722 72 736 q 51 637 56 674 q 43 549 47 600 q 44 517 43 531 q 48 488 44 503 q 56 455 51 474 q 69 410 61 436 m 217 543 q 203 602 208 574 q 196 665 199 631 l 196 674 q 199 699 196 679 q 208 741 203 718 q 217 785 213 764 q 222 815 221 807 q 238 834 228 821 q 262 861 249 847 q 292 885 275 875 q 328 896 308 896 q 336 896 329 896 q 355 897 344 896 q 375 897 365 897 q 392 897 385 897 q 446 897 425 897 q 492 887 467 896 q 551 856 517 878 q 646 792 586 835 q 709 734 683 764 q 751 672 735 704 q 778 608 768 640 q 796 544 789 575 q 809 494 803 515 q 819 457 815 474 q 826 424 824 440 q 826 388 828 408 l 826 382 q 801 265 826 322 q 711 179 775 207 q 691 172 699 175 q 675 168 683 169 q 656 167 667 167 q 628 167 646 167 q 588 167 603 167 q 554 174 572 168 q 511 191 536 179 q 443 225 486 203 q 401 260 419 243 q 364 296 382 276 q 326 340 346 315 q 281 399 307 365 q 244 467 257 431 q 217 543 232 504 m 732 642 l 711 642 q 690 626 713 642 q 629 587 667 611 q 547 533 592 563 q 460 475 501 503 q 385 424 418 447 q 340 388 353 400 l 340 361 q 376 371 354 361 q 419 394 397 381 q 463 422 442 407 q 499 444 483 436 q 571 494 531 467 q 647 547 611 522 q 708 588 683 571 q 732 607 732 606 q 733 614 732 610 q 733 624 733 618 q 733 634 733 629 q 732 642 732 639 m 683 711 l 646 711 q 606 688 642 711 q 522 631 571 665 q 419 559 472 597 q 325 492 365 521 q 302 474 314 483 q 288 457 290 464 q 288 445 288 454 q 290 433 289 436 l 317 433 l 678 676 q 683 682 681 678 q 688 688 686 686 q 685 699 686 690 q 683 711 685 708 z "},"P":{"ha":1176,"x_min":25,"x_max":1150,"o":"m 458 -174 q 531 -177 492 -175 q 605 -181 569 -179 q 667 -185 640 -183 q 706 -186 694 -186 q 689 -160 706 -178 q 665 -126 672 -142 q 657 -108 661 -122 q 649 -78 653 -94 q 642 -46 644 -61 q 636 -22 639 -31 q 635 -13 636 -21 q 634 3 635 -6 q 633 22 633 13 q 632 35 632 31 l 632 117 q 638 135 636 126 q 646 151 639 144 q 661 157 651 153 q 680 165 671 161 q 697 172 689 169 q 704 175 704 175 q 724 160 710 175 q 754 126 739 144 q 785 90 769 107 q 808 69 800 74 q 821 69 810 69 q 838 68 832 68 q 875 74 850 68 q 931 91 900 79 q 992 121 961 103 q 1047 163 1024 139 l 1093 208 q 1115 255 1104 229 q 1142 325 1126 281 q 1149 350 1147 340 q 1150 372 1150 360 q 1149 402 1150 388 q 1147 429 1149 417 l 1147 436 q 1146 470 1147 457 q 1142 496 1144 483 q 1135 523 1139 508 q 1124 561 1131 538 q 1072 700 1104 636 q 990 833 1039 764 q 964 867 976 851 q 938 900 951 883 q 910 937 924 917 q 879 985 896 957 q 851 1044 860 1019 q 840 1090 843 1068 q 834 1134 836 1111 q 825 1189 832 1157 q 794 1180 808 1189 q 768 1158 781 1171 q 743 1133 756 1146 q 717 1111 731 1119 q 622 1062 667 1081 q 525 1033 576 1043 q 409 1021 474 1024 q 256 1018 344 1018 q 172 1018 211 1018 q 118 1019 133 1018 q 86 1009 103 1015 q 56 993 69 1003 q 34 969 43 983 q 25 938 25 956 q 29 926 26 936 q 35 903 32 915 q 42 880 39 890 q 44 868 44 869 q 92 828 63 844 q 149 813 122 813 q 140 835 147 817 q 128 857 132 853 q 122 860 128 857 q 108 868 115 864 q 94 876 101 872 q 88 881 88 881 q 80 903 82 886 q 75 926 78 921 q 93 956 78 947 q 128 964 108 964 q 158 960 147 964 q 176 949 169 957 q 188 925 182 940 q 203 886 193 910 q 210 856 206 875 q 215 833 215 836 q 215 768 215 817 q 215 650 215 719 q 213 498 214 581 q 213 331 213 415 q 212 168 213 247 q 210 26 211 89 q 210 -74 210 -36 q 210 -115 210 -112 l 226 -174 l 400 -174 l 400 833 q 398 849 400 838 q 394 874 396 861 q 390 899 392 888 q 389 915 389 911 q 393 934 389 924 q 403 950 397 944 l 414 950 q 435 919 428 942 q 444 872 442 897 q 445 826 446 847 q 444 799 444 804 q 444 739 444 782 q 444 638 444 697 q 444 506 444 578 q 444 359 444 433 q 443 213 443 285 q 443 82 443 142 q 443 -21 443 22 q 443 -81 443 -64 q 445 -109 444 -99 q 447 -128 446 -119 q 451 -147 449 -137 q 458 -174 453 -157 m 826 338 q 819 337 824 338 q 815 336 815 336 l 656 243 l 640 243 q 634 292 636 263 q 632 371 632 322 q 632 424 632 382 q 633 516 632 467 q 633 607 633 565 q 633 660 633 649 q 631 736 633 697 q 627 810 629 775 q 623 872 625 844 q 621 915 621 900 l 621 921 q 621 942 621 933 q 628 951 621 951 q 637 942 631 951 q 650 922 643 933 q 665 899 657 911 q 676 881 672 886 q 749 798 706 851 q 844 694 792 744 q 919 610 885 656 q 983 521 953 565 q 999 494 993 504 q 1008 474 1004 483 q 1015 453 1011 465 q 1024 422 1018 442 q 1029 397 1026 407 q 1034 379 1032 388 q 1038 362 1036 371 q 1039 339 1039 353 q 1038 329 1039 338 q 1036 311 1038 321 q 1033 292 1035 301 q 1028 278 1031 282 q 1016 258 1024 269 q 1001 235 1008 246 q 986 216 993 224 q 978 208 979 208 l 943 208 q 916 244 933 222 q 882 286 899 265 q 853 322 865 307 q 839 336 840 336 q 833 337 838 336 q 826 338 829 338 z "},"Q":{"ha":1138,"x_min":24,"x_max":1108,"o":"m 51 440 q 110 285 74 356 q 201 146 147 215 q 246 90 229 111 q 278 55 263 69 q 315 27 294 40 q 371 -6 336 14 q 385 -12 376 -8 q 396 -17 394 -17 l 569 -17 q 594 -33 579 -17 q 625 -69 608 -49 q 657 -108 642 -89 q 683 -132 672 -126 q 779 -208 736 -178 q 869 -260 822 -239 q 874 -260 869 -260 q 881 -261 878 -261 q 916 -233 886 -261 q 983 -170 946 -206 q 1053 -100 1019 -135 q 1100 -51 1086 -65 q 1106 -44 1103 -49 q 1108 -40 1108 -40 q 1108 -28 1108 -37 q 1106 -15 1107 -18 q 1053 -22 1082 -15 q 996 -29 1025 -29 q 934 -26 960 -29 q 887 -15 908 -22 q 845 3 865 -7 q 800 29 825 14 q 788 40 793 36 q 783 47 783 43 l 783 53 q 797 65 783 53 q 830 97 810 78 q 872 138 850 115 q 908 181 893 160 q 925 204 914 183 q 947 249 936 225 q 967 294 958 274 q 975 318 975 315 q 993 405 989 363 q 997 492 997 447 q 993 524 994 510 q 989 554 992 539 q 982 588 986 569 q 971 632 978 606 q 958 678 964 660 q 947 710 953 696 q 936 735 942 724 q 924 758 931 746 q 840 867 878 822 q 769 944 803 911 q 701 1005 735 978 q 632 1060 668 1032 q 618 1069 628 1064 q 598 1078 608 1074 q 578 1088 588 1083 q 565 1094 568 1092 l 461 1094 q 328 1061 383 1079 q 231 1015 274 1043 q 151 948 188 988 q 78 851 115 908 q 60 806 68 833 q 47 749 53 778 q 36 694 40 721 q 28 654 32 668 q 27 641 28 650 q 26 621 26 632 q 24 599 25 610 q 24 585 24 589 q 24 553 24 567 q 28 524 25 539 q 36 489 31 508 q 51 440 42 469 m 204 597 q 197 620 201 604 q 193 642 193 636 l 193 643 q 190 656 192 646 q 188 676 189 665 q 185 698 186 688 q 185 713 185 708 l 185 756 q 190 808 185 786 q 209 847 196 829 q 244 881 222 864 q 300 921 267 899 q 322 928 313 925 q 341 931 332 931 q 362 933 350 932 q 390 933 374 933 q 538 884 467 933 q 696 747 608 835 q 738 694 718 725 q 775 627 758 663 q 805 555 792 592 q 826 485 818 518 q 833 456 831 467 q 838 436 836 446 q 840 416 839 426 q 840 388 840 406 q 837 328 840 358 q 824 269 833 297 q 799 217 815 240 q 758 181 783 193 q 728 158 743 165 q 697 147 713 150 q 664 144 682 144 q 624 144 646 144 q 572 147 596 144 q 519 162 547 149 q 456 203 490 175 q 372 283 421 232 q 301 372 328 331 q 256 450 274 413 q 226 524 238 488 q 204 597 215 560 m 743 631 l 715 631 q 688 617 714 629 q 619 582 663 604 q 526 535 575 560 q 431 487 478 511 q 351 446 383 463 q 331 434 339 439 q 322 422 322 429 q 323 411 322 419 q 325 400 324 403 l 351 400 q 388 417 353 400 q 473 458 424 435 q 573 508 522 482 q 657 550 624 533 q 682 564 667 556 q 711 581 697 572 q 735 596 725 589 q 744 607 744 603 l 744 614 q 744 624 744 618 q 743 631 744 629 m 290 539 q 281 527 288 536 q 274 515 275 518 l 274 510 q 274 499 274 504 q 275 490 274 493 q 308 502 281 490 q 375 532 336 514 q 460 573 414 550 q 551 618 507 596 q 631 659 594 640 q 688 689 668 678 l 681 717 q 644 711 660 717 q 594 689 628 706 q 535 659 578 681 q 443 614 492 638 q 351 569 394 590 q 290 539 307 547 z "},"R":{"ha":1379,"x_min":33,"x_max":1344,"o":"m 813 317 q 839 279 821 304 q 880 222 857 254 q 927 155 903 190 q 974 88 951 119 q 1015 31 997 56 q 1042 -7 1033 6 q 1056 -27 1051 -22 q 1071 -32 1060 -32 q 1077 -31 1074 -32 q 1082 -31 1081 -31 l 1333 28 q 1338 32 1335 28 q 1342 39 1340 36 q 1335 58 1344 50 q 1313 72 1326 65 q 1283 84 1299 78 q 1256 97 1267 90 q 1201 138 1224 117 q 1153 191 1179 158 q 1092 273 1128 224 q 999 397 1057 322 q 997 403 999 400 q 996 410 996 407 q 1011 432 996 418 q 1046 460 1026 446 q 1083 489 1065 475 q 1106 514 1100 503 q 1148 563 1133 536 q 1169 615 1163 589 q 1178 665 1176 640 q 1179 707 1179 689 l 1179 710 q 1175 733 1179 718 q 1165 763 1171 747 q 1156 792 1160 778 q 1151 814 1151 807 q 1118 870 1140 838 q 1072 931 1096 903 q 1014 986 1040 963 q 955 1026 988 1010 q 878 1056 922 1043 q 765 1081 833 1069 l 742 1081 q 742 1062 742 1075 q 743 1033 743 1049 q 743 1006 743 1019 q 743 988 743 993 q 732 890 743 935 q 679 803 721 844 q 650 789 669 793 q 612 775 631 785 q 578 743 593 765 q 564 675 564 721 q 563 572 564 631 q 561 448 563 513 q 558 318 560 383 q 556 198 557 253 q 553 103 554 143 q 554 47 553 63 l 563 4 l 736 4 q 742 25 740 4 q 744 63 744 46 l 744 271 q 749 312 747 289 q 761 340 750 335 l 783 340 q 799 328 788 338 q 813 317 810 319 m 282 15 q 322 13 293 15 q 382 10 350 11 q 442 6 414 8 q 482 4 471 4 l 506 4 q 514 40 511 7 q 518 126 517 74 q 520 247 519 179 q 520 384 521 314 q 519 522 519 454 q 520 644 519 590 q 522 731 521 697 q 526 768 524 765 q 561 808 540 796 q 604 828 582 819 q 646 850 626 836 q 676 896 665 864 q 683 916 681 903 q 688 944 686 929 q 692 974 690 960 q 694 1000 693 989 q 692 1050 694 1033 q 687 1073 690 1067 q 679 1079 683 1079 q 672 1081 675 1079 q 667 1081 671 1081 q 660 1082 663 1082 q 646 1069 651 1082 q 635 1041 640 1057 q 622 1013 629 1025 q 601 1000 614 1000 q 592 999 601 999 q 579 999 583 999 q 515 1013 554 999 q 432 1045 476 1028 q 343 1077 388 1063 q 265 1092 299 1092 q 151 1070 196 1092 q 79 1017 106 1049 q 43 952 53 986 q 33 892 33 918 l 39 856 q 58 808 49 831 q 81 763 68 785 q 116 719 94 742 q 171 675 138 697 q 189 669 175 674 q 208 664 203 665 l 243 664 q 269 672 260 667 q 283 686 278 678 q 293 706 289 694 q 306 733 297 717 q 293 769 294 754 q 287 797 292 783 q 269 825 282 810 q 224 861 257 840 q 199 874 211 869 q 176 883 186 878 q 158 895 165 888 q 151 917 151 903 l 151 918 q 168 946 154 938 q 197 954 182 954 q 224 951 214 954 q 251 939 235 949 q 294 910 267 929 q 374 861 321 892 q 399 846 382 854 q 417 832 417 838 q 417 828 417 831 q 418 826 418 826 q 401 809 418 817 q 369 792 383 801 q 349 765 358 781 q 340 733 340 749 q 331 479 333 607 q 329 224 329 351 q 326 128 329 158 q 316 84 322 99 q 300 60 310 69 q 279 28 290 50 q 281 22 279 25 q 282 15 282 18 m 749 467 l 750 757 q 776 817 768 794 q 791 853 785 840 q 804 869 797 865 q 828 874 811 874 q 864 858 840 874 q 910 824 888 843 q 951 785 933 804 q 969 757 968 765 q 978 733 974 749 q 985 700 982 717 q 992 669 989 683 q 999 653 996 656 l 999 651 q 959 542 999 588 q 844 456 919 496 q 809 443 831 449 q 771 432 788 438 l 758 432 l 749 467 z "},"S":{"ha":1083,"x_min":44,"x_max":1036,"o":"m 56 96 q 114 3 74 33 q 204 -26 154 -26 q 233 -23 218 -26 q 260 -12 247 -19 q 281 10 272 -4 q 289 44 289 24 l 289 46 q 282 83 289 65 q 265 115 275 100 q 243 141 254 129 q 222 160 232 153 l 232 172 q 244 173 233 172 q 263 174 256 174 q 331 170 300 174 q 391 156 361 167 q 455 128 421 146 q 535 79 489 110 q 588 27 558 56 q 644 -25 617 -1 l 656 -25 q 710 -3 688 -14 q 755 20 733 7 q 803 50 776 33 q 867 90 829 67 q 882 102 871 93 q 894 114 893 111 l 940 160 q 1015 281 994 221 q 1036 403 1036 340 q 1027 432 1032 413 q 1017 472 1022 451 q 1006 513 1011 493 q 997 542 1001 532 q 992 555 997 547 q 980 570 986 563 q 967 585 974 578 q 958 600 960 593 q 887 666 926 638 q 814 704 847 694 l 801 704 q 723 639 764 667 q 642 611 682 611 l 538 611 q 489 631 518 619 q 431 659 460 643 q 381 694 403 675 q 353 739 358 714 q 345 756 350 742 q 335 788 340 771 q 327 822 331 806 q 324 843 324 838 q 324 858 324 846 q 326 878 325 871 l 326 881 q 334 909 326 893 q 353 925 342 925 q 363 919 351 925 q 389 905 374 913 q 419 890 404 897 q 442 878 435 882 q 527 843 483 858 q 613 817 571 828 q 692 801 654 807 q 760 796 731 796 q 815 797 790 796 q 862 805 840 797 q 902 829 883 813 q 940 878 921 846 q 944 892 942 882 q 949 913 946 901 q 953 933 951 924 q 956 947 956 943 q 951 958 954 949 q 945 981 949 968 q 939 1003 942 993 q 936 1017 936 1014 q 922 1039 932 1025 q 900 1065 913 1053 q 873 1088 888 1078 q 844 1097 858 1097 q 829 1099 843 1099 q 810 1099 817 1099 q 783 1097 797 1099 q 758 1090 769 1096 q 740 1072 747 1083 q 732 1040 732 1061 q 739 1017 738 1035 q 746 993 740 999 q 749 985 746 992 q 757 970 753 978 q 765 956 761 963 q 769 947 769 949 q 772 936 772 944 q 774 926 772 929 q 757 925 769 926 q 740 924 744 924 q 681 940 711 929 q 619 971 651 951 q 551 1021 586 990 q 474 1097 515 1051 q 468 1099 472 1099 q 463 1099 464 1099 q 444 1092 461 1099 q 405 1078 426 1086 q 363 1063 383 1071 q 336 1051 343 1056 q 286 1016 314 1036 q 233 974 258 996 q 190 933 208 953 q 169 901 172 914 q 156 853 163 882 q 142 795 149 824 q 132 746 136 767 q 128 722 128 725 l 128 715 q 133 690 128 707 q 145 652 139 672 q 157 615 151 632 q 163 589 163 597 q 169 573 163 585 q 185 549 176 561 q 204 524 194 536 q 219 507 214 513 q 289 456 256 478 q 381 426 322 435 l 392 426 q 423 453 410 440 q 451 479 436 467 q 486 502 465 492 q 540 519 507 513 l 622 519 q 676 497 646 508 q 736 467 707 486 q 789 419 765 449 q 822 339 813 389 q 830 310 825 329 q 836 288 835 290 q 830 247 836 267 q 815 213 824 228 q 796 190 806 199 q 778 182 786 182 q 749 195 776 182 q 686 226 722 208 q 614 260 650 243 q 558 288 578 278 q 453 319 513 303 q 336 335 394 335 q 290 329 319 335 q 229 316 261 324 q 170 301 197 308 q 131 288 143 293 q 65 228 86 267 q 44 138 44 190 q 49 119 46 135 q 56 96 53 104 z "},"T":{"ha":1133,"x_min":35,"x_max":1079,"o":"m 169 344 q 183 301 178 317 q 193 274 188 286 q 208 247 199 261 q 232 210 217 233 q 255 175 238 193 q 295 138 272 157 q 342 102 318 119 q 383 71 365 85 q 427 44 408 54 q 467 26 446 35 q 518 10 489 18 q 592 -11 547 1 q 606 -14 596 -12 q 625 -17 615 -15 q 643 -21 635 -19 q 653 -22 651 -22 l 676 -22 q 751 -11 713 -15 q 831 1 789 -7 q 869 10 850 1 q 894 24 889 18 l 1079 279 q 1078 285 1078 281 q 1076 290 1078 289 q 1061 303 1072 294 q 1046 314 1050 311 l 1022 314 q 998 299 1011 308 q 969 278 985 289 q 938 258 954 267 q 903 244 921 249 q 859 226 882 233 q 815 215 836 219 q 776 210 793 211 q 750 208 758 208 q 717 215 726 208 q 707 244 707 222 q 706 295 707 261 q 705 373 706 329 q 703 464 704 417 q 702 555 703 511 q 701 632 701 599 q 701 683 701 667 l 701 693 q 704 746 701 726 q 714 765 707 765 l 922 765 q 962 776 943 765 q 995 803 981 788 q 1020 833 1010 818 q 1035 857 1031 849 q 1047 884 1040 868 q 1060 917 1054 900 q 1069 949 1065 933 q 1072 974 1072 964 l 1072 996 q 1072 1051 1072 1032 q 1064 1089 1072 1072 q 1053 1117 1060 1110 q 1025 1125 1047 1125 q 1017 1124 1022 1125 q 1008 1124 1011 1124 q 1011 1094 1010 1117 q 1013 1065 1013 1072 q 998 1013 1007 1040 q 957 974 989 985 q 940 966 951 971 q 926 961 928 961 l 833 961 q 784 972 814 965 q 733 985 754 978 q 647 1018 694 999 q 558 1055 600 1038 q 485 1085 515 1072 q 447 1100 454 1097 q 420 1108 439 1103 q 399 1113 401 1113 l 214 1113 q 166 1081 192 1097 q 125 1054 140 1065 q 57 962 79 1001 q 35 881 35 922 q 42 801 35 831 q 58 755 49 771 q 76 734 67 739 q 89 729 85 729 q 104 740 99 729 q 113 765 110 750 q 116 795 115 779 q 119 822 117 811 q 135 853 128 839 q 155 880 143 868 q 185 899 167 892 q 238 906 204 906 q 269 903 240 906 q 335 893 299 900 q 404 874 371 886 q 449 846 438 863 q 435 835 447 843 q 404 816 422 826 q 368 794 386 806 q 339 776 350 783 q 292 742 313 761 q 253 701 271 722 q 217 654 235 679 q 181 603 200 629 q 169 578 174 596 q 160 539 164 560 q 154 497 157 518 q 149 464 151 476 q 152 432 150 444 q 156 408 154 419 q 161 381 158 396 q 169 344 164 367 m 388 429 q 383 447 386 436 q 378 469 381 458 q 373 489 375 481 q 371 499 371 497 l 371 506 q 380 583 371 549 q 405 649 389 618 q 441 707 421 679 q 482 765 461 735 q 522 799 501 785 q 558 813 543 813 q 574 812 563 813 q 599 808 586 811 q 620 798 611 806 q 629 776 629 790 q 631 752 631 775 q 633 694 632 729 q 634 618 633 660 q 635 536 635 576 q 635 465 635 497 q 636 418 636 433 q 635 306 636 346 q 631 247 635 265 q 619 224 626 228 q 597 219 611 219 q 563 225 583 219 q 521 243 543 231 q 475 276 499 256 q 429 325 451 296 q 417 347 422 338 q 408 367 413 357 q 399 392 404 378 q 388 429 394 407 z "},"U":{"ha":1407,"x_min":29,"x_max":1379,"o":"m 286 369 q 294 338 292 350 q 301 315 297 325 q 310 293 304 304 q 328 267 317 282 q 363 202 346 228 q 395 159 379 176 q 426 129 411 142 q 453 104 440 117 q 498 66 471 85 q 553 32 525 47 q 610 7 582 17 q 657 -3 638 -3 q 669 -1 661 -3 q 679 0 678 0 l 885 174 q 892 184 885 182 q 906 186 899 186 q 924 172 911 186 q 950 140 936 158 q 976 103 964 121 q 992 81 988 86 q 1062 19 1032 40 q 1119 -1 1092 -1 q 1132 -1 1124 -1 q 1142 0 1140 0 l 1379 58 l 1369 93 q 1283 118 1319 104 q 1219 154 1246 132 q 1173 209 1192 176 q 1140 292 1154 242 q 1129 331 1133 314 q 1123 368 1125 347 q 1120 419 1121 389 q 1119 497 1119 449 l 1119 833 q 1118 847 1119 836 q 1115 868 1117 857 q 1113 890 1114 879 q 1111 903 1111 900 l 1111 1076 q 1109 1088 1111 1081 q 1104 1100 1107 1096 q 1060 1102 1092 1100 q 992 1106 1028 1104 q 925 1109 957 1107 q 881 1111 893 1111 l 776 1111 q 772 1106 775 1110 q 768 1100 769 1101 q 778 1081 768 1092 q 803 1057 789 1069 q 831 1031 817 1044 q 853 1007 844 1018 q 875 958 868 982 q 885 911 882 933 q 890 872 888 889 q 897 844 892 854 l 892 311 q 878 276 892 292 q 847 249 865 261 q 809 231 828 238 q 779 219 790 224 l 733 219 q 715 239 724 224 q 706 278 706 254 q 707 326 706 292 q 709 408 708 361 q 711 513 710 456 q 713 629 713 569 l 713 671 q 713 701 713 681 q 712 744 713 722 q 710 785 711 767 q 710 810 710 804 q 708 825 710 813 q 703 851 706 838 q 700 876 701 864 q 699 892 699 889 q 700 915 699 900 q 703 948 701 931 q 708 983 706 965 q 710 1015 710 1001 l 710 1018 q 705 1040 708 1024 q 697 1073 701 1056 q 690 1106 693 1090 q 685 1126 686 1121 q 660 1122 668 1126 q 649 1108 651 1117 q 644 1089 646 1100 q 639 1065 643 1078 q 628 1050 639 1058 q 611 1042 617 1042 l 576 1042 q 546 1050 565 1043 q 501 1065 526 1057 q 449 1083 476 1074 q 397 1100 422 1093 q 360 1111 375 1107 q 334 1118 346 1115 q 310 1122 322 1121 q 279 1124 297 1124 q 242 1125 267 1124 q 185 1117 217 1126 q 117 1080 153 1107 q 46 996 81 1053 q 40 974 43 988 q 35 946 38 961 q 31 916 32 931 q 29 892 29 901 q 48 835 29 865 q 90 778 67 804 q 138 735 114 753 q 169 718 161 718 q 186 717 171 717 q 208 717 201 717 q 231 719 224 717 q 244 726 239 721 q 256 740 250 731 q 271 764 261 749 q 274 774 272 767 q 275 785 275 781 l 275 789 q 273 806 275 794 q 268 828 271 817 q 262 847 265 839 q 257 857 258 856 l 165 938 q 160 953 163 942 q 157 972 157 965 q 165 983 157 982 q 189 985 174 985 q 279 953 218 985 q 442 857 340 921 q 434 842 442 851 q 415 823 426 833 q 392 800 404 813 q 372 775 381 788 q 292 643 318 721 q 267 490 267 565 l 267 486 q 267 456 267 468 q 270 433 268 444 q 276 406 272 421 q 286 369 279 392 m 474 446 q 469 462 472 451 q 464 483 467 472 q 458 501 461 493 q 456 510 456 508 l 456 556 q 465 622 456 586 q 485 691 474 658 q 510 749 497 724 q 531 788 522 775 q 586 838 560 817 q 650 858 613 858 l 654 844 q 654 815 654 844 q 653 742 654 788 q 652 638 653 696 q 651 520 651 579 q 649 406 650 461 q 649 313 649 351 l 649 304 q 645 261 649 279 q 633 243 642 243 q 611 253 628 243 q 575 278 594 264 q 539 309 556 293 q 517 336 522 325 q 501 361 507 350 q 490 383 494 372 q 483 409 486 394 q 474 446 479 424 z "},"V":{"ha":1143,"x_min":58,"x_max":1081,"o":"m 261 310 q 289 239 265 276 q 351 164 313 201 q 440 92 390 126 q 546 29 489 57 q 560 22 550 26 q 583 11 571 17 q 608 1 596 6 q 625 -6 619 -4 l 636 -6 q 693 15 668 4 q 740 37 718 25 q 785 63 763 49 q 838 99 808 78 q 910 163 875 125 q 972 242 944 200 q 1021 328 1000 285 q 1053 411 1042 372 q 1072 504 1069 454 q 1081 607 1074 554 q 1081 633 1081 617 q 1079 654 1081 651 l 1003 932 q 985 963 997 944 q 956 1003 972 982 q 919 1046 939 1025 q 879 1082 899 1067 q 864 1095 875 1086 q 851 1106 853 1104 l 828 1106 q 813 1092 829 1107 q 771 1055 796 1076 q 718 1008 746 1033 q 668 967 690 983 l 647 967 q 645 972 647 968 q 643 978 643 976 q 637 1055 638 1017 q 631 1121 636 1093 q 603 1119 617 1121 q 585 1106 590 1117 q 578 1067 579 1097 q 578 1001 578 1038 q 579 914 578 967 q 581 811 581 861 q 583 725 582 761 q 583 689 583 689 l 593 654 l 593 261 l 581 238 q 509 292 533 264 q 474 356 485 321 q 463 435 464 392 q 463 538 463 479 q 464 563 464 542 q 464 600 464 583 l 464 619 q 463 633 464 622 q 460 654 461 643 q 457 676 458 665 q 456 689 456 686 l 456 815 q 456 894 456 863 q 447 957 456 926 q 417 1022 439 988 q 354 1106 396 1056 q 345 1113 351 1108 q 338 1117 339 1117 l 315 1117 q 283 1092 310 1114 q 226 1044 257 1071 q 169 995 196 1018 q 138 967 143 972 q 118 940 131 958 q 92 903 106 922 q 68 867 78 883 q 58 842 58 850 l 58 839 q 67 788 58 811 q 85 749 75 765 q 106 722 96 732 q 117 711 115 713 q 142 708 122 710 q 168 707 163 707 q 164 715 167 708 q 158 724 161 722 q 131 748 147 740 q 107 779 114 756 q 104 793 106 783 q 101 804 103 803 q 114 839 101 822 q 144 863 126 856 l 179 863 q 210 829 199 850 q 226 785 221 808 q 233 740 232 763 q 235 700 235 717 q 236 687 235 697 q 239 665 238 676 q 242 644 240 654 q 243 631 243 633 q 245 491 243 549 q 250 396 247 433 q 256 338 253 358 q 261 310 258 317 m 660 226 q 657 240 658 229 q 656 258 656 251 l 656 261 q 656 376 656 317 q 657 488 657 435 q 656 585 657 542 q 650 654 654 629 l 650 656 q 646 673 650 660 q 640 689 642 686 q 644 710 643 693 q 644 747 644 728 q 644 785 644 768 q 643 804 643 801 q 718 875 660 875 q 758 867 736 875 q 799 846 779 860 q 836 813 819 832 q 861 769 853 793 q 893 718 881 744 q 913 671 906 692 q 922 638 919 650 q 924 631 924 626 q 928 604 926 621 q 932 569 931 588 q 934 532 933 550 q 935 503 935 514 l 935 499 q 900 322 935 401 q 808 168 865 243 q 791 167 804 168 q 774 167 778 167 q 736 169 754 167 q 703 177 718 171 q 676 195 688 183 q 660 226 665 207 z "},"W":{"ha":1792,"x_min":43,"x_max":1751,"o":"m 1304 131 q 1316 124 1307 133 q 1338 98 1325 114 q 1363 65 1350 82 q 1389 39 1376 49 q 1440 -5 1413 11 q 1482 -21 1468 -21 q 1526 -14 1496 -21 q 1594 2 1557 -7 q 1670 22 1632 11 q 1736 39 1708 32 q 1744 50 1739 42 q 1751 61 1750 58 l 1751 67 q 1737 81 1751 75 q 1703 92 1722 88 q 1665 100 1685 96 q 1635 108 1644 104 q 1578 140 1599 117 q 1544 194 1557 164 q 1523 257 1531 225 q 1507 317 1515 289 l 1507 363 q 1508 407 1507 371 q 1509 484 1508 443 q 1510 560 1510 525 q 1510 606 1510 596 q 1509 626 1510 604 q 1506 683 1508 647 q 1503 765 1504 719 q 1499 859 1501 811 q 1497 952 1497 907 q 1496 1033 1496 997 l 1483 1079 q 1337 1090 1407 1088 q 1197 1093 1267 1093 q 1229 1049 1208 1069 q 1260 1010 1250 1029 l 1265 988 q 1269 976 1267 985 q 1272 964 1271 967 q 1274 863 1272 919 q 1277 753 1275 806 q 1282 663 1279 701 q 1286 617 1285 625 q 1288 564 1288 607 q 1290 463 1289 521 q 1290 339 1290 404 q 1290 224 1290 275 q 1281 203 1290 211 q 1260 192 1272 196 q 1234 188 1247 189 q 1213 188 1221 188 q 1178 192 1192 188 q 1164 224 1164 196 q 1163 246 1164 228 q 1162 286 1163 264 q 1160 330 1161 308 q 1160 363 1160 351 l 1160 443 l 1160 464 q 1158 548 1160 513 q 1153 610 1156 583 q 1150 657 1151 636 q 1149 699 1149 678 q 1147 733 1147 711 q 1145 777 1146 756 q 1144 815 1144 799 q 1144 836 1144 833 q 1149 858 1144 840 q 1158 894 1153 875 q 1167 931 1163 914 q 1171 953 1171 949 l 1171 964 q 1169 988 1171 972 q 1163 1024 1167 1004 q 1155 1065 1160 1044 q 1144 1104 1150 1086 q 1121 1099 1139 1104 q 1099 1092 1103 1094 q 1096 1074 1096 1089 q 1094 1057 1096 1060 q 1080 1017 1092 1031 q 1050 996 1068 1003 q 1008 988 1032 989 q 954 986 983 986 q 848 997 900 986 q 746 1025 796 1008 q 645 1060 696 1042 q 543 1092 594 1078 q 497 1103 517 1099 q 457 1110 476 1107 q 417 1114 438 1113 q 368 1115 396 1115 q 319 1115 339 1115 q 283 1112 300 1115 q 248 1101 267 1108 q 200 1079 229 1093 q 141 1047 169 1064 q 91 1008 113 1029 q 56 961 69 988 q 43 903 43 935 l 43 894 q 47 872 43 886 q 57 841 51 857 q 67 811 63 825 q 71 790 71 797 q 88 762 75 776 q 116 736 101 747 q 144 717 131 725 q 163 710 158 710 q 173 709 164 710 q 186 708 182 708 q 235 718 217 708 q 265 756 254 728 q 269 767 267 758 q 272 779 271 776 q 263 796 265 786 q 258 817 260 806 q 251 839 256 828 q 238 860 247 850 q 223 878 231 869 q 208 894 215 886 q 197 913 201 903 q 193 939 193 924 l 193 940 q 195 949 189 944 q 211 958 201 954 q 231 963 221 961 q 243 965 240 965 q 315 950 268 965 q 421 906 363 935 q 433 897 428 903 q 438 889 438 892 l 438 883 q 429 873 438 881 q 410 855 421 865 q 386 833 399 844 q 365 814 374 822 q 338 781 353 801 q 311 740 324 761 q 289 701 299 719 q 276 675 279 683 q 265 619 271 651 q 252 556 258 586 q 242 503 246 525 q 238 478 238 481 q 240 455 239 469 q 243 424 242 440 q 244 394 244 408 q 244 374 244 381 l 244 372 q 260 305 244 332 q 289 247 276 278 q 338 167 318 194 q 383 119 357 140 q 415 85 403 97 q 444 61 428 72 q 485 38 461 50 q 553 4 510 25 q 567 -3 557 1 q 579 -8 578 -7 l 603 -8 q 719 54 661 22 q 835 119 778 86 l 857 119 q 904 81 875 103 q 961 40 933 60 q 1009 6 989 19 q 1031 -8 1029 -8 l 1054 -8 l 1304 131 m 658 206 q 658 247 658 210 q 656 329 657 283 q 654 418 656 375 q 653 478 653 461 q 654 540 653 506 q 656 594 656 575 l 656 640 q 654 653 656 643 q 651 675 653 664 q 649 697 650 686 q 647 710 647 707 q 647 731 647 714 q 646 756 647 749 q 651 803 646 782 q 663 825 656 825 l 675 825 q 817 803 775 810 q 860 781 860 796 l 860 779 q 821 722 839 750 q 788 664 803 693 q 778 636 781 651 q 769 606 776 621 q 751 507 754 558 q 747 406 747 456 q 753 383 747 407 q 767 326 758 360 q 784 256 775 292 q 800 200 793 221 q 789 188 793 193 q 778 181 785 183 q 762 177 772 178 q 731 176 751 176 q 708 177 717 176 q 691 181 699 178 q 676 189 683 183 q 658 206 668 194 m 428 413 q 420 448 424 433 q 413 475 417 463 q 408 501 410 488 q 407 536 407 515 q 410 617 407 583 q 422 680 414 651 q 442 733 429 708 q 475 790 456 758 q 508 834 492 818 q 546 850 525 850 q 572 844 561 850 q 585 814 582 839 q 585 763 585 790 q 588 710 586 735 q 592 665 590 685 q 597 640 594 646 q 597 564 597 619 q 598 449 597 510 q 599 333 599 389 q 599 258 599 279 q 597 226 599 239 q 588 213 596 213 q 552 227 571 213 q 516 261 533 242 q 484 299 499 281 q 464 328 469 318 q 450 348 454 340 q 442 364 446 356 q 436 383 439 372 q 428 413 433 394 m 944 432 q 940 451 943 435 q 935 484 938 467 q 930 517 932 501 q 926 536 928 533 q 928 571 926 546 q 931 624 929 596 q 935 674 933 651 q 940 699 938 696 q 965 761 953 738 q 994 797 978 785 q 1031 814 1010 810 q 1083 818 1053 818 q 1086 807 1085 815 q 1088 793 1088 799 l 1088 790 q 1094 703 1094 743 q 1101 617 1094 663 q 1102 601 1101 614 q 1103 574 1103 589 q 1103 546 1103 560 q 1103 525 1103 532 l 1103 235 l 1085 213 q 1056 233 1068 222 q 1034 258 1044 244 q 1011 292 1024 272 q 981 339 999 311 q 972 363 978 347 q 959 393 965 378 q 949 419 953 408 q 944 432 944 431 z "},"X":{"ha":1004,"x_min":40,"x_max":988,"o":"m 107 -28 q 140 -103 115 -71 q 194 -159 164 -135 q 257 -199 224 -183 q 319 -224 290 -215 q 366 -237 347 -233 q 386 -242 385 -242 q 396 -242 388 -242 q 418 -242 406 -242 q 443 -243 431 -243 q 464 -243 456 -243 q 533 -241 501 -243 q 594 -232 565 -239 q 650 -210 624 -225 q 704 -172 676 -196 q 716 -142 704 -161 q 728 -103 728 -122 q 724 -74 728 -90 l 718 -57 q 694 -28 714 -46 q 656 1 674 -10 q 642 1 651 1 q 624 2 633 1 q 604 3 614 3 q 592 3 596 3 q 532 1 550 3 q 496 -10 514 0 q 471 -48 486 -26 q 440 -90 456 -69 q 412 -124 425 -110 q 393 -137 399 -137 q 372 -138 392 -137 q 342 -139 353 -139 q 288 -135 308 -139 q 254 -122 268 -131 q 229 -103 240 -114 q 203 -79 218 -92 q 180 -42 193 -69 q 167 13 167 -15 q 182 67 167 40 q 228 129 197 93 q 274 176 247 149 q 325 233 301 203 l 338 233 q 365 165 347 200 q 402 102 383 131 q 438 55 421 74 q 461 36 454 36 q 472 35 461 36 q 488 35 482 35 q 547 46 508 35 q 631 74 585 57 q 724 108 676 90 q 814 140 772 126 l 804 175 q 683 194 732 175 q 586 256 635 213 q 566 286 576 261 q 547 340 556 311 q 532 394 538 368 q 526 429 526 419 q 528 454 526 443 q 538 474 529 465 q 566 492 547 483 q 619 510 585 501 q 655 522 629 514 q 709 540 681 531 q 763 557 738 549 q 800 568 789 565 l 800 574 q 789 583 796 578 q 771 592 782 588 q 728 606 758 596 q 663 626 697 615 q 597 647 628 638 q 554 661 567 657 q 532 676 539 665 q 522 699 525 686 q 517 723 519 711 q 508 742 515 735 l 508 747 q 506 801 508 772 q 504 846 504 831 q 526 880 510 865 q 554 894 542 894 q 572 888 561 894 q 596 871 583 881 q 622 851 608 861 q 646 835 635 840 q 658 828 649 832 q 677 820 667 824 q 697 814 688 817 q 711 811 707 811 l 746 811 q 791 821 767 817 q 831 835 815 825 q 919 886 874 857 q 988 939 964 915 l 988 942 q 975 956 988 951 q 946 963 963 960 q 912 967 929 965 q 885 974 894 969 q 841 996 865 978 q 792 1037 817 1014 q 744 1083 767 1060 q 706 1124 722 1107 l 694 1124 q 639 1076 674 1106 q 571 1019 604 1047 q 513 970 538 990 q 486 950 488 950 q 473 963 483 950 q 450 992 463 975 q 424 1026 438 1008 q 400 1054 410 1043 q 377 1076 392 1063 q 347 1103 363 1090 q 319 1126 332 1117 q 303 1136 307 1136 q 280 1122 300 1136 q 235 1090 260 1108 q 185 1055 210 1072 q 153 1031 161 1038 q 118 1004 138 1019 q 81 975 99 989 q 52 951 64 961 q 40 939 40 940 q 53 922 40 926 q 83 916 65 917 q 119 916 100 915 q 150 915 138 917 q 205 901 181 915 q 247 867 229 886 q 274 827 264 847 q 288 796 285 807 q 300 740 294 764 q 306 683 306 715 q 296 678 303 682 q 286 672 289 674 q 251 659 279 669 q 190 638 222 649 q 131 616 158 626 q 97 603 103 606 q 86 597 93 601 q 78 592 79 593 l 78 586 q 110 568 78 583 q 184 535 143 553 q 260 503 225 518 q 303 488 296 489 q 317 472 313 483 q 324 446 322 460 q 327 418 326 432 q 328 394 328 404 q 315 335 325 363 q 285 281 304 308 q 238 226 267 254 q 171 164 210 197 q 142 131 153 143 q 123 107 131 118 q 110 83 115 96 q 99 47 104 69 l 99 42 q 101 7 99 18 q 107 -28 103 -4 z "},"Y":{"ha":1182,"x_min":40,"x_max":1135,"o":"m 139 -54 q 147 -78 143 -69 q 153 -94 150 -86 q 161 -109 157 -101 q 172 -129 165 -117 q 196 -157 185 -144 q 222 -180 207 -169 q 260 -200 238 -190 q 315 -222 282 -210 q 351 -235 328 -229 q 401 -244 374 -240 l 464 -257 q 484 -259 468 -257 q 519 -262 500 -261 q 556 -266 538 -264 q 582 -268 574 -268 l 606 -268 q 743 -257 693 -262 q 825 -244 793 -251 q 879 -227 857 -237 q 932 -199 901 -217 q 960 -178 950 -190 q 974 -155 969 -167 q 983 -133 979 -143 q 992 -118 986 -124 q 988 -99 992 -111 q 981 -76 985 -87 q 973 -53 976 -64 q 969 -36 969 -42 q 910 6 944 -11 q 838 22 875 22 q 790 17 808 22 q 751 0 771 13 q 706 -35 732 -12 q 638 -94 681 -58 q 592 -137 617 -122 q 540 -158 567 -151 q 488 -165 514 -164 q 439 -165 461 -165 q 401 -165 415 -165 q 375 -163 386 -164 q 351 -160 364 -162 q 318 -153 339 -157 q 244 -121 274 -137 q 201 -65 214 -104 q 198 -56 200 -62 q 197 -49 196 -49 q 216 -1 197 -17 q 271 20 235 14 q 362 28 307 26 q 488 33 417 29 l 522 33 q 601 41 564 36 q 676 54 639 46 q 753 74 714 63 q 838 103 792 86 q 901 131 875 117 q 950 163 928 146 q 994 203 972 181 q 1040 253 1015 225 q 1074 303 1058 272 q 1103 365 1090 333 q 1122 426 1115 397 q 1129 472 1129 456 q 1131 488 1131 476 q 1133 514 1132 500 q 1134 542 1133 528 q 1135 567 1135 557 l 1135 583 q 1128 642 1135 600 q 1108 735 1121 683 q 1077 838 1094 786 q 1039 924 1060 889 q 1008 973 1031 943 q 962 1031 986 1003 q 918 1078 938 1058 q 894 1099 899 1099 q 891 1098 893 1099 q 888 1097 889 1097 l 731 958 l 714 969 q 715 979 715 972 q 715 994 715 986 q 713 1059 715 1038 q 703 1106 711 1081 q 669 1101 688 1106 q 650 1081 650 1097 q 651 1074 650 1075 l 651 739 q 653 723 651 735 q 656 698 654 711 q 660 673 658 685 q 661 657 661 661 q 662 565 661 631 q 663 425 663 500 q 663 286 663 351 q 663 194 663 221 q 658 147 663 164 q 642 123 654 131 q 607 114 629 115 q 549 113 585 113 q 527 113 542 113 q 511 114 513 114 l 497 125 q 497 157 497 135 q 498 206 497 181 q 499 254 499 232 q 499 288 499 278 q 498 304 499 290 q 497 328 497 318 l 497 333 q 497 389 497 344 q 497 484 497 433 q 496 579 496 535 q 496 635 496 624 q 487 693 489 665 q 483 749 485 721 q 476 809 481 778 q 463 881 472 840 q 439 949 451 919 q 410 1000 426 978 q 373 1040 393 1022 q 328 1074 353 1057 q 297 1092 313 1085 q 275 1099 281 1099 q 249 1083 271 1099 q 201 1044 228 1067 q 150 1001 175 1022 q 114 969 125 979 q 54 905 68 939 q 40 819 40 871 q 58 794 50 810 q 76 762 65 778 q 105 735 88 746 q 151 724 122 724 q 144 743 150 728 q 136 761 139 758 q 121 780 129 772 q 106 796 113 788 q 96 815 100 804 q 92 843 92 826 q 140 879 100 879 q 182 876 160 879 q 214 854 204 874 q 239 810 228 839 q 256 746 250 781 q 266 675 263 711 q 269 611 269 639 l 269 139 q 267 113 269 121 q 259 101 265 106 q 240 93 253 97 q 208 79 228 89 q 157 44 183 68 q 131 -11 131 21 l 131 -14 q 133 -31 131 -15 q 139 -54 136 -46 m 729 160 q 729 190 729 163 q 731 254 729 219 q 733 319 732 289 q 733 357 733 350 q 733 365 733 358 q 733 379 733 372 q 733 394 733 388 q 732 403 732 401 q 732 418 732 406 q 733 444 732 431 q 733 468 733 457 q 733 483 733 481 q 733 528 733 499 q 731 587 732 557 q 729 640 731 617 q 728 669 728 664 l 728 672 q 726 689 728 678 q 724 713 725 700 q 720 736 722 725 q 718 750 718 747 q 717 773 718 758 q 716 802 717 788 q 715 828 715 817 q 714 843 714 840 q 728 863 718 858 q 754 867 739 867 q 819 845 790 867 q 869 791 847 824 q 906 720 890 758 q 932 649 921 682 q 938 622 935 638 q 944 590 942 607 q 949 558 947 574 q 951 531 951 543 q 940 403 951 464 q 894 276 929 343 q 860 228 882 253 q 816 185 839 204 q 773 156 793 167 q 744 149 753 144 l 729 160 z "},"Z":{"ha":1067,"x_min":56,"x_max":1018,"o":"m 57 10 q 65 -11 60 -3 q 89 -19 69 -19 q 110 -6 104 -19 q 128 15 115 8 q 181 53 151 39 q 243 75 210 67 l 358 75 q 414 63 379 71 q 490 42 449 54 q 576 19 531 31 q 664 -3 621 7 q 699 -10 686 -7 q 725 -13 713 -12 q 751 -15 738 -14 q 789 -15 765 -15 q 857 -13 833 -15 q 893 10 881 -11 q 938 95 913 50 q 985 183 963 140 q 993 201 988 190 q 1003 224 999 213 q 1013 243 1008 235 q 1017 253 1017 251 l 1017 256 q 1017 269 1018 261 q 1017 281 1017 278 q 970 271 993 281 q 924 249 947 261 q 878 226 901 236 q 828 217 854 217 q 808 215 826 215 q 782 215 792 215 q 674 222 729 215 q 567 243 619 228 l 567 250 q 578 276 567 251 q 609 338 590 300 q 651 420 628 375 q 696 509 674 465 q 737 589 718 553 q 765 644 756 625 q 797 710 775 665 q 847 810 819 754 q 906 926 875 865 q 964 1039 936 986 q 968 1050 965 1042 q 971 1061 971 1058 q 964 1086 972 1076 q 935 1096 956 1096 q 922 1088 932 1096 q 910 1072 913 1079 q 890 1033 903 1060 q 859 974 876 1007 q 822 905 842 942 q 785 835 803 868 q 754 775 768 801 q 735 736 740 749 q 721 708 728 722 q 711 679 714 694 l 496 261 q 469 223 482 231 q 435 214 457 215 q 426 218 432 214 q 419 225 421 222 q 447 277 428 242 q 489 358 465 313 q 538 451 513 403 q 585 545 563 500 q 627 626 608 590 q 654 678 646 661 q 659 688 656 679 q 666 706 663 697 q 673 724 669 715 q 678 735 676 732 q 711 802 686 754 q 764 904 736 850 q 817 1006 792 958 q 851 1072 842 1053 l 853 1074 q 842 1101 854 1093 q 815 1108 831 1108 q 797 1102 808 1108 q 771 1088 785 1096 q 742 1071 757 1079 q 715 1058 728 1063 q 707 1058 715 1058 q 686 1057 699 1057 q 664 1056 675 1057 q 646 1056 653 1056 q 493 1076 569 1056 q 346 1115 417 1097 q 333 1116 344 1115 q 314 1117 321 1117 q 254 1113 276 1117 q 213 1085 232 1108 q 170 1009 193 1061 q 108 860 147 957 q 93 799 97 829 q 86 744 89 768 q 87 736 86 743 q 89 726 88 729 l 93 710 q 143 642 110 669 q 211 615 176 615 q 236 617 222 615 q 263 623 250 618 q 284 640 275 628 q 294 674 293 651 l 294 678 q 283 729 297 700 q 251 781 269 758 q 239 793 247 785 q 223 809 231 801 q 210 823 215 817 q 206 831 206 829 l 206 836 q 219 870 207 853 q 239 894 232 888 l 319 896 q 353 894 328 896 q 406 890 379 892 q 454 885 433 888 q 475 878 475 882 q 476 874 475 876 q 476 872 476 872 q 462 844 475 869 q 433 786 449 819 q 401 719 417 753 q 379 664 386 685 q 370 646 376 660 q 363 629 364 632 q 337 581 356 617 q 292 496 318 544 q 236 392 265 447 q 181 288 207 336 q 136 203 156 239 q 110 154 117 167 q 94 122 103 143 q 76 81 85 101 q 62 45 68 61 q 56 28 56 29 l 56 26 q 56 19 56 26 q 57 10 56 13 z "},"a":{"ha":801,"x_min":57,"x_max":778,"o":"m 65 172 q 82 123 69 147 q 113 76 94 99 q 151 36 131 54 q 192 4 171 18 q 197 3 193 4 q 204 3 201 3 q 226 12 203 3 q 282 33 250 21 q 346 56 314 44 q 393 74 378 68 q 405 78 396 75 q 424 85 414 82 q 444 92 435 89 q 457 97 453 96 q 476 73 465 89 q 497 42 486 57 q 520 15 508 26 q 544 3 532 3 q 554 3 547 3 q 563 4 561 4 l 778 64 l 778 71 q 763 90 774 81 q 739 107 753 99 q 710 124 725 115 q 686 143 696 132 q 667 225 671 183 q 663 306 663 267 l 663 397 q 663 406 663 399 q 662 420 663 413 q 661 435 661 428 q 661 443 661 442 q 660 536 661 496 q 672 617 658 576 q 640 648 665 624 q 553 710 614 672 q 451 770 503 740 q 347 825 400 800 q 332 833 342 828 q 321 838 322 838 l 240 838 q 192 813 219 831 q 140 769 164 796 q 100 708 117 743 q 83 631 83 672 l 83 617 q 97 564 83 589 q 132 517 111 539 q 177 476 153 494 q 222 443 201 457 q 218 438 221 442 q 213 432 215 433 q 193 420 210 429 q 174 408 176 411 q 95 342 126 385 q 57 247 64 299 l 57 240 q 57 204 57 217 q 65 172 57 193 m 254 238 q 248 263 251 246 q 243 282 244 279 q 260 337 243 311 q 305 385 278 363 q 367 427 332 407 q 435 467 401 447 l 429 486 q 400 488 422 486 q 371 490 378 490 q 363 488 369 490 q 349 484 357 486 q 335 480 342 482 q 328 478 329 478 l 304 478 q 266 499 279 489 q 245 524 253 510 q 233 561 238 539 q 221 617 228 583 q 243 644 226 632 q 276 664 260 656 l 300 664 q 329 650 306 661 q 379 626 353 639 q 427 600 406 613 q 449 582 449 588 q 453 571 451 579 q 458 553 456 563 q 461 536 460 544 q 465 525 463 528 q 467 487 465 521 q 469 405 468 453 q 470 304 469 357 q 471 213 471 251 q 460 181 471 192 q 433 167 449 171 q 397 165 417 164 q 361 165 378 165 q 328 166 344 165 q 297 173 311 167 q 272 194 283 179 q 254 238 261 208 z "},"b":{"ha":869,"x_min":56,"x_max":811,"o":"m 158 121 q 351 38 265 68 q 504 -7 436 8 q 510 -8 504 -7 q 518 -8 515 -8 q 553 3 532 -8 q 596 32 574 15 q 639 67 618 49 q 672 97 660 85 q 735 183 708 143 q 778 263 761 224 q 803 344 794 303 q 811 432 811 385 l 811 444 q 807 494 811 468 q 800 560 803 521 q 799 563 800 560 q 797 567 799 565 l 797 571 q 758 635 775 606 q 725 688 740 664 q 694 733 710 713 q 660 768 678 753 q 639 788 653 776 q 611 811 625 800 q 586 830 597 822 q 572 838 575 838 l 550 838 l 386 757 l 365 757 q 356 787 357 772 q 354 819 354 801 q 359 906 354 869 q 373 967 364 942 q 394 1012 382 993 q 422 1046 407 1031 q 407 1076 422 1069 q 360 1082 392 1082 q 308 1077 329 1082 q 257 1057 288 1072 q 238 1043 246 1053 q 218 1033 229 1033 q 191 1042 207 1033 q 156 1063 175 1051 q 118 1084 138 1075 q 82 1093 99 1093 q 63 1091 67 1093 q 56 1081 60 1089 l 56 1079 q 65 1065 56 1074 q 87 1044 75 1056 q 110 1022 99 1033 q 124 1000 121 1010 q 142 953 135 976 q 154 905 150 931 q 160 849 158 879 q 161 779 161 818 q 166 664 161 721 q 174 571 171 607 q 174 528 174 557 q 175 461 175 499 q 175 385 175 425 q 175 310 175 344 l 175 225 q 164 179 175 197 q 153 143 153 161 q 154 133 150 139 q 158 121 158 126 m 379 275 q 378 292 379 274 q 375 341 376 310 q 372 413 374 372 q 371 496 371 453 q 371 536 371 518 q 372 560 371 554 q 370 574 372 563 q 366 598 368 585 q 363 623 364 611 q 361 639 361 635 l 361 640 q 383 663 361 660 q 432 665 404 665 q 456 665 447 665 q 472 662 465 664 q 488 654 479 660 q 511 640 496 649 q 560 590 540 611 q 592 547 579 568 q 616 499 606 525 q 639 432 626 472 q 646 408 642 424 q 653 378 650 393 q 660 353 657 364 q 663 340 663 342 l 663 333 q 658 262 663 296 q 635 190 654 228 q 631 183 633 188 q 628 178 629 178 l 581 178 q 517 196 550 188 q 457 215 485 204 q 408 239 429 225 q 379 275 386 253 z "},"c":{"ha":675,"x_min":39,"x_max":650,"o":"m 63 296 q 76 242 71 263 q 90 203 82 222 q 115 163 99 185 q 161 104 131 140 q 187 75 169 93 q 226 40 204 57 q 272 11 249 24 q 318 -1 296 -1 q 342 1 333 -1 q 356 5 351 3 q 364 9 361 7 q 371 11 367 11 q 505 53 451 40 q 590 72 558 67 q 636 79 622 76 q 650 93 650 82 q 633 115 650 107 q 594 126 615 122 q 551 133 572 131 q 522 139 531 135 q 438 173 479 153 q 361 217 397 193 q 295 271 325 242 q 247 335 265 300 q 219 396 228 369 q 208 444 211 422 q 203 488 204 467 q 201 532 203 508 l 201 589 q 201 598 201 590 q 200 613 200 606 q 199 628 200 621 q 199 636 199 635 q 215 658 208 646 q 226 682 221 671 q 235 700 231 693 q 249 707 240 707 q 267 699 251 707 q 302 678 282 690 q 342 655 322 667 q 372 636 361 643 q 415 617 399 622 q 456 611 432 611 q 508 630 482 611 q 568 682 535 649 q 581 697 574 688 q 594 716 588 707 q 606 732 601 725 q 611 740 611 739 l 604 763 q 553 768 576 763 q 506 785 531 774 q 449 815 481 797 q 371 856 418 832 q 362 856 369 856 q 351 857 354 857 q 312 844 338 857 q 260 814 286 831 q 213 782 235 797 q 188 763 192 767 q 76 593 113 674 q 39 428 39 513 q 40 396 39 410 q 44 368 42 382 q 51 338 47 354 q 63 296 56 321 z "},"d":{"ha":756,"x_min":36,"x_max":738,"o":"m 61 364 q 103 240 81 292 q 156 149 126 189 q 227 74 186 108 q 325 0 268 39 l 360 0 q 428 13 392 0 q 500 42 465 25 q 564 76 535 58 q 608 104 593 93 q 631 126 617 111 q 660 160 644 142 q 689 199 675 179 q 711 232 703 218 q 718 247 714 235 q 726 272 722 258 q 732 297 729 285 q 735 313 735 310 q 737 329 736 315 q 738 347 738 343 q 733 397 738 364 q 720 468 729 431 q 698 542 711 506 q 667 601 685 578 q 660 608 665 603 q 651 619 656 614 q 641 630 646 625 q 635 636 636 635 q 601 681 618 658 q 563 731 585 704 q 513 792 542 758 q 443 868 485 825 q 369 947 394 918 q 332 992 344 976 q 315 1016 319 1008 q 306 1031 311 1024 q 301 1044 304 1035 q 294 1065 299 1054 q 288 1086 290 1076 q 283 1100 285 1096 l 264 1100 q 235 1083 257 1100 q 190 1046 214 1067 q 145 1006 165 1025 q 124 983 125 988 q 134 949 124 967 q 161 911 144 931 q 197 869 178 892 q 236 822 217 847 q 243 806 240 818 q 246 788 246 794 q 178 740 206 761 q 129 695 150 718 q 92 645 108 672 q 63 579 76 618 q 44 528 51 554 q 36 474 36 503 l 36 463 q 41 443 38 457 q 49 414 44 429 q 56 384 53 399 q 61 364 60 369 m 213 443 q 206 468 210 451 q 201 486 201 485 l 201 494 q 225 610 201 558 q 314 706 249 661 q 319 707 314 707 q 349 691 328 707 q 391 655 369 675 q 430 618 413 635 q 447 601 447 601 q 496 554 472 583 q 540 492 519 525 q 578 428 561 460 q 604 371 594 396 q 610 347 604 364 q 617 324 617 331 q 592 222 617 265 q 503 150 567 178 l 479 150 q 373 202 418 168 q 298 274 328 236 q 251 344 268 311 q 226 393 233 378 q 221 415 226 396 q 213 443 215 433 z "},"e":{"ha":653,"x_min":36,"x_max":631,"o":"m 54 294 q 73 239 63 263 q 94 194 83 215 q 117 155 106 174 q 139 115 129 136 q 195 52 164 79 q 264 0 226 25 l 286 0 q 321 7 290 1 q 393 19 351 13 q 480 34 435 26 q 561 46 525 42 q 567 51 564 47 q 571 58 569 56 q 567 74 568 64 q 561 93 565 85 q 460 109 503 93 q 385 146 417 125 q 335 188 354 167 q 307 219 315 208 q 289 241 296 231 q 285 254 282 251 q 294 265 285 254 q 315 291 303 276 q 340 319 328 306 q 356 335 351 332 q 394 374 368 349 q 451 428 421 400 q 511 483 482 456 q 558 526 540 510 q 576 543 575 542 q 593 560 583 550 q 611 581 603 571 q 625 597 619 590 q 629 601 631 603 q 626 613 626 606 q 622 625 625 619 q 560 684 593 653 q 496 744 526 715 q 440 797 465 774 q 403 833 415 821 q 394 840 400 836 q 389 844 389 844 l 376 844 q 288 803 331 821 q 206 751 244 786 q 165 708 183 729 q 129 664 146 688 q 98 611 113 640 q 68 543 83 582 q 47 479 51 515 q 36 404 43 443 q 37 374 36 386 q 40 352 38 363 q 45 328 42 342 q 54 294 49 315 m 293 674 q 302 673 296 674 q 308 671 308 672 l 415 578 q 420 570 418 578 q 422 560 422 563 q 391 512 418 546 q 299 417 364 478 q 264 384 274 392 q 236 376 254 376 q 218 497 218 436 q 224 558 218 526 q 239 615 229 589 q 263 657 249 640 q 293 674 276 674 z "},"f":{"ha":585,"x_min":15,"x_max":560,"o":"m 171 583 q 171 525 171 564 q 171 438 171 486 q 170 334 171 389 q 169 231 169 279 q 169 142 169 182 q 169 85 169 103 q 171 38 169 53 q 176 4 172 24 l 376 4 q 385 18 383 4 q 386 50 386 32 l 386 514 q 381 574 386 546 q 375 638 375 601 l 375 640 q 376 651 375 644 q 381 658 378 658 l 508 658 q 518 672 510 658 q 535 704 526 686 q 551 740 544 722 q 558 768 558 758 q 559 773 558 769 q 560 782 560 776 q 559 790 560 786 q 558 797 558 794 l 367 797 q 351 808 363 797 q 327 835 340 818 q 301 871 314 851 q 278 907 288 890 q 276 914 276 908 l 276 928 q 279 929 278 928 q 282 931 281 931 q 322 912 301 924 q 361 889 342 900 q 399 869 381 878 q 435 860 418 860 q 469 872 451 860 q 505 903 488 885 q 537 942 522 922 q 560 976 551 961 q 551 997 560 989 q 529 1008 542 1004 q 503 1015 517 1013 q 478 1022 489 1018 q 444 1036 464 1028 q 406 1052 425 1044 q 372 1065 386 1060 q 354 1071 357 1071 q 317 1054 347 1071 q 244 1015 286 1038 q 153 968 201 992 q 64 931 106 944 q 73 916 63 932 q 96 879 83 900 q 119 839 108 858 q 131 814 131 819 l 131 813 q 128 806 131 810 q 124 803 126 803 l 31 803 q 21 790 24 803 q 15 768 18 776 l 15 688 q 17 673 15 685 q 19 658 18 661 l 139 658 q 148 651 143 658 q 158 634 153 644 q 167 610 164 624 q 171 583 171 596 z "},"g":{"ha":778,"x_min":44,"x_max":725,"o":"m 75 -132 q 91 -159 75 -143 q 128 -190 107 -175 q 168 -215 149 -204 q 194 -231 188 -226 q 240 -250 219 -243 q 279 -261 260 -257 q 319 -266 299 -265 q 365 -267 340 -267 q 402 -266 388 -267 q 430 -265 417 -265 q 457 -261 443 -264 q 490 -254 471 -258 q 577 -217 542 -242 q 638 -162 613 -192 q 677 -105 663 -133 q 701 -57 692 -76 q 713 -24 708 -36 q 720 -1 718 -12 q 723 22 722 10 q 724 56 724 35 l 724 71 q 717 122 724 85 q 699 208 710 160 q 677 308 689 256 q 656 406 665 361 q 673 537 656 475 q 725 660 690 599 q 710 684 719 672 q 672 713 701 696 q 585 759 643 731 q 421 833 526 788 q 413 834 419 833 q 404 835 407 835 q 315 813 360 835 q 235 763 271 790 q 177 711 200 735 q 151 683 154 688 q 127 654 136 667 q 110 628 118 642 q 94 594 103 614 q 72 544 86 575 q 60 507 65 524 q 51 474 54 490 q 46 440 47 458 q 44 394 44 421 q 46 363 44 376 q 50 335 47 350 q 58 302 53 321 q 71 256 63 283 q 84 207 79 225 q 95 174 89 189 q 110 144 101 160 q 138 106 119 129 q 162 69 147 86 q 192 38 176 51 q 225 17 208 25 q 256 10 242 10 q 267 10 258 10 q 278 13 275 11 q 336 41 303 25 q 400 72 369 57 q 451 96 431 86 q 472 106 472 106 q 491 91 482 106 q 508 56 500 76 q 522 14 515 36 q 531 -22 528 -8 q 524 -76 531 -49 q 504 -124 518 -103 q 469 -160 490 -146 q 417 -174 447 -174 q 383 -169 400 -174 q 349 -151 365 -165 q 318 -108 333 -136 q 290 -33 303 -81 l 256 -33 q 211 -51 242 -37 q 150 -80 181 -65 q 97 -108 119 -94 q 74 -126 74 -122 q 74 -128 74 -126 q 75 -132 74 -131 m 238 365 q 227 402 231 388 q 221 428 224 417 q 217 451 218 440 q 217 478 217 463 l 217 486 q 222 543 217 517 q 237 592 228 569 q 259 638 246 615 q 289 683 272 660 l 324 683 q 391 659 351 676 q 467 622 431 642 q 530 584 504 603 q 556 556 556 565 q 499 440 521 494 q 476 311 476 385 l 476 294 q 477 256 476 281 q 478 217 478 231 l 478 208 q 461 187 478 197 q 429 174 444 176 l 383 174 q 335 202 357 188 q 297 238 314 217 q 265 290 279 260 q 238 365 250 321 z "},"h":{"ha":857,"x_min":26,"x_max":832,"o":"m 375 -200 q 388 -235 379 -217 q 411 -267 396 -253 q 451 -291 426 -282 q 513 -300 476 -300 q 583 -290 553 -300 q 641 -257 614 -279 q 695 -199 668 -235 q 757 -114 722 -164 q 801 13 788 -53 q 832 164 815 79 q 828 198 829 176 q 826 242 826 219 q 825 285 825 265 q 825 315 825 306 q 812 358 819 332 q 796 416 804 385 q 778 481 788 447 q 761 546 769 515 q 719 612 750 569 q 647 708 688 654 q 624 731 640 715 q 592 762 608 746 q 560 790 575 778 q 539 801 544 801 l 517 801 l 365 719 l 344 719 q 338 738 343 724 q 332 754 332 751 q 332 794 332 769 q 333 847 332 821 q 336 896 333 874 q 343 928 339 918 q 353 956 347 944 q 367 976 360 968 q 383 992 375 985 q 401 1010 392 1000 q 419 1020 408 1017 q 429 1032 429 1024 q 421 1049 429 1043 q 401 1056 413 1054 q 374 1058 389 1058 q 347 1057 360 1057 q 290 1056 307 1057 q 253 1044 272 1054 q 220 1023 238 1038 q 193 1008 203 1008 q 169 1018 185 1008 q 140 1032 153 1028 q 83 1053 111 1047 q 26 1058 56 1058 q 31 1045 28 1056 q 38 1032 35 1035 q 61 997 51 1010 q 78 972 71 983 q 92 946 85 960 q 107 910 99 932 q 110 883 108 894 q 115 856 113 871 q 117 823 117 842 q 118 778 118 804 q 118 747 118 771 q 117 697 118 724 q 117 644 117 669 q 117 615 117 621 q 120 599 117 613 q 126 581 124 585 l 117 25 q 122 10 117 18 q 135 3 128 3 l 332 3 l 336 25 q 337 85 336 44 q 338 178 338 126 q 340 286 339 229 q 341 394 340 343 q 343 485 342 444 q 344 546 344 526 l 344 558 q 350 606 344 594 q 383 617 356 617 q 507 553 447 617 q 619 385 567 489 q 632 353 624 379 q 649 297 640 326 q 663 241 657 267 q 667 211 668 215 q 671 192 669 206 q 673 162 672 178 q 674 131 674 146 q 674 107 674 115 q 665 22 669 54 q 646 -44 660 -10 q 615 -90 631 -75 q 576 -104 600 -104 q 544 -98 556 -104 q 520 -85 532 -92 q 493 -72 508 -78 q 450 -65 478 -65 q 419 -66 432 -65 q 398 -72 407 -67 q 382 -90 389 -78 q 367 -125 375 -103 q 364 -136 365 -128 q 363 -147 363 -144 l 363 -150 q 367 -174 363 -156 q 375 -200 372 -192 z "},"i":{"ha":564,"x_min":10,"x_max":551,"o":"m 97 181 q 112 148 97 168 q 148 105 126 128 q 194 59 169 82 q 241 18 219 36 q 277 -11 263 0 q 290 -22 292 -22 q 297 -23 290 -22 q 306 -24 303 -24 q 316 -23 308 -24 q 325 -22 324 -22 q 399 -6 360 -14 q 473 10 439 3 q 529 24 507 18 q 551 36 551 31 q 542 63 551 54 q 519 75 533 71 q 489 82 506 79 q 456 93 472 85 q 419 119 433 107 q 396 142 406 131 q 379 167 386 154 q 367 199 372 181 q 358 253 360 221 q 356 349 356 286 l 356 371 q 358 420 356 388 q 363 485 360 453 q 369 543 367 518 q 371 568 371 568 q 383 586 372 572 q 396 603 393 600 q 406 608 397 604 q 417 614 415 613 q 405 632 417 614 q 373 678 393 650 q 326 740 353 707 q 272 800 300 772 l 226 800 q 206 791 229 800 q 150 769 183 782 q 80 743 117 757 q 18 718 43 729 q 13 714 15 718 q 10 707 10 710 l 10 706 q 24 684 10 689 q 56 678 38 679 q 91 674 74 676 q 114 661 108 672 q 133 638 119 656 q 150 614 146 619 l 150 610 q 153 598 151 608 q 156 574 154 588 q 160 549 158 561 q 161 533 161 538 l 161 406 q 160 317 161 353 q 154 259 160 282 q 137 222 149 236 q 103 197 125 208 q 99 192 101 196 q 96 186 96 188 q 96 183 96 186 q 97 181 96 182 m 188 1065 q 184 1054 186 1063 q 181 1043 182 1046 q 190 1001 185 1028 q 201 944 196 974 q 212 891 207 915 q 219 857 217 867 l 244 857 q 277 886 251 857 q 331 951 303 915 q 380 1015 358 986 q 401 1043 401 1043 q 401 1048 400 1044 q 399 1054 401 1051 q 372 1066 392 1057 q 346 1078 353 1075 l 335 1078 q 313 1071 322 1074 q 296 1067 304 1068 q 276 1065 288 1065 q 244 1064 264 1064 q 210 1064 225 1064 q 188 1065 194 1064 z "},"j":{"ha":600,"x_min":1,"x_max":557,"o":"m 8 -183 q 67 -231 40 -211 q 120 -263 94 -250 q 171 -285 146 -276 q 225 -300 196 -294 q 257 -306 244 -303 q 279 -310 269 -308 q 299 -312 289 -311 q 322 -312 308 -312 q 399 -303 365 -312 q 455 -283 432 -294 q 490 -263 478 -272 q 501 -253 501 -254 q 519 -232 510 -244 q 538 -206 529 -219 q 551 -180 546 -192 q 557 -161 557 -168 l 557 -149 q 556 -126 557 -135 q 554 -109 556 -117 q 551 -92 553 -101 q 544 -68 549 -83 q 530 -23 538 -40 q 515 13 522 -6 q 499 53 507 31 q 481 117 490 76 q 481 190 481 138 q 481 302 481 243 q 483 414 482 361 q 483 488 483 467 l 483 493 q 490 547 483 525 q 511 592 496 568 q 522 597 514 593 q 532 603 531 601 l 532 608 q 530 612 531 610 q 529 614 529 614 q 485 668 510 638 q 439 725 461 699 q 399 769 417 751 q 376 788 382 788 l 331 788 l 115 731 q 107 720 113 729 q 99 707 101 711 l 99 701 q 106 692 101 699 q 117 683 110 686 q 125 682 118 683 q 140 678 132 681 q 156 675 149 676 q 165 672 164 674 q 215 638 194 657 q 247 602 235 618 q 263 576 258 586 q 264 568 267 565 q 265 538 264 563 q 266 485 265 514 q 267 427 267 456 q 268 383 268 399 l 268 175 q 273 109 268 133 q 286 69 278 85 q 304 42 294 54 q 325 13 314 31 q 338 -10 333 -1 q 345 -28 342 -19 q 351 -46 349 -36 q 358 -69 354 -56 q 365 -89 361 -76 q 368 -103 368 -101 l 368 -106 q 360 -128 368 -112 q 340 -162 351 -144 q 315 -194 328 -181 q 293 -207 301 -207 q 272 -208 292 -207 q 242 -208 253 -208 q 132 -189 182 -208 q 19 -137 82 -169 q 16 -137 18 -137 q 13 -136 14 -136 q 4 -144 7 -136 q 1 -161 1 -153 q 5 -171 1 -164 q 8 -183 8 -178 m 292 1054 q 317 929 303 992 q 342 822 331 867 l 367 822 q 377 836 367 822 q 403 871 388 850 q 438 917 419 892 q 471 966 456 943 q 497 1007 486 989 q 507 1031 507 1025 l 504 1042 q 480 1044 497 1043 q 444 1048 463 1046 q 408 1052 425 1050 q 383 1054 390 1054 l 338 1054 l 292 1054 z "},"k":{"ha":919,"x_min":40,"x_max":906,"o":"m 546 249 q 572 168 557 214 q 603 80 588 122 q 631 7 618 38 q 647 -29 643 -24 l 658 -29 q 776 1 731 -12 q 847 26 821 15 q 885 42 874 36 q 903 51 897 49 q 897 73 906 64 q 876 90 889 82 q 848 105 863 97 q 825 121 833 113 q 793 169 810 136 q 758 237 776 201 q 717 302 739 272 q 671 340 696 332 q 660 345 668 342 q 644 353 653 349 q 628 360 636 357 q 618 364 621 363 l 615 375 q 719 455 693 404 q 746 565 746 506 l 746 574 q 738 619 746 596 q 720 661 731 642 q 700 694 710 681 q 686 711 690 707 q 595 781 632 756 q 519 806 558 806 q 507 805 515 806 q 497 803 499 804 l 378 733 l 344 733 q 344 740 344 731 q 342 766 343 750 q 340 801 340 782 q 339 838 339 821 l 339 883 q 342 933 339 913 q 353 969 346 953 q 372 1001 360 986 q 399 1035 383 1017 q 394 1056 399 1046 q 378 1069 389 1065 l 332 1069 q 263 1050 296 1065 q 197 1011 229 1035 q 125 1053 167 1036 q 40 1071 83 1071 q 45 1058 42 1068 q 51 1046 49 1049 q 76 1011 63 1028 q 101 976 89 994 q 121 935 113 957 q 129 885 129 913 q 131 811 129 864 q 134 699 132 758 q 138 588 136 640 q 140 514 139 535 q 142 501 140 511 q 144 479 143 490 q 147 458 146 468 q 149 444 149 447 q 149 401 149 431 q 151 336 150 372 q 153 260 151 300 q 155 183 154 219 q 156 118 156 147 q 157 75 157 89 l 175 6 l 360 6 q 361 18 361 6 q 361 40 361 32 q 361 71 361 46 q 360 126 361 97 q 360 181 360 156 q 360 214 360 207 l 360 294 q 368 307 361 299 q 378 318 375 315 l 458 318 q 478 308 464 315 q 508 291 493 301 q 534 269 522 281 q 546 249 546 258 m 351 450 q 347 496 349 468 q 342 572 344 524 q 342 587 342 578 q 343 603 343 596 l 343 607 q 358 624 353 617 q 369 635 363 631 q 390 641 376 639 q 432 643 404 643 q 500 627 471 643 q 544 560 529 611 q 551 534 547 551 q 556 514 554 517 q 549 499 553 511 q 540 473 544 486 q 531 450 535 460 q 528 444 528 440 q 486 423 504 431 q 444 410 468 415 l 375 410 q 361 423 363 417 q 351 450 360 429 z "},"l":{"ha":563,"x_min":35,"x_max":543,"o":"m 63 183 l 63 182 q 78 146 63 168 q 121 97 94 124 q 179 44 147 71 q 243 -6 211 17 l 261 -7 q 270 -6 264 -7 q 278 -6 276 -6 q 380 16 332 6 q 463 35 428 26 q 520 51 499 44 q 542 64 542 58 q 543 75 543 68 q 536 92 543 86 q 519 101 529 97 q 496 106 508 104 q 472 110 483 107 q 409 143 435 122 q 347 203 383 164 q 342 226 344 210 q 335 258 339 242 q 329 289 332 275 q 324 306 326 303 l 329 444 q 328 457 329 447 q 326 478 328 467 q 324 501 325 489 q 324 519 324 513 l 324 524 l 324 525 l 324 536 q 324 576 324 550 q 326 633 325 603 q 329 695 328 664 q 332 751 331 726 l 333 792 q 340 861 335 829 q 358 923 346 893 q 393 983 371 953 q 450 1047 415 1013 l 446 1088 q 417 1086 429 1088 q 394 1082 406 1085 q 368 1074 382 1079 q 332 1058 354 1068 q 317 1048 329 1057 q 288 1026 304 1039 q 253 1000 271 1014 q 222 976 235 986 q 156 1033 185 1011 q 104 1066 126 1054 q 65 1081 82 1078 q 35 1085 49 1085 l 35 1083 q 47 1053 35 1071 q 75 1024 60 1035 q 101 988 92 1004 q 114 956 110 972 q 119 919 118 939 q 121 875 121 900 l 121 815 l 111 490 q 118 425 118 465 q 114 338 118 392 l 113 310 q 98 248 110 274 q 60 201 86 222 q 62 192 61 199 q 63 183 63 186 z "},"m":{"ha":1454,"x_min":44,"x_max":1413,"o":"m 1050 103 q 1067 57 1058 79 q 1088 16 1076 35 q 1113 -14 1100 -3 q 1142 -25 1126 -25 q 1184 -20 1146 -25 q 1268 -5 1222 -15 q 1356 21 1314 6 q 1413 57 1399 36 q 1401 69 1404 65 q 1382 81 1399 72 q 1355 90 1372 85 q 1319 105 1338 94 q 1284 135 1301 115 q 1257 192 1267 156 q 1249 249 1250 214 q 1244 350 1247 285 q 1244 359 1244 354 q 1243 369 1243 364 q 1244 385 1243 372 q 1245 410 1244 397 q 1246 435 1246 424 q 1246 450 1246 447 q 1240 487 1246 469 q 1233 532 1233 504 q 1236 600 1233 568 q 1249 647 1239 632 q 1262 665 1251 650 q 1274 682 1272 679 q 1251 708 1274 693 q 1195 739 1229 722 q 1120 773 1161 756 q 1042 810 1079 790 l 996 810 q 966 797 988 807 q 917 771 944 786 q 859 738 889 756 q 806 706 829 721 q 797 703 803 704 q 788 703 790 703 q 760 715 771 703 q 738 740 750 728 q 733 744 735 743 q 728 747 731 744 q 672 790 700 769 q 622 821 644 810 l 611 821 q 547 783 582 804 q 479 743 511 763 q 424 707 447 724 q 394 682 400 690 q 376 699 383 688 q 363 725 369 711 q 350 753 357 739 q 335 775 343 767 q 318 794 331 781 q 301 810 306 807 l 290 810 l 53 671 q 47 665 50 669 q 44 658 44 661 l 44 657 q 63 634 44 642 q 101 619 81 626 q 140 603 122 613 q 158 578 158 594 q 163 562 158 576 q 171 539 168 547 q 191 429 186 483 q 196 319 196 375 l 193 161 l 193 46 q 192 40 192 46 q 193 28 192 31 l 199 11 q 205 4 200 8 q 213 0 210 0 l 399 0 l 407 11 l 407 28 q 407 93 407 51 q 406 186 407 136 q 404 289 406 236 q 401 388 403 342 q 398 470 400 435 q 393 519 396 506 q 392 546 393 528 q 392 567 392 564 q 400 578 392 571 q 420 593 408 585 q 445 610 432 601 q 468 624 458 618 q 485 625 471 625 q 506 625 499 625 q 540 622 528 625 q 559 609 551 618 q 572 585 567 600 q 583 549 576 571 q 601 465 594 506 q 607 382 607 424 l 607 369 q 608 331 607 357 q 608 271 608 304 q 608 201 608 239 q 608 132 608 165 q 608 74 608 100 q 608 35 608 47 l 615 11 l 824 11 q 824 53 824 11 q 825 154 825 96 q 825 276 825 214 q 825 381 825 339 q 824 390 825 382 q 823 406 824 397 q 822 424 822 415 q 821 439 821 433 q 812 524 814 478 q 810 601 810 569 q 819 613 810 607 q 843 626 829 619 q 873 638 857 632 q 901 647 889 643 l 913 647 q 953 638 938 642 q 981 626 969 633 q 999 606 992 618 q 1015 575 1007 594 q 1029 477 1024 532 q 1035 360 1035 422 l 1033 208 q 1039 177 1038 189 q 1041 155 1040 165 q 1044 133 1042 144 q 1050 103 1046 121 z "},"n":{"ha":985,"x_min":33,"x_max":950,"o":"m 611 104 q 630 51 622 74 q 665 0 638 28 q 684 -12 676 -11 q 711 -12 692 -12 q 726 -12 717 -12 q 738 -11 735 -11 l 942 47 q 947 51 944 47 q 950 58 950 56 q 940 90 950 82 q 913 102 929 97 q 874 116 896 107 q 832 151 853 125 q 811 174 817 161 q 804 199 806 186 q 803 226 803 213 q 803 256 804 240 q 801 330 803 290 q 797 406 799 369 q 792 469 794 442 q 790 510 790 497 l 790 556 l 790 563 q 793 616 790 597 q 800 647 796 635 q 810 668 804 658 q 821 694 815 678 q 818 706 821 700 q 815 718 815 713 q 776 737 804 724 q 715 765 747 750 q 655 792 683 779 q 615 811 626 806 q 590 822 596 819 q 565 824 585 824 q 554 823 563 824 q 543 822 546 822 q 494 792 521 808 q 444 760 468 775 q 401 733 419 744 q 375 718 382 721 q 353 739 360 724 q 338 764 347 754 q 312 801 325 788 q 290 814 299 814 q 265 800 289 814 q 209 769 240 786 q 147 733 178 751 q 101 707 115 715 q 88 698 97 704 q 67 684 78 692 q 47 669 56 676 q 33 660 38 663 l 33 658 q 40 634 33 640 q 58 626 47 628 q 81 622 68 624 q 103 614 93 621 q 138 591 126 606 q 155 562 150 576 q 160 538 160 547 q 160 533 160 529 q 175 396 168 481 q 182 163 182 311 l 182 35 q 188 13 182 25 q 201 0 193 0 l 388 0 l 396 13 q 388 216 390 117 q 385 429 385 315 q 383 444 385 432 q 380 469 382 456 q 376 494 378 482 q 374 510 374 507 l 374 556 l 374 561 q 378 608 374 590 q 389 625 382 625 q 411 635 399 631 q 435 643 424 640 q 456 648 447 646 q 468 650 465 650 q 527 628 497 650 q 575 579 557 606 q 578 551 575 574 q 584 502 581 528 q 590 454 588 476 q 593 429 593 432 q 594 373 593 413 q 597 289 596 333 q 599 206 599 244 q 600 151 600 167 q 606 128 601 146 q 611 104 610 110 z "},"o":{"ha":835,"x_min":60,"x_max":772,"o":"m 86 326 q 138 199 101 256 q 233 82 174 142 q 287 42 260 58 q 361 0 314 25 q 394 -11 381 -10 q 444 -12 408 -12 q 496 -12 476 -12 q 533 -6 515 -12 q 573 15 550 0 q 635 58 596 29 q 668 95 650 76 q 703 134 686 114 q 734 176 721 154 q 751 221 747 197 q 756 242 753 228 q 763 270 760 256 q 769 297 767 285 q 772 313 772 310 l 772 394 q 769 453 772 431 q 759 494 765 476 q 744 528 753 511 q 725 568 735 544 q 689 642 708 610 q 645 701 669 675 q 590 751 621 728 q 522 799 560 775 q 498 813 513 806 q 468 824 483 819 q 440 832 453 829 q 422 835 428 835 q 327 820 371 835 q 250 785 283 806 q 194 746 217 765 q 163 718 171 726 q 126 669 144 694 q 94 619 108 644 q 69 566 79 593 q 60 510 60 539 q 63 462 60 489 q 69 409 65 435 q 78 361 74 383 q 86 326 83 339 m 185 511 q 183 517 185 514 q 182 521 182 521 q 185 560 182 538 q 197 603 189 582 q 217 640 204 624 q 249 660 229 656 q 281 672 268 671 q 317 674 293 674 q 358 669 338 674 q 399 653 378 664 q 446 624 421 642 q 503 579 471 606 q 533 542 513 565 q 574 493 553 518 q 611 444 594 468 q 631 406 628 421 q 638 390 633 403 q 646 363 642 378 q 653 333 650 347 q 656 314 656 319 l 656 313 q 658 290 658 308 q 658 267 658 274 q 648 225 656 246 q 626 188 640 204 q 592 160 613 171 q 540 150 571 150 q 420 176 476 150 q 311 267 364 203 q 273 306 290 278 q 241 370 256 335 q 213 443 226 406 q 185 511 200 481 z "},"p":{"ha":933,"x_min":25,"x_max":903,"o":"m 185 -243 l 190 -264 q 204 -262 194 -264 q 224 -260 214 -261 q 244 -257 235 -258 q 257 -254 253 -256 q 280 -244 265 -251 q 308 -228 294 -236 q 334 -213 322 -219 q 349 -207 346 -207 q 372 -215 357 -207 q 401 -231 386 -222 q 431 -247 417 -239 q 454 -254 446 -254 q 474 -255 456 -254 q 500 -256 492 -256 q 530 -255 515 -256 q 556 -243 544 -254 q 554 -240 554 -243 l 554 -236 q 544 -223 554 -235 q 521 -199 533 -211 q 498 -175 508 -186 q 486 -161 488 -164 q 479 -145 483 -158 q 471 -117 475 -132 q 464 -87 467 -101 q 461 -69 461 -74 q 457 -20 458 -50 q 456 33 456 10 q 456 59 456 49 q 458 69 457 69 l 493 69 l 617 0 q 623 -1 617 0 q 632 -1 629 -1 q 706 28 667 -1 q 781 99 746 58 q 842 180 817 139 q 872 243 868 221 q 888 288 882 267 q 897 331 893 308 q 901 379 900 353 q 903 440 903 406 q 895 481 903 453 q 878 540 888 508 q 858 599 868 571 q 844 638 849 626 q 803 721 829 678 q 731 799 776 764 q 698 824 713 814 q 675 835 683 835 q 668 835 672 835 q 664 833 664 835 l 451 718 q 434 735 443 718 q 416 774 425 753 q 399 813 407 794 q 386 833 390 831 l 363 833 l 103 683 q 99 678 101 682 q 94 672 96 674 q 113 651 94 660 q 152 635 131 643 q 192 617 174 626 q 210 590 210 607 q 218 571 213 588 q 228 534 224 554 q 238 497 233 514 q 242 475 242 479 q 240 447 242 465 q 231 429 239 429 q 215 435 224 429 q 196 447 206 440 q 174 460 186 454 q 150 465 163 465 q 144 465 147 465 q 140 464 140 464 l 25 301 l 28 290 q 101 280 63 286 q 172 260 139 274 q 225 223 204 246 q 246 164 246 200 l 246 163 q 248 145 247 160 q 249 107 249 131 q 249 56 249 85 q 249 -4 249 26 q 249 -70 249 -47 q 250 -106 250 -93 q 248 -126 250 -118 q 240 -150 246 -135 q 219 -196 235 -171 q 185 -243 204 -221 m 461 306 q 458 315 460 308 q 457 324 457 321 l 457 325 q 450 439 450 383 q 442 544 450 496 q 440 571 440 553 q 440 590 440 589 q 463 621 450 610 q 497 638 475 632 l 544 638 q 573 627 557 635 q 606 609 589 619 q 636 585 622 599 q 658 556 650 571 q 691 512 679 528 q 710 483 703 496 q 722 458 718 471 q 731 425 726 446 q 740 393 736 406 q 745 370 743 381 q 748 348 747 360 q 749 318 749 336 l 749 310 q 744 261 749 286 q 735 215 740 236 q 722 180 729 194 q 710 163 715 165 q 703 162 708 163 q 694 161 697 161 q 660 174 688 161 q 599 206 632 188 q 537 241 567 224 q 496 267 507 258 q 472 285 478 278 q 461 306 465 293 z "},"q":{"ha":807,"x_min":21,"x_max":767,"o":"m 408 -218 l 415 -246 q 498 -242 454 -246 q 563 -231 542 -237 q 599 -215 578 -224 q 625 -206 621 -206 q 643 -211 632 -206 q 665 -224 654 -217 q 687 -236 676 -231 q 704 -242 697 -242 q 717 -242 708 -242 q 736 -244 726 -243 q 755 -245 746 -244 q 767 -246 764 -246 q 762 -232 765 -243 q 756 -218 758 -221 q 736 -192 746 -204 q 717 -163 726 -181 q 700 -118 708 -146 q 685 -44 692 -90 q 684 12 685 -26 q 683 98 683 50 q 681 199 682 146 q 680 299 681 251 q 678 385 679 347 q 678 442 678 424 q 674 497 678 469 q 669 550 669 524 l 669 557 q 672 613 669 583 q 679 650 675 642 q 688 661 679 653 q 696 672 696 669 q 686 707 696 690 q 546 774 619 743 q 408 835 472 806 q 376 844 388 842 q 343 847 364 847 q 288 828 328 847 q 196 765 249 808 q 118 692 151 729 q 57 603 85 656 q 25 520 29 567 q 21 415 21 474 l 21 394 q 28 344 21 372 q 47 291 36 317 q 67 243 57 265 q 83 210 78 221 q 173 95 119 142 q 299 13 226 49 l 310 13 l 442 82 l 463 82 q 467 71 464 79 q 471 60 471 63 l 471 -22 q 467 -60 468 -40 q 466 -99 467 -81 q 464 -131 465 -118 q 458 -149 463 -144 q 449 -162 456 -153 q 434 -183 442 -172 q 419 -204 426 -194 q 408 -218 411 -214 m 207 388 q 188 458 194 428 q 182 522 182 489 l 182 525 q 201 615 182 576 q 214 635 206 624 q 231 658 222 647 q 245 677 239 669 q 253 685 251 685 l 276 685 q 310 674 285 685 q 363 648 336 663 q 413 620 390 633 q 438 603 435 607 q 440 591 438 599 q 445 575 442 583 q 451 558 449 567 q 453 546 453 550 q 464 432 463 501 q 468 279 465 363 q 465 222 468 243 q 449 186 463 200 l 367 186 q 311 217 338 196 q 264 267 285 239 q 228 326 243 294 q 207 388 214 357 z "},"r":{"ha":774,"x_min":24,"x_max":750,"o":"m 153 179 q 165 151 157 164 q 185 121 172 138 q 220 83 199 104 q 274 35 242 63 q 306 9 292 19 q 329 -1 321 -1 q 357 6 329 -1 q 417 22 385 14 q 472 38 449 31 q 490 46 496 46 q 508 54 499 50 q 528 63 518 58 q 544 72 538 68 q 550 81 550 76 q 537 106 550 100 q 503 117 524 113 q 458 131 483 122 q 411 163 433 139 q 405 192 408 175 q 397 226 401 210 q 387 257 392 243 q 379 278 382 271 q 379 292 379 281 q 380 318 379 304 q 381 343 381 332 q 381 358 381 356 q 380 410 381 383 q 376 463 379 438 q 368 499 371 479 q 364 535 365 518 q 363 567 363 553 q 363 590 363 582 q 376 601 365 593 q 399 617 386 608 q 428 631 413 625 q 456 638 443 638 q 483 610 472 638 q 503 543 494 582 q 517 463 511 504 q 531 393 524 421 l 544 393 q 586 407 553 393 q 656 438 619 421 q 721 469 692 454 q 750 486 750 483 l 750 497 q 731 520 747 504 q 700 543 715 536 q 693 567 696 553 q 687 596 690 582 q 681 621 683 610 q 674 636 678 632 q 672 657 674 639 q 671 688 671 675 l 671 731 l 671 821 q 667 839 668 825 q 664 856 665 853 l 638 856 l 376 706 l 365 706 q 315 822 338 786 q 278 857 292 857 q 257 848 271 857 q 227 828 243 839 q 196 804 211 817 q 171 786 181 792 q 130 763 154 775 q 83 738 106 750 q 43 714 60 725 q 24 694 26 703 q 33 672 24 678 q 56 664 43 667 q 83 658 69 661 q 106 647 97 656 q 140 614 128 636 q 151 567 151 592 l 151 543 q 155 509 151 528 q 167 474 158 490 q 167 450 167 469 q 167 410 167 432 q 169 367 168 389 q 169 336 169 346 q 166 285 169 306 q 158 251 163 265 q 149 226 153 236 q 146 208 146 217 q 149 196 146 207 q 153 179 151 185 z "},"s":{"ha":729,"x_min":39,"x_max":689,"o":"m 54 113 q 136 102 100 108 q 225 78 172 96 q 265 58 236 72 q 318 31 294 44 q 345 16 331 24 q 374 1 360 8 q 401 -12 389 -7 q 421 -17 414 -17 q 498 5 456 -17 q 578 58 540 26 q 644 127 617 90 q 678 193 672 164 q 685 219 681 201 q 689 239 689 236 l 640 413 q 625 435 640 418 q 592 469 610 451 q 558 502 574 488 q 543 517 543 517 l 538 528 q 536 535 536 531 q 536 540 536 539 q 539 544 536 540 q 544 551 542 549 q 629 660 600 625 q 658 706 658 696 q 644 719 658 715 q 612 724 631 722 q 574 724 593 725 q 543 725 554 724 q 517 735 542 725 q 456 758 492 744 q 383 788 421 772 q 321 818 346 804 l 310 818 q 249 795 279 808 q 189 760 219 782 q 127 706 158 739 q 64 621 96 672 q 55 585 58 610 q 51 544 51 560 l 51 540 q 56 520 51 533 q 64 494 60 507 q 72 467 68 481 q 76 447 76 454 q 94 419 85 439 q 115 389 104 400 q 132 373 121 383 q 153 352 143 363 q 172 334 164 342 q 179 326 179 326 l 179 321 q 146 277 169 304 q 98 225 122 250 q 56 181 74 200 q 42 158 39 161 q 45 138 42 151 q 54 113 49 124 m 238 239 q 246 250 238 240 q 265 273 254 260 q 288 299 276 286 q 307 321 300 313 l 353 367 q 369 376 360 374 q 385 379 378 379 q 419 370 399 379 q 463 346 440 361 q 510 309 486 331 q 554 263 533 288 q 571 240 565 251 q 576 228 576 229 q 572 187 576 203 q 551 147 567 171 q 538 127 544 132 q 525 122 532 122 q 495 131 517 122 q 447 153 474 140 q 388 181 419 167 q 329 204 357 194 q 301 213 317 208 q 273 222 286 217 q 249 231 260 226 q 238 239 239 235 m 175 592 q 174 594 174 593 q 174 597 174 597 l 174 603 q 178 649 174 635 q 197 679 182 664 l 208 679 q 297 638 260 653 q 362 615 335 624 q 410 603 389 607 q 451 597 431 600 q 452 595 451 597 q 454 592 453 593 l 454 586 q 438 565 454 582 q 402 529 422 547 q 364 497 382 511 q 343 482 346 482 q 334 481 342 482 q 322 481 326 481 q 278 492 303 481 q 230 521 253 504 q 191 557 207 538 q 175 592 175 576 z "},"t":{"ha":635,"x_min":22,"x_max":621,"o":"m 140 156 q 155 121 139 142 q 193 78 171 100 q 239 36 215 56 q 278 6 263 17 q 297 -6 281 3 q 318 -15 313 -14 l 329 -15 q 397 -2 351 -12 q 487 21 442 8 q 563 46 532 33 q 588 65 594 58 q 580 84 589 78 q 557 93 571 90 q 528 97 543 96 q 500 100 513 97 q 468 112 485 103 q 437 131 451 121 q 413 151 422 142 q 404 168 404 161 l 367 331 l 375 643 q 382 663 376 651 q 390 678 388 675 l 529 679 l 621 794 l 614 824 l 406 822 q 392 837 399 822 q 386 851 386 851 l 390 933 l 394 1024 q 392 1035 393 1026 q 390 1047 392 1044 l 375 1047 q 296 968 338 1008 q 214 890 254 928 q 138 819 174 851 q 76 761 101 786 q 36 722 50 736 q 26 708 22 708 q 27 693 26 704 q 28 679 28 682 l 160 681 q 172 669 164 681 q 179 651 179 657 q 180 644 181 649 q 179 640 179 640 l 178 599 q 176 572 176 585 q 178 558 176 561 l 174 493 q 170 382 171 419 q 170 325 169 344 q 172 293 171 306 q 171 257 172 281 q 158 211 169 229 q 139 165 146 193 q 139 161 139 165 q 140 156 139 158 z "},"u":{"ha":943,"x_min":44,"x_max":906,"o":"m 107 108 q 158 77 128 93 q 220 47 189 61 q 280 24 251 33 q 326 15 308 15 q 336 16 329 15 q 343 17 343 17 l 529 122 q 534 123 531 122 q 540 124 538 124 q 568 107 554 124 q 594 71 582 90 q 615 35 606 51 q 632 18 625 18 l 656 18 q 712 33 672 22 q 792 54 751 43 q 863 75 832 65 q 894 89 894 85 q 901 94 897 90 q 906 100 904 99 q 885 119 901 110 q 851 138 869 128 q 816 158 832 147 q 796 182 800 168 l 765 332 q 769 446 767 381 q 774 571 772 511 q 778 674 776 631 q 778 724 779 718 q 770 765 779 743 q 749 804 761 786 q 724 835 736 822 q 706 851 711 849 l 694 851 l 465 722 q 460 717 463 721 q 456 711 457 713 q 477 688 461 694 q 510 672 493 681 q 543 647 528 663 q 563 596 558 631 q 571 517 572 563 q 563 389 569 471 q 560 353 561 369 q 557 331 558 338 q 564 297 561 317 q 567 275 567 278 q 549 232 564 247 q 501 201 535 217 q 473 191 483 193 q 442 189 463 189 q 388 200 407 189 q 360 225 369 211 q 351 252 351 239 q 350 271 350 265 q 342 335 343 296 q 344 403 342 375 l 346 433 l 350 490 q 357 624 356 572 q 356 708 358 675 q 349 758 354 740 q 336 792 343 776 q 327 804 333 796 q 314 822 321 813 q 300 838 307 831 q 290 849 293 846 l 267 849 q 238 829 261 844 q 190 798 215 814 q 144 769 165 782 q 124 756 124 756 q 101 740 115 749 q 75 724 88 732 q 53 708 63 715 q 44 697 44 700 l 44 690 q 59 676 44 683 q 92 659 74 669 q 128 635 111 649 q 147 600 144 621 q 149 585 149 596 q 151 571 150 574 q 143 431 146 494 q 140 322 140 368 q 140 251 139 276 q 140 224 140 225 q 133 193 133 208 q 126 165 133 178 q 123 159 126 164 q 115 149 119 154 q 106 138 110 143 q 101 131 101 132 q 102 120 101 128 q 107 108 103 113 z "},"v":{"ha":819,"x_min":7,"x_max":772,"o":"m 194 567 q 247 403 217 494 q 306 230 278 313 q 356 86 335 147 q 382 11 378 25 q 403 10 388 11 q 424 10 419 10 q 459 13 442 10 q 495 26 476 15 q 537 54 514 36 q 589 104 560 72 q 628 147 607 124 q 669 193 650 169 q 703 241 689 217 q 722 289 718 265 q 752 392 738 338 q 772 485 767 446 l 772 496 q 768 547 772 515 q 754 636 764 579 q 751 645 756 635 q 741 670 747 656 q 728 699 735 685 q 719 717 722 713 q 692 763 710 739 q 651 808 674 788 q 606 843 629 829 q 564 857 583 857 q 559 856 563 857 q 556 856 556 856 l 356 740 q 341 753 354 739 q 310 786 328 768 q 278 822 293 804 q 257 844 263 839 l 235 844 l 15 717 q 10 711 14 715 q 7 706 7 707 q 11 697 10 703 q 14 685 13 690 q 18 675 15 679 q 28 671 21 671 q 66 664 49 665 q 100 659 83 663 q 134 646 117 656 q 172 613 151 636 q 185 590 176 607 q 194 567 194 572 m 524 174 l 485 313 l 467 335 l 378 658 l 386 671 q 402 672 388 671 q 424 672 417 672 q 513 656 478 672 q 569 613 547 639 q 602 556 590 588 q 621 494 614 524 q 626 477 622 488 q 632 456 629 467 q 637 438 635 446 q 639 428 639 429 q 638 413 639 426 q 635 393 638 400 l 635 390 q 632 360 635 382 q 629 335 629 339 q 626 299 629 318 q 614 265 624 281 q 599 244 610 258 q 576 213 589 229 q 553 181 564 196 q 539 161 543 167 l 524 174 z "},"w":{"ha":1233,"x_min":26,"x_max":1182,"o":"m 663 314 q 678 309 668 314 q 690 301 688 304 l 774 0 q 787 -9 774 -6 q 811 -12 800 -12 q 851 5 825 -12 q 905 47 876 22 q 963 101 933 72 q 1014 151 992 129 q 1101 253 1068 206 q 1151 344 1133 300 q 1176 430 1169 388 q 1182 515 1182 472 q 1174 567 1182 539 q 1165 614 1165 596 q 1140 667 1154 642 q 1106 716 1126 693 q 1056 760 1085 739 q 986 799 1028 781 q 949 813 968 807 q 910 822 929 818 l 875 822 l 775 683 q 773 683 775 683 q 769 682 771 682 q 750 695 763 682 q 724 727 738 708 q 697 766 711 746 q 674 799 683 786 q 653 817 667 810 q 632 824 639 824 q 625 823 629 824 q 621 822 621 822 l 442 718 q 440 711 440 717 q 448 690 440 699 q 467 676 456 682 q 491 667 478 671 q 517 660 504 664 q 557 628 543 643 q 581 593 571 614 q 598 539 590 572 q 619 451 606 506 q 593 407 607 436 q 565 349 579 378 q 536 298 550 319 q 511 276 522 276 q 507 277 510 276 q 504 278 504 278 l 475 325 l 379 671 q 353 715 368 690 q 324 761 339 739 q 292 801 308 783 q 263 822 276 818 l 228 822 q 206 810 228 822 q 154 783 185 799 q 91 749 124 767 q 38 718 58 731 q 33 713 35 717 q 29 706 31 708 q 35 688 26 694 q 56 678 43 682 q 85 669 69 674 q 113 660 100 665 q 149 632 131 649 q 181 596 167 615 q 206 554 196 576 q 221 510 217 532 q 296 296 264 390 q 349 136 328 201 q 381 35 369 71 q 397 0 393 0 l 443 0 q 459 20 444 0 q 493 68 474 40 q 533 125 513 96 q 568 174 554 154 q 602 222 586 197 q 631 267 618 247 q 653 301 644 288 q 663 314 661 314 m 839 446 q 832 470 836 453 q 823 506 828 488 q 813 542 818 525 q 807 567 808 560 q 815 578 807 571 q 832 594 822 586 q 851 608 842 601 q 864 614 860 614 l 922 614 q 954 600 938 614 q 985 569 971 586 q 1008 538 999 553 q 1017 521 1017 524 q 1020 504 1017 515 q 1028 481 1024 493 q 1035 457 1032 468 q 1039 440 1039 446 q 1037 418 1039 436 q 1032 379 1035 400 q 1024 339 1029 358 q 1015 313 1019 319 q 999 283 1010 301 q 975 249 988 265 q 953 220 963 232 q 940 208 943 208 l 917 208 q 897 260 906 238 q 880 307 889 282 q 861 364 871 332 q 839 446 851 396 z "},"x":{"ha":792,"x_min":40,"x_max":771,"o":"m 53 -89 q 67 -135 61 -118 q 83 -167 72 -153 q 116 -199 94 -182 q 179 -243 138 -215 q 246 -274 215 -261 q 303 -312 276 -286 q 324 -322 314 -319 q 347 -325 335 -325 q 389 -311 365 -325 q 447 -289 413 -297 q 501 -269 476 -279 q 545 -247 526 -260 q 574 -217 564 -233 q 585 -176 585 -200 q 584 -168 585 -172 q 583 -161 583 -164 l 583 -160 q 572 -124 583 -140 q 547 -95 561 -107 q 516 -76 532 -83 q 490 -69 500 -69 q 478 -69 489 -69 q 463 -68 468 -68 q 426 -69 443 -68 q 400 -81 410 -71 q 365 -119 381 -100 q 334 -153 349 -139 q 304 -177 319 -168 q 268 -186 289 -186 q 235 -182 257 -186 q 190 -167 214 -178 q 146 -139 167 -157 q 115 -92 125 -121 l 110 -81 q 109 -74 110 -78 q 108 -69 108 -69 q 126 -11 108 -37 q 168 47 144 15 q 190 69 176 56 q 216 97 203 83 q 239 119 229 110 q 250 128 249 128 l 263 128 q 352 20 304 64 q 453 -24 400 -24 q 469 -23 463 -24 q 485 -19 476 -22 q 502 -8 493 -15 q 525 13 511 -1 q 578 56 551 31 q 619 98 604 82 q 635 117 633 114 q 629 135 640 129 q 599 143 618 140 q 557 147 579 146 q 521 151 535 147 q 492 160 504 151 q 472 182 481 169 q 460 208 464 194 q 453 229 456 221 q 440 291 444 260 q 432 358 435 322 q 428 437 429 394 q 428 532 428 479 q 438 562 428 546 q 460 592 447 578 q 487 617 474 607 q 506 626 500 626 q 525 621 514 626 q 548 608 536 615 q 569 596 560 601 q 585 590 579 590 q 598 590 586 590 q 615 589 610 589 q 693 611 651 589 q 765 694 735 633 q 769 706 767 697 q 771 718 771 715 q 760 729 771 725 q 736 738 750 733 q 709 745 722 742 q 692 753 696 749 q 677 763 688 756 q 655 781 667 771 q 633 799 643 790 q 618 810 622 807 l 594 810 l 436 671 l 413 671 q 386 711 400 693 q 356 746 372 729 q 321 781 340 763 q 279 822 301 799 q 268 823 278 822 q 253 824 258 824 q 230 817 238 824 q 216 802 222 811 q 202 783 210 793 q 179 764 194 772 q 149 742 167 756 q 115 717 132 729 q 87 694 99 704 q 75 683 75 685 l 75 682 q 94 649 75 658 q 137 632 113 640 q 183 609 161 624 q 213 561 206 594 q 220 515 221 542 q 222 440 219 489 q 222 425 222 438 q 222 399 222 413 q 222 374 222 386 q 221 358 221 361 q 222 346 221 356 q 225 324 224 336 q 228 302 226 313 q 229 289 229 292 q 222 233 229 257 q 203 188 215 208 q 172 147 190 167 q 131 104 153 126 l 86 93 q 76 88 83 92 q 67 82 69 83 q 60 59 64 75 q 51 24 56 43 q 44 -11 47 6 q 40 -35 40 -28 q 45 -57 40 -36 q 53 -89 50 -78 z "},"y":{"ha":967,"x_min":68,"x_max":904,"o":"m 118 -144 q 128 -171 125 -162 q 138 -186 132 -179 q 158 -203 144 -193 q 201 -231 172 -212 q 253 -258 228 -249 q 302 -272 278 -268 q 352 -277 326 -276 q 406 -278 378 -278 q 456 -279 432 -278 q 507 -276 479 -281 q 571 -256 535 -271 q 658 -207 607 -240 q 693 -159 676 -185 q 710 -103 710 -133 q 690 -55 710 -87 q 635 1 671 -22 q 611 2 629 1 q 588 3 593 3 q 535 -2 554 3 q 502 -22 515 -7 q 478 -61 489 -36 q 450 -126 467 -86 q 417 -166 439 -150 q 353 -196 394 -182 l 296 -196 q 255 -186 275 -193 q 219 -167 235 -179 q 195 -137 204 -156 q 186 -92 186 -119 q 213 -60 186 -74 q 275 -35 239 -46 q 347 -15 311 -24 q 403 1 383 -7 q 538 50 469 22 q 667 116 606 78 q 778 203 728 154 q 860 314 828 251 q 869 335 864 315 q 881 379 875 354 q 892 428 888 404 q 900 464 897 451 q 902 478 901 468 q 903 499 903 488 q 904 519 904 510 q 904 533 904 529 q 903 551 904 538 q 899 580 901 565 q 896 606 897 594 q 894 614 894 617 q 861 691 874 663 q 836 741 849 719 q 805 783 824 763 q 751 833 786 803 q 744 840 749 836 q 738 846 739 844 l 703 846 q 572 774 633 810 q 451 707 510 739 q 441 713 444 707 q 435 728 438 719 q 430 746 432 736 q 425 764 428 756 q 408 792 417 778 q 392 819 400 807 q 378 840 385 832 q 367 847 372 847 q 360 847 364 847 q 356 846 357 846 l 97 694 q 83 679 93 692 q 72 660 74 667 q 81 642 68 649 q 112 631 93 636 q 149 622 131 625 q 176 614 168 618 q 192 596 185 610 q 205 565 200 582 q 213 533 210 549 q 217 510 217 518 q 221 482 221 503 q 220 438 221 461 q 219 392 219 414 q 224 360 219 369 q 229 306 226 340 q 234 229 232 271 q 237 143 236 188 q 238 58 238 99 q 217 37 233 47 q 181 15 200 26 q 145 -8 163 4 q 124 -33 128 -19 q 115 -74 118 -50 q 111 -114 111 -99 q 114 -126 111 -115 q 118 -144 117 -137 m 442 579 q 458 614 442 600 q 494 636 474 628 q 535 647 515 644 q 561 650 554 650 q 583 646 568 650 q 614 632 597 642 q 647 606 631 622 q 675 568 664 590 q 681 543 675 560 q 692 507 686 526 q 704 469 699 488 q 710 440 710 450 l 710 433 q 676 281 710 351 q 567 163 642 211 q 508 129 539 146 q 461 113 478 113 q 456 138 460 118 q 451 163 453 157 l 451 244 q 453 262 451 247 q 454 279 454 276 q 453 292 454 282 q 450 314 451 303 q 447 335 449 325 q 446 349 446 346 q 445 386 446 360 q 444 444 444 413 q 442 506 443 475 q 442 558 442 538 l 442 579 z "},"z":{"ha":765,"x_min":40,"x_max":724,"o":"m 46 -74 q 64 -119 53 -99 q 94 -161 75 -139 q 131 -201 115 -185 q 165 -228 147 -217 q 207 -251 183 -240 q 267 -278 231 -262 q 290 -286 279 -283 q 313 -290 300 -289 q 343 -290 326 -290 q 385 -290 360 -290 q 475 -281 436 -290 q 545 -253 514 -271 q 601 -212 576 -236 q 650 -161 626 -189 q 681 -118 668 -143 q 704 -65 694 -93 q 719 -11 714 -37 q 724 35 724 15 q 719 72 724 53 q 710 110 715 92 q 701 145 706 129 q 697 174 697 161 q 686 190 692 179 q 674 213 681 200 q 662 237 668 225 q 651 256 656 249 q 622 290 636 274 q 589 326 607 307 q 547 367 571 344 q 492 417 524 389 l 485 440 l 683 603 q 697 619 688 606 q 708 638 707 633 q 699 671 717 657 q 652 697 682 685 q 585 719 622 708 q 517 742 549 729 q 476 756 508 744 q 408 781 444 768 q 338 807 371 794 q 297 822 306 819 q 268 832 282 829 q 247 835 254 835 q 229 826 240 835 q 206 805 218 817 q 182 781 193 793 q 164 764 171 769 q 129 739 149 753 q 93 712 110 725 q 64 688 76 699 q 50 672 51 676 q 53 660 50 667 q 57 649 57 654 q 140 643 99 646 q 218 636 181 640 q 285 626 256 632 q 333 614 315 621 q 355 604 342 610 q 381 593 368 599 q 403 583 393 588 q 413 579 413 579 l 418 556 q 401 542 413 551 q 375 521 389 532 q 349 500 361 510 q 333 486 338 490 q 323 476 331 485 q 306 458 315 468 q 290 439 297 447 q 279 429 282 431 q 259 413 271 421 q 238 399 247 406 q 221 385 228 392 q 214 371 214 378 q 221 346 214 354 q 238 332 228 338 q 262 322 249 326 q 288 313 275 318 q 359 278 328 297 q 413 239 390 260 q 452 198 436 218 q 479 163 468 178 q 517 104 507 131 q 539 39 528 78 q 543 22 540 32 q 548 3 546 13 q 552 -14 550 -7 q 554 -22 554 -21 l 554 -31 q 544 -81 554 -54 q 517 -128 533 -107 q 483 -166 501 -150 q 449 -185 465 -182 q 430 -185 446 -185 q 406 -186 414 -186 q 358 -180 378 -186 q 322 -150 338 -174 q 284 -63 300 -106 q 247 0 268 -21 q 216 24 228 14 q 192 39 204 33 q 165 47 181 44 q 124 49 149 49 q 77 42 92 49 q 51 0 63 35 q 44 -22 49 -6 q 40 -44 40 -37 l 40 -46 q 42 -57 40 -47 q 46 -74 43 -67 z "},"":{"ha":832,"x_min":61,"x_max":768,"o":"m 114 104 q 99 81 107 92 q 82 60 90 71 q 68 39 74 50 q 61 14 63 28 q 92 -40 69 -17 q 146 -104 114 -64 l 171 -104 q 187 -94 175 -104 q 214 -68 199 -85 q 245 -31 229 -51 q 274 11 261 -10 q 269 43 283 28 q 237 72 256 58 q 201 93 218 85 q 189 103 185 101 l 171 103 q 136 103 151 103 q 114 104 121 103 m 357 107 q 342 84 350 94 q 325 63 333 74 q 311 42 317 53 q 304 17 306 31 q 335 -37 313 -14 q 389 -101 357 -61 l 414 -101 q 430 -92 418 -101 q 457 -65 442 -82 q 488 -28 472 -49 q 517 14 504 -7 q 513 46 526 31 q 480 74 499 61 q 444 96 461 88 q 432 106 428 104 l 414 106 q 379 106 394 106 q 357 107 364 106 m 599 108 q 583 85 592 96 q 567 65 575 75 q 553 43 558 54 q 546 18 547 32 q 576 -36 554 -12 q 631 -100 599 -60 l 656 -100 q 672 -90 660 -100 q 699 -64 683 -81 q 730 -26 714 -47 q 758 15 746 -6 q 754 47 768 32 q 722 76 740 63 q 686 97 703 89 q 674 107 669 106 l 656 107 q 621 107 636 107 q 599 108 606 107 z "},"":{"ha":536,"x_min":22,"x_max":518,"o":"m 313 1071 q 275 1054 306 1071 q 202 1015 244 1038 q 112 968 160 992 q 22 931 64 944 q 108 739 85 839 q 129 532 132 639 q 129 419 129 486 q 128 286 129 353 q 128 164 128 219 q 128 85 128 108 q 129 38 128 53 q 135 4 131 24 l 335 4 q 343 18 342 4 q 344 50 344 32 l 344 514 q 340 614 344 569 q 324 703 336 658 q 290 796 311 747 q 236 907 269 844 q 235 914 235 908 l 235 928 q 238 929 236 928 q 240 931 239 931 q 280 912 260 924 q 319 889 300 900 q 358 869 339 878 q 393 860 376 860 q 428 872 410 860 q 463 903 446 885 q 495 942 481 922 q 518 976 510 961 q 509 997 518 989 q 488 1008 500 1004 q 461 1015 475 1013 q 436 1022 447 1018 q 403 1036 422 1028 q 364 1052 383 1044 q 330 1065 344 1060 q 313 1071 315 1071 z "},"":{"ha":1318,"x_min":14,"x_max":1278,"o":"m 38 300 q 51 247 46 267 q 65 208 57 226 q 90 167 74 189 q 136 108 106 144 q 162 79 144 97 q 201 44 179 61 q 247 15 224 28 q 293 3 271 3 q 317 5 308 3 q 331 9 326 7 q 339 13 336 11 q 346 15 342 15 q 478 57 425 44 q 563 75 531 69 l 563 25 q 568 10 563 18 q 581 3 574 3 l 778 3 l 782 25 q 783 85 782 44 q 784 178 783 126 q 785 286 785 229 q 787 394 786 343 q 788 485 788 444 q 790 546 789 526 l 790 558 q 796 606 790 594 q 829 617 801 617 q 953 553 893 617 q 1065 385 1013 489 q 1078 353 1069 379 q 1094 297 1086 326 q 1108 241 1103 267 q 1113 211 1114 215 q 1117 192 1115 206 q 1119 162 1118 178 q 1119 131 1119 146 q 1119 107 1119 115 q 1110 22 1115 54 q 1092 -44 1106 -10 q 1061 -90 1076 -75 q 1022 -104 1046 -104 q 990 -98 1001 -104 q 966 -85 978 -92 q 939 -72 954 -78 q 896 -65 924 -65 q 865 -66 878 -65 q 844 -72 853 -67 q 828 -90 835 -78 q 813 -125 821 -103 q 810 -136 811 -128 q 808 -147 808 -144 l 808 -150 q 813 -174 808 -156 q 821 -200 818 -192 q 833 -235 825 -217 q 857 -267 842 -253 q 897 -291 872 -282 q 958 -300 922 -300 q 1029 -290 999 -300 q 1087 -257 1060 -279 q 1141 -199 1114 -235 q 1203 -114 1168 -164 q 1247 13 1233 -53 q 1278 164 1261 79 q 1274 198 1275 176 q 1272 242 1272 219 q 1271 285 1271 265 q 1271 315 1271 306 q 1258 358 1265 332 q 1242 416 1250 385 q 1224 481 1233 447 q 1207 546 1215 515 q 1165 612 1196 569 q 1093 708 1133 654 q 1070 731 1086 715 q 1038 762 1054 746 q 1006 790 1021 778 q 985 801 990 801 l 963 801 l 811 719 l 790 719 q 783 738 789 724 q 778 754 778 751 q 778 794 778 769 q 778 847 778 821 q 782 896 779 874 q 789 928 785 918 q 799 956 793 944 q 813 976 806 968 q 829 992 821 985 q 847 1010 838 1000 q 865 1020 854 1017 q 875 1032 875 1024 q 867 1049 875 1043 q 847 1056 858 1054 q 820 1058 835 1058 q 793 1057 806 1057 q 735 1056 753 1057 q 699 1044 718 1054 q 666 1023 683 1038 q 639 1008 649 1008 q 615 1018 631 1008 q 586 1032 599 1028 q 529 1053 557 1047 q 472 1058 501 1058 q 477 1045 474 1056 q 483 1032 481 1035 q 507 997 497 1010 q 524 972 517 983 q 538 946 531 960 q 553 910 544 932 q 556 883 554 894 q 560 856 558 871 q 563 823 563 842 q 564 778 564 804 q 564 747 564 771 q 563 697 564 724 q 563 644 563 669 q 563 615 563 621 q 566 599 563 613 q 572 581 569 585 l 564 131 q 524 137 543 135 q 497 143 504 139 q 413 177 454 157 q 336 222 372 197 q 270 275 300 246 q 222 339 240 304 q 194 400 203 374 q 183 449 186 426 q 178 492 179 471 q 176 536 178 513 l 176 593 q 176 602 176 594 q 175 617 175 610 q 174 632 175 625 q 174 640 174 639 q 190 663 183 650 q 201 686 196 675 q 210 704 206 697 q 224 711 215 711 q 238 701 231 711 q 268 676 244 690 q 311 657 294 663 q 351 651 328 651 q 404 670 378 651 q 464 722 431 689 q 476 738 469 728 q 490 756 483 747 q 502 772 497 765 q 507 781 507 779 l 500 803 q 461 803 472 803 q 442 808 451 803 q 413 824 432 813 q 346 860 393 836 q 337 860 344 860 q 326 861 329 861 q 287 848 313 861 q 235 818 261 835 q 188 786 210 801 q 163 767 167 771 q 51 597 88 678 q 14 432 14 517 q 15 400 14 414 q 19 372 17 386 q 26 342 22 358 q 38 300 31 325 z "},"":{"ha":1385,"x_min":38,"x_max":1356,"o":"m 61 296 q 75 242 69 263 q 89 203 81 222 q 113 163 97 185 q 160 104 129 140 q 185 75 168 93 q 225 40 203 57 q 271 11 247 24 q 317 -1 294 -1 q 341 1 332 -1 q 355 5 350 3 q 363 9 360 7 q 369 11 365 11 q 519 58 461 46 q 607 74 576 69 l 625 6 l 810 6 q 811 18 811 6 q 811 40 811 32 q 811 71 811 46 q 810 126 811 97 q 810 181 810 156 q 810 214 810 207 l 810 294 q 818 307 811 299 q 828 318 825 315 l 908 318 q 928 308 914 315 q 958 291 943 301 q 984 269 972 281 q 996 249 996 258 q 1022 168 1007 214 q 1053 80 1038 122 q 1081 7 1068 38 q 1097 -29 1093 -24 l 1108 -29 q 1226 1 1181 -12 q 1297 26 1271 15 q 1335 42 1324 36 q 1353 51 1347 49 q 1347 73 1356 64 q 1326 90 1339 82 q 1298 105 1313 97 q 1275 121 1283 113 q 1243 169 1260 136 q 1208 237 1226 201 q 1167 302 1189 272 q 1121 340 1146 332 q 1110 345 1118 342 q 1094 353 1103 349 q 1078 360 1086 357 q 1068 364 1071 363 l 1065 375 q 1169 455 1143 404 q 1196 565 1196 506 l 1196 574 q 1188 619 1196 596 q 1170 661 1181 642 q 1150 694 1160 681 q 1136 711 1140 707 q 1045 781 1082 756 q 969 806 1008 806 q 957 805 965 806 q 947 803 949 804 l 828 733 l 794 733 q 794 740 794 731 q 792 766 793 750 q 790 801 790 782 q 789 838 789 821 l 789 883 q 792 933 789 913 q 803 969 796 953 q 822 1001 810 986 q 849 1035 833 1017 q 844 1056 849 1046 q 828 1069 839 1065 l 782 1069 q 713 1050 746 1065 q 647 1011 679 1035 q 575 1053 617 1036 q 490 1071 533 1071 q 495 1058 492 1068 q 501 1046 499 1049 q 526 1011 513 1028 q 551 976 539 994 q 571 935 563 957 q 579 885 579 913 q 581 811 579 864 q 584 699 582 758 q 588 588 586 640 q 590 514 589 535 q 592 501 590 511 q 594 479 593 490 q 597 458 596 468 q 599 444 599 447 q 599 388 599 428 q 601 302 600 349 q 603 207 603 256 q 606 124 604 158 q 556 132 582 129 q 521 139 529 135 q 437 173 478 153 q 360 217 396 193 q 294 271 324 242 q 246 335 264 300 q 218 396 226 369 q 206 444 210 422 q 202 488 203 467 q 200 532 201 508 l 200 589 q 199 598 200 590 q 199 613 199 606 q 198 628 199 621 q 197 636 197 635 q 213 658 207 646 q 224 682 219 671 q 234 700 229 693 q 247 707 239 707 q 261 697 254 707 q 292 672 268 686 q 335 653 318 658 q 375 647 351 647 q 428 666 401 647 q 488 718 454 685 q 500 733 493 724 q 514 752 507 743 q 526 768 521 761 q 531 776 531 775 l 524 799 q 485 799 496 799 q 465 803 475 799 q 436 820 456 808 q 369 856 417 832 q 360 856 368 856 q 350 857 353 857 q 310 844 336 857 q 259 814 285 831 q 212 782 233 797 q 186 763 190 767 q 74 593 111 674 q 38 428 38 513 q 39 396 38 410 q 43 368 40 382 q 50 338 46 354 q 61 296 54 321 m 801 450 q 797 496 799 468 q 792 572 794 524 q 792 587 792 578 q 793 603 793 596 l 793 607 q 808 624 803 617 q 819 635 813 631 q 840 641 826 639 q 882 643 854 643 q 950 627 921 643 q 994 560 979 611 q 1001 534 997 551 q 1006 514 1004 517 q 999 499 1003 511 q 990 473 994 486 q 981 450 985 460 q 978 444 978 440 q 936 423 954 431 q 894 410 918 415 l 825 410 q 811 423 813 417 q 801 450 810 429 z "},"":{"ha":1710,"x_min":22,"x_max":1663,"o":"m 422 300 q 436 247 431 267 q 450 208 442 226 q 474 167 458 189 q 521 108 490 144 q 547 79 529 97 q 586 44 564 61 q 632 15 608 28 q 678 3 656 3 q 702 5 693 3 q 716 9 711 7 q 724 13 721 11 q 731 15 726 15 q 863 57 810 44 q 947 75 915 69 l 947 25 q 953 10 947 18 q 965 3 958 3 l 1163 3 l 1167 25 q 1167 85 1167 44 q 1169 178 1168 126 q 1170 286 1169 229 q 1172 394 1171 343 q 1173 485 1172 444 q 1175 546 1174 526 l 1175 558 q 1181 606 1175 594 q 1214 617 1186 617 q 1338 553 1278 617 q 1450 385 1397 489 q 1463 353 1454 379 q 1479 297 1471 326 q 1493 241 1488 267 q 1497 211 1499 215 q 1501 192 1500 206 q 1503 162 1503 178 q 1504 131 1504 146 q 1504 107 1504 115 q 1495 22 1500 54 q 1476 -44 1490 -10 q 1446 -90 1461 -75 q 1407 -104 1431 -104 q 1374 -98 1386 -104 q 1351 -85 1363 -92 q 1324 -72 1339 -78 q 1281 -65 1308 -65 q 1250 -66 1263 -65 q 1228 -72 1238 -67 q 1213 -90 1219 -78 q 1197 -125 1206 -103 q 1194 -136 1196 -128 q 1193 -147 1193 -144 l 1193 -150 q 1198 -174 1193 -156 q 1206 -200 1203 -192 q 1218 -235 1210 -217 q 1242 -267 1226 -253 q 1282 -291 1257 -282 q 1343 -300 1307 -300 q 1414 -290 1383 -300 q 1472 -257 1444 -279 q 1526 -199 1499 -235 q 1588 -114 1553 -164 q 1632 13 1618 -53 q 1663 164 1646 79 q 1658 198 1660 176 q 1656 242 1657 219 q 1656 285 1656 265 q 1656 315 1656 306 q 1642 358 1650 332 q 1626 416 1635 385 q 1609 481 1618 447 q 1592 546 1600 515 q 1549 612 1581 569 q 1478 708 1518 654 q 1455 731 1471 715 q 1422 762 1439 746 q 1390 790 1406 778 q 1369 801 1375 801 l 1347 801 l 1196 719 l 1175 719 q 1168 738 1174 724 q 1163 754 1163 751 q 1163 794 1163 769 q 1163 847 1163 821 q 1167 896 1164 874 q 1174 928 1169 918 q 1184 956 1178 944 q 1198 976 1190 968 q 1214 992 1206 985 q 1232 1010 1222 1000 q 1249 1020 1239 1017 q 1260 1032 1260 1024 q 1251 1049 1260 1043 q 1231 1056 1243 1054 q 1205 1058 1219 1058 q 1178 1057 1190 1057 q 1120 1056 1138 1057 q 1083 1044 1103 1054 q 1051 1023 1068 1038 q 1024 1008 1033 1008 q 999 1018 1015 1008 q 971 1032 983 1028 q 914 1053 942 1047 q 857 1058 886 1058 q 862 1045 858 1056 q 868 1032 865 1035 q 892 997 882 1010 q 908 972 901 983 q 922 946 915 960 q 938 910 929 932 q 941 883 939 894 q 945 856 943 871 q 948 823 947 842 q 949 778 949 804 q 949 747 949 771 q 948 697 949 724 q 947 644 947 669 q 947 615 947 621 q 951 599 947 613 q 957 581 954 585 l 949 131 q 908 137 928 135 q 882 143 889 139 q 798 177 839 157 q 721 222 757 197 q 655 275 685 246 q 607 339 625 304 q 579 400 588 374 q 567 449 571 426 q 563 492 564 471 q 561 536 563 513 l 561 593 q 560 602 561 594 q 560 617 560 610 q 559 632 560 625 q 558 640 558 639 q 574 663 568 650 q 585 686 581 675 q 595 704 590 697 q 608 711 600 711 q 622 701 615 711 q 653 676 629 690 q 696 657 679 663 q 736 651 713 651 q 789 670 763 651 q 849 722 815 689 q 861 738 854 728 q 875 756 868 747 q 887 772 882 765 q 892 781 892 779 l 885 803 q 846 803 857 803 q 826 808 836 803 q 797 824 817 813 q 731 860 778 836 q 722 860 729 860 q 711 861 714 861 q 672 848 697 861 q 620 818 646 835 q 573 786 594 801 q 547 767 551 771 q 435 597 472 678 q 399 432 399 517 q 400 400 399 414 q 404 372 401 386 q 411 342 407 358 q 422 300 415 325 m 313 1068 q 275 1051 306 1068 q 202 1012 244 1035 q 112 965 160 989 q 22 928 64 942 q 108 736 85 836 q 129 529 132 636 q 129 417 129 483 q 128 283 129 350 q 128 161 128 217 q 128 82 128 106 q 129 35 128 50 q 135 1 131 21 l 335 1 q 343 15 342 1 q 344 47 344 29 l 344 511 q 340 611 344 567 q 324 700 336 656 q 290 793 311 744 q 236 904 269 842 q 235 911 235 906 l 235 925 q 238 926 236 925 q 240 928 239 928 q 280 909 260 921 q 319 886 300 897 q 358 866 339 875 q 393 857 376 857 q 428 869 410 857 q 463 901 446 882 q 495 939 481 919 q 518 974 510 958 q 509 994 518 986 q 488 1006 500 1001 q 461 1013 475 1010 q 436 1019 447 1015 q 403 1033 422 1025 q 364 1049 383 1042 q 330 1063 344 1057 q 313 1068 315 1068 z "},"":{"ha":281,"x_min":8,"x_max":229,"o":"m 222 1135 q 226 1124 224 1132 q 229 1113 228 1115 q 219 1070 225 1097 q 208 1014 214 1043 q 197 960 203 985 q 190 926 192 936 l 165 926 q 133 956 158 926 q 79 1020 107 985 q 30 1084 51 1056 q 8 1113 8 1113 q 9 1117 10 1114 q 11 1124 8 1121 q 38 1135 18 1126 q 64 1147 57 1144 l 75 1147 q 97 1140 88 1143 q 114 1136 106 1138 q 134 1134 122 1135 q 165 1133 146 1133 q 200 1133 185 1133 q 222 1135 215 1133 z "},"":{"ha":325,"x_min":50,"x_max":271,"o":"m 57 1135 q 53 1124 56 1132 q 50 1113 51 1115 q 60 1070 54 1097 q 71 1014 65 1043 q 81 960 76 985 q 89 926 86 936 l 114 926 q 147 956 121 926 q 200 1020 172 985 q 249 1084 228 1056 q 271 1113 271 1113 q 270 1117 269 1114 q 268 1124 271 1121 q 242 1135 261 1126 q 215 1147 222 1144 l 204 1147 q 183 1140 192 1143 q 165 1136 174 1138 q 145 1134 157 1135 q 114 1133 133 1133 q 79 1133 94 1133 q 57 1135 64 1133 z "},"":{"ha":574,"x_min":36,"x_max":510,"o":"m 503 1135 q 506 1124 504 1132 q 510 1113 508 1115 q 500 1070 506 1097 q 489 1014 494 1043 q 478 960 483 985 q 471 926 472 936 l 446 926 q 413 956 439 926 q 360 1020 388 985 q 310 1084 332 1056 q 289 1113 289 1113 q 290 1117 290 1114 q 292 1124 289 1121 q 318 1135 299 1126 q 344 1147 338 1144 l 356 1147 q 377 1140 368 1143 q 394 1136 386 1138 q 415 1134 403 1135 q 446 1133 426 1133 q 481 1133 465 1133 q 503 1135 496 1133 m 250 1135 q 253 1124 251 1132 q 257 1113 256 1115 q 247 1070 253 1097 q 236 1014 242 1043 q 225 960 231 985 q 218 926 219 936 l 193 926 q 160 956 186 926 q 107 1020 135 985 q 58 1084 79 1056 q 36 1113 36 1113 q 37 1117 38 1114 q 39 1124 36 1121 q 65 1135 46 1126 q 92 1147 85 1144 l 103 1147 q 124 1140 115 1143 q 142 1136 133 1138 q 162 1134 150 1135 q 193 1133 174 1133 q 228 1133 213 1133 q 250 1135 243 1133 z "},"":{"ha":571,"x_min":61,"x_max":535,"o":"m 68 1135 q 65 1124 67 1132 q 61 1113 63 1115 q 71 1070 65 1097 q 82 1014 76 1043 q 92 960 88 985 q 100 926 97 936 l 125 926 q 158 956 132 926 q 211 1020 183 985 q 260 1084 239 1056 q 282 1113 282 1113 q 281 1117 281 1114 q 279 1124 282 1121 q 253 1135 272 1126 q 226 1147 233 1144 l 215 1147 q 194 1140 203 1143 q 176 1136 185 1138 q 156 1134 168 1135 q 125 1133 144 1133 q 90 1133 106 1133 q 68 1135 75 1133 m 321 1135 q 317 1124 319 1132 q 314 1113 315 1115 q 324 1070 318 1097 q 335 1014 329 1043 q 345 960 340 985 q 353 926 350 936 l 378 926 q 410 956 385 926 q 464 1020 436 985 q 513 1084 492 1056 q 535 1113 535 1113 q 534 1117 533 1114 q 532 1124 535 1121 q 506 1135 525 1126 q 479 1147 486 1144 l 468 1147 q 447 1140 456 1143 q 429 1136 438 1138 q 409 1134 421 1135 q 378 1133 397 1133 q 343 1133 358 1133 q 321 1135 328 1133 z "},"":{"ha":688,"x_min":75,"x_max":619,"o":"m 440 508 l 568 508 q 578 522 569 508 q 595 554 586 536 q 611 590 604 572 q 618 618 618 608 q 619 626 618 619 q 619 638 619 632 q 619 646 619 642 q 618 653 618 650 l 426 653 l 218 653 l 201 653 q 194 651 201 650 q 183 653 186 653 l 90 653 q 81 640 83 653 q 75 618 78 626 l 75 538 q 76 523 75 535 q 79 508 78 511 l 199 508 l 440 508 z "},"":{"ha":863,"x_min":76,"x_max":786,"o":"m 607 511 l 735 511 q 744 525 736 511 q 762 557 753 539 q 778 593 771 575 q 785 621 785 611 q 785 628 785 622 q 786 640 786 635 q 785 649 786 644 q 785 656 785 653 l 593 656 q 514 655 564 656 q 410 654 464 654 q 304 653 356 654 q 219 653 253 653 l 203 653 q 195 651 203 650 q 185 653 188 653 l 92 653 q 82 640 85 653 q 76 618 79 626 l 76 538 q 78 523 76 535 q 81 508 79 511 l 200 508 l 607 511 z "},"":{"ha":1019,"x_min":28,"x_max":989,"o":"m 318 1068 q 281 1051 311 1068 q 208 1012 250 1035 q 117 965 165 989 q 28 928 69 942 q 114 736 90 836 q 135 529 138 636 q 135 417 135 483 q 134 283 135 350 q 133 161 133 217 q 133 82 133 106 q 135 35 133 50 q 140 1 136 21 l 340 1 q 349 15 347 1 q 350 47 350 29 l 350 511 q 348 583 350 550 q 340 647 346 615 q 418 642 379 644 q 491 635 457 639 q 553 626 525 631 q 599 614 582 621 q 620 604 607 610 q 646 593 633 599 q 668 583 658 588 q 678 579 678 579 l 683 556 q 666 542 678 551 q 640 521 654 532 q 615 500 626 510 q 599 486 603 490 q 588 476 596 485 q 572 458 581 468 q 555 439 563 447 q 544 429 547 431 q 524 413 536 421 q 503 399 513 406 q 486 385 493 392 q 479 371 479 378 q 486 346 479 354 q 503 332 493 338 q 527 322 514 326 q 553 313 540 318 q 624 278 593 297 q 678 239 656 260 q 717 198 701 218 q 744 163 733 178 q 783 104 772 131 q 804 39 793 78 q 808 22 806 32 q 813 3 811 13 q 817 -14 815 -7 q 819 -22 819 -21 l 819 -31 q 806 -146 819 -104 q 740 -187 792 -187 q 692 -181 713 -187 q 657 -151 672 -175 q 619 -65 635 -107 q 582 -1 603 -22 q 551 22 563 13 q 527 38 539 32 q 499 45 515 43 q 458 47 483 47 q 412 40 426 47 q 386 -1 397 33 q 379 -23 383 -7 q 375 -46 375 -39 l 375 -47 q 497 -228 406 -164 q 719 -292 589 -292 q 827 -260 778 -292 q 913 -179 876 -228 q 969 -74 949 -131 q 989 35 989 -17 q 985 72 989 53 q 976 110 981 92 q 967 145 971 129 q 963 174 963 161 q 951 190 957 179 q 940 213 946 200 q 927 237 933 225 q 917 256 921 249 q 887 290 901 274 q 854 326 872 307 q 813 367 836 344 q 757 417 789 389 l 750 440 l 949 603 q 963 619 953 606 q 974 638 972 633 q 965 671 982 657 q 917 697 947 685 q 851 719 888 708 q 782 742 814 729 q 742 756 774 744 q 673 781 710 768 q 603 807 636 794 q 563 822 571 819 q 533 832 547 829 q 513 835 519 835 q 494 826 506 835 q 471 805 483 817 q 447 781 458 793 q 429 764 436 769 q 378 727 406 749 q 332 690 350 706 q 299 788 321 738 q 242 904 278 838 q 240 911 240 906 l 240 925 q 243 926 242 925 q 246 928 244 928 q 285 909 265 921 q 325 886 306 897 q 363 866 344 875 q 399 857 382 857 q 433 869 415 857 q 469 901 451 882 q 501 939 486 919 q 524 974 515 958 q 515 994 524 986 q 493 1006 506 1001 q 467 1013 481 1010 q 442 1019 453 1015 q 408 1033 428 1025 q 369 1049 389 1042 q 335 1063 350 1057 q 318 1068 321 1068 z "},"C":{"ha":1013,"x_min":38,"x_max":979,"o":"m 93 325 q 143 246 118 283 q 203 174 168 208 q 274 117 244 140 q 330 75 303 93 q 388 43 357 57 q 467 13 419 29 q 515 -1 493 4 q 562 -8 538 -6 q 617 -10 586 -10 q 692 -12 647 -11 q 708 -12 697 -12 q 733 -12 721 -12 q 753 -11 744 -11 q 764 -11 763 -11 l 796 0 l 979 256 q 972 273 979 263 q 958 290 965 283 l 946 290 q 891 257 918 269 q 824 232 864 244 q 794 225 807 228 q 765 222 781 222 q 731 220 750 221 q 682 219 711 219 q 638 219 660 219 q 600 221 617 218 q 573 231 583 224 q 563 256 563 239 l 654 764 q 663 779 654 769 q 675 789 671 789 q 706 774 686 789 q 744 740 725 758 q 776 708 763 722 q 789 694 789 693 q 808 652 799 675 q 832 625 818 629 l 843 625 q 851 640 844 628 q 867 669 857 651 q 886 706 876 686 q 904 742 896 725 q 912 762 906 747 q 924 793 918 776 q 936 824 931 810 q 944 846 942 839 q 933 874 936 864 q 920 893 931 883 q 885 917 910 903 q 808 961 860 932 q 674 1033 742 999 q 538 1100 607 1067 q 515 1110 522 1107 q 494 1113 508 1113 q 451 1102 479 1113 q 389 1074 424 1092 q 317 1034 354 1057 q 246 987 279 1011 q 185 938 213 963 q 146 892 158 913 q 140 881 146 890 q 128 861 135 872 q 116 839 122 850 q 107 822 110 828 q 58 702 76 764 q 38 568 39 640 q 41 536 39 550 q 46 507 43 522 q 53 472 49 492 q 65 422 57 453 q 71 403 67 417 q 80 374 75 389 q 88 344 85 358 q 93 325 92 331 m 254 526 q 233 608 239 579 q 228 658 228 636 l 228 672 q 246 772 232 724 q 281 858 260 821 q 326 918 301 896 q 374 940 350 940 q 440 921 394 940 q 560 857 485 901 q 581 838 571 849 q 592 828 592 828 l 592 822 q 551 595 571 699 q 517 416 532 492 q 492 298 501 340 q 482 256 483 256 q 476 254 481 254 q 469 254 472 254 q 435 267 454 254 q 397 297 417 279 q 357 335 376 315 q 322 371 338 356 q 296 414 306 399 q 280 444 286 429 q 269 476 274 458 q 254 526 264 494 z "}}}
